<mxfile host="65bd71144e">
    <diagram id="SiuOfCo48CVN-o7db4B8" name="Page-1">
        <mxGraphModel dx="806" dy="609" grid="1" gridSize="10" guides="1" tooltips="1" connect="1" arrows="1" fold="1" page="1" pageScale="1" pageWidth="850" pageHeight="1100" math="0" shadow="0">
            <root>
                <mxCell id="0"/>
                <mxCell id="1" parent="0"/>
                <mxCell id="2" value="&lt;font style=&quot;font-size: 20px;&quot;&gt;Reverse a Number, in JS&lt;/font&gt;" style="text;html=1;align=center;verticalAlign=middle;resizable=0;points=[];autosize=1;strokeColor=none;fillColor=none;" vertex="1" parent="1">
                    <mxGeometry x="320" y="80" width="250" height="40" as="geometry"/>
                </mxCell>
                <mxCell id="5" value="Number here..." style="rounded=1;whiteSpace=wrap;html=1;align=left;" vertex="1" parent="1">
                    <mxGeometry x="70" y="150" width="230" height="60" as="geometry"/>
                </mxCell>
                <mxCell id="6" value="REVERSE" style="whiteSpace=wrap;html=1;" vertex="1" parent="1">
                    <mxGeometry x="70" y="240" width="90" height="30" as="geometry"/>
                </mxCell>
                <mxCell id="7" value="" style="shape=image;verticalLabelPosition=bottom;labelBackgroundColor=default;verticalAlign=top;aspect=fixed;imageAspect=0;image=data:image/png,iVBORw0KGgoAAAANSUhEUgAAAO4AAAEvCAIAAADNT2rQAAAAAXNSR0IArs4c6QAAIABJREFUeJzsvVmsHtmRJvZFxDmZ/3Y3Xu7FpVZVlVQqbd3q1aNpG92Ybj8YAwxgeBljYAxsAzb6QQ+GAY/9YI8Bww/zYNiAYRhGY+AFBhow2j0zbvS4u1VSS6VSlYq1qDauxSJ57+Xdl3/JzHMiwg/5/5dUiaxuUWSVZqAAQSR5/z/vyZPfiRPLF3Go8TfwC/mF/Isv/FkP4BfyC3k4Ev7KT/zpn3z32y/98K03L964sTYaTT6VUf1CfiHo97tnz5588Uuf+xvf+Nrv/K3f+Cs/T59gYPzjP/ij//V/+b9XVjYe9iB/Ib+Qn05Onz727//9v/3v/b1/4xM+c28oX7t687/4z/+HH7zy9qMc3i/kF/LTydd/5Yv/9X/znzzx5Jl7/vQeUH79h+/+x//RP9za2mv/+ZWvvPjNb/7+iy9+dW5whOivNkgeoiggBs+gDBjQ2vYyHTgIIAaREzmgTurm7h3OBL/3HbkABA44AIMB5ACBHEpQBrlxnkCVSYQKkgjC9M/Pl7j74d8AnCgTEYBspMbmwgwhEAPISE4AUfsRBxxucHfvaoCzMzJ7JneAYezODoGRq6qZupm7BApCITqYgfjIHzAfDLffeuv1f/SP/vsLF95q/3N5eeF//J/+wVe/9vmf/PzHoXzt6s1/+9/8Tw9x/Id/+L9/7avfeMRjvq84QID7FHtGcMAABzIyAAYRiOAMYnCLYIHfD8pZTQ3MTCIG8+mtNCMLQgfRZvcHjOHBXBwEgsin/fB/lXwMygCYzdGuas1mRnAmQBzUyyoGEIEZfPeydIwTskEIgT0QiQAOA9w10Hg6vRBAQO08f/oP+8PXX/o7f+ffaa+Xlxf+j//rv/tJ3fxxKP+7/9Z/1toVp06d+Gf/7J8uLpz8FAf8Y+Jw1TGInchBRmSAgQzuoC5YpjjGVM+AYOZqdRDjeyvRoBbUQCAmB5wBkBMcngy1MgNCFOFCzgDBQU4EfLrb0V9HfgLKztSACGCFK9AuSwUc6JmwE6F9pDtCRG7qcONWU0xVAwEMNEADZlAACRCnkzW7wX0m+RHJ7t7a7/3ev766eru1NP63//O//dgHfgzK//gP/ugf/lf/c3t94cJrnyGOAQCuVk2x2s6egYzInZxABahVoepuzoQgxGRu7ZZ67zsSQA4DzKHGDiaZvhJHnSFAcIAc5BC4eBYHKOLnXyu7UwKBQAQm0HRzancZFrTqwdFikQAQgQB2kIPaDzpAsPZzJCrTnbGF9hS6Pt0vP10ot2j+yld+qb3+B//lf/AxL/DHoPw3f/PvtfGKz9auuCM2nT43hzmZQ336hjoChimyqZqCnIRFBORx+ibuIZkpMRGoNRXJIcTCIAIUUFCLckyhrBGZyEGdn3tbGYAROVxNYWBH8NYYYDi0A50ufLg7OZiICcwQP5wumqLUW8wTO93tKTg5yKcTMd0RP205tDROnz72rb/8g7t/dGff/NM/+W6L46985cWfCxw70KB9F0qkTGCwmDgY2A/Z4WzKlqiquWqoSWgyuaV6CE33vmXsUNFFEI9Bi2hl4WVhMUKEhESMfaqkGETEIP5s3tiDCIlSdjJQcnUYk0VYARJCBTZAkbNnyxlqDBJiIuq6BjhARAJiZzEWY3IiJiaQAhlmMIKLUzQEJyJAPoOJ+dpXv/GVr7x44cJbKysbf/on37073nwHyt9+6YftxTe/+fuf/hDvIS2UBRqhEUYwZCCRZjINK7cxrmg4od0DbO/x1gHvDulgzE1Kt1dsMrrnLWVxOSwd0SLkXpnme748T0cX5cgiz/V0oV8tDpgDcRREQQiAOII6AQg/93h2UIMoCJEiB0M2r7WejOqxN2khGZrsVVVPJvWkynWynM0BYL9wKlgkSlHGsiudLnW73ClMpOkUTVE6GJCpw0hQdyQTZpbPJlX8zW/+/t/9u3+/Rey9ofzWmxfbixdf/OpnMcKfEIJ2wAHMKN3QjDHczTtbeXvbhuPem+9ifWOyvjlcvd2sb9LusNukPlhYaHLgqb7nLZ0L55CY6iC536Uj8/H4cjy2XC4u8OPn8eILGAywvOhLi96bI2Zk98bdnOZ+7ty+jwmRoyC4k6bYVBjvY3vD1tfTxobuD/H6JewNaTIJo7GNxqgbTZnNARxIkwIVZafTG2Awj4W5uLBAgz53yvDkE/2nn6RBDwvzmJ/z2FGImjdq4uh8Rk96iM9DxLZy5w3duLHWXswNjny6Y7u3GGFUIAJRa9nb8Vu30uUr1bsfjD64Wq+un/rwslRj1tRLTUcbWCJogmfywrjj91aixm7w6BCD7TBWC7nYibHkUOTe8vD4U3LuZHzhaXnxufD043T8JHrzVHzqT/6A4pAGw4Nq/fbkxvV05ZpfvsbXboRbt8PuQWX7lutUN1ony5nMI3EpkUUW6wR1kIDFQmxiGBWxjiEFpsWzxamnyzMnu889EZ5/ih4/E5aPhG6HBo86pvxJcojPQ8S2cgfKh/yKR5oHuRPSb/1ogpNneEZ2U85gBJJSBQmgtE23N3Hxqr31Xn77vebKNd3YiJNJAHhng3NiQvDWVQlEYRaTu691ywae+ThOREZoGkoJYIwnxXAfq9He/271rcV87rQ8/1z/S18unv88TpycoLRGRTlGsdBGuCxCA+Au7R2JDj2in8kaacyzU0fAUCBnGEBs4Ikn18kA895BCpR1XHAOHOHdqsLKGt7/XnVjtXr/ml/+qLe63t07kMkY9cRS5cwORHef+cRMRqkhgnsbzVQ3gtaxIRmjQ+QE3dr1W9fwTn/8yqIeP2ZPnotf+Fz3heeKp8/jyBGloiJJoAh0HWwAwTgnWLRwOBU/42z8pBzi82OMoM9m3zwEdHKbUO4j9lxgMHYnd6ts3NjGVvPdP6/XNuTytXjxavjoVrm9U9SVkakIW0NwtP4HCH8954wO//6xLIEDyk1V1I0cmG2YX+d0aa6+eMUuXu09+175xFPF51+Q40fzoDcm5EyRuMMsTprTQ1/4xLNguRrYiGAgZ0FBUY1yY6QWURcEeBzv8Y3VdPF6fv9K8+o/z1t7WN+OO/tFVYtl8zTWyVjrJe7LnRjlNPg4DVXQYVTC2yiF+DT06M2ej/aMRFdLu9bPVy7nS5f03XfLJ870nn5Gnn+xc2Kx6g4SmAy9BBAoIrOHqZ6imcL6NDyNz9gEdCKHBBckAQlLynmoa2v5gyv+9sX4z/8Cu3u8tSU7u8VkzJoBg7uaE4eHGx8j16AJ5kLWb7KMxml3jJVte/tqfuxs/LWb+NLn9PNP2PKySK9jnWAEUOKimKbUH95I2hiuA9khLIENomCPEJGQrCqoJndMivUtfveKv/Z2/cZ7dvV6vPJekTWoCowZYE+ExKwSXB9kshiZLAOMnDpN1UwO0s6WXf9QF+eqJ5/q/PoGXniy/MITeWHJuYREgEgl6JQ77D7VNIcXj1Q+YygLqI84TUmZVePd8a0r9sbr4S9fLS68V1z+CDlTblgbcgV7G/5nIteHPBIlz+KdlrSg3Km1s7evo8Y2dujGim+u71/9UbPx5fIrX5o7/SSVAR4zow6IRvelfPws4g5nOMHZiFKb6CBQICaU43279qFdeFtffQNvvosPr/POdq9uMOVdOByuLmQDkgFHMX+AMWZ2Z40gcifLZcrl7iQfbOdbXK2s7Kxv9T54qnvzS+UXn/fzZ+v+kqAjSmUTcsyfjia+Wz5jKLM7mwIM17y9sX/5R8PXXo4vf2/pzR/1b93OGRQCAmWhbKRmIAQJMQSqnO6TB3kwSURDFhPpMYCAInkys2yTIeU6vLOfVy9PVj/iG7fp67+Gp7+AIycmMQ6BPoEeNpKnKGABCAZjZDicMrtKmt/aL978oP7299Orr/nVi2FnPUz2ualQdBEYzKaWU/ZGCyfiiCKC1H56LDfMjcQCXIKDAQZXc0uo1TbrZjKJV66U712Of+OX9V/9lfoLz/rgeMndwnGoif0uS+NRg/szhrKZNjrpUMDmVvPaG/kvXgqvfL9/7WJ/tAVx9WjsBs5ghQCIoOASLBoqPFRdKAgFIsDZncmMRUWVXAniuaj2l9cm5e5odG1j+8rthd85kF/7Op08oQD8IbvzBOdDNgSg5u4WySMR5Wayu2Yvv9v8k+/oy6/yyjXS/Sh1IYnEx3ksEoQLYzIH1C27wKaJzZ9eIpVEDPfkngnE5kRmMEOXeLFJdmulWVsbbt32/U0eDuWLX6qXTlaxGIB+0sB41Gj+rMOl4owaayv47hv4f/5s8Ts/KFdvCcYoqQre6S1ak5tGSdFBKDgQgNpgSsHvE3B7QCmMCg0teQFkDAnBHe5E5qme7JZlf7A/Kfeu7R1UW03Vs0nv13+5f+qUIzxcCigD3iaLGWbWIAehouWI3F7jl/9y/Oc/0L/4Qbm2VkilpRqMlMCx17JFKIApF5yZkgEkIuSJ7pfM/8Q5iYUVsGyWlEAxiLSBIkdS1A33isBp9+pFGw3L9WH87Un1a1+bnD3t2v2Yt/cpoPmztpVHVbh6pfrBhfT/vhRfe6OztYGQIGECjBrrxESmkl2UghtxAhTaqDUk5UPOKFtGcwCCE7swCYOICOQOTQcKqpuiCDHGozt729977eBgnzfXe3/jV/H0L7k8VMVsTm6QoIIJGRglMvb2cXOl+uEF+6N/oldvhuHtstMwe6WWGkseYuyAMgyoDWpuajBlyhEk3snyIHpZMzS7ptqzCQeOQgHOMKDJ1lTcIwzC4qTB6pp+51WtIFXq/+pX8dTz7Q0OQ1X/8rt9vrmb//T7O3/2Er366rH6AH1ypnFlnDpHpbM3uV1QUZSleIABnpWyikNY0sO2UKOjMAVZS70jI3MyRVZnmj9yfL8e1pzmRNDo3I1VG472m7ENd7v/4YvUe5hQNjNXE0EGMkNAQM7b65vvvL3/ve8tXXg9qMaQ2DOqplMnMm6KouaguQ5KhXt0REhkATOI7IE3jZIQyDOpIpMjGJEGVTazUprB3Kja6yTtlz0waOP25PU3meIAnfzU8z8ZuPiXwsAwAGi4YeSQoVYiiEwmuP6h/vmf6x/+YXdlRapdEoUxFKWROGDa50I8UMtLNIDIWVTIQpAmOQAJBCFveYmHNN0IMJjAMKJpWbkRAOQGll3YYtAgxCROrARzwIxctGWKmTIpO8gouIDYtMviMLPMRELeH+7mt96RzQ059bz+2pcPTp2KnbkS5Ghcc8GDCaigvxY31H9862fL7jlDDNIx7yD56s3mlVe6f/JS75U3ZHtHhITg6qTuxCIEmOemw6Rmau6gIMIiIEI2biwFEEMMpHeFMgggUnZ3SMtmbg0bAhhGMEtIyHCmGIgZIiBmQgEGAtBFR8yQAsCOXGyt0Wvf871N9Hv4+ufG5084ip7FwgtjZIAA+XHD8CGC+9OAshrUQWwBGQjGYtn81gpe+YG+9G3+4P0eKRdwh2cl42AMGCwFiWi53pbb+ihzh5FnFziIFG6AOMEZTMZUi2siM6h7IjIGgOhUEAWDszg7MzMxObMR+x3+bSYU7tA2aUJOTkQCZoeluiQCsbsrAREFNO7t0WiMP/7jKh/Yb33DzvYUFHLTUoPtp3xJd/ZiJjCZ50AcAGzvjN96t3n51fL1t3o3VxQKxUw/AMIEBBjMmBzkWeBEJszEcEd2qPKsjAzEzjAiJSjBiBROQARFYpnmSSy7qhmyMRFLKCU6MTmxzYp73INakNIAsylXP2qFzRWtR/mPj1sx0qWvYf4EcYkMVpCghnVnC+mhh5w/DShXyMl1UQVaQKILmrXN5q03+fvfLy9fKadIaqni1F6C4e7JHHBvi3ownWZRErVWozhxDVYWBTWQMctI/KBJtWoGspI5AIpO0RCdCuGOdLpGcxkDo2AGMsBBlqIncQCR4YCyO8AONoKBZIrvaYXW9AKuWr/1RgMKi8e9v2iDeUmCIip5fFBnUEMwA1U5dsWt3rt2Zfz9C+HNi3Fru0G6n5p3x8SUmFhESEKLYzfAnCA5GFPNPAkYs48JFZDgCgSlAArChXBBiO5RuY0Zle5BiEggAjBUXdV8prrv93iTib/xRnOskONL8cUF7s4hA45YYEhNB/H+3/yZ5NOAcmZTGLRAFmVqqqq+dKl5+fvFK6/yjQ/FDOTucLDPKhwcDnJ1OLmzo00VOMRcDGSOACMMmfaIh8b7ht2cN1PapXSgaNqtADAnIgqO4BQMHZaB0WL2YxknFEuwLnkUI3FrVQ21yXNyJncgU8subasI3f1wS3QHEdwsrNzojTFZPtUM5uXFF9FdgLJHkgeFcnYkpa4CTZM2VnZfe41fuTC4fKM4GCmy3L+0zpkZzE7cVhYAcDciJTIuxkw7ZOukG9Ad06F5Mqh5N1MEUUAQdALPES1BFln6McznFF1lSsk35GwpG5hE+P4lftTUxdUP9DsUTp6SuZPpXB/SFxAMIo+whOHTgHLBHBloCEJ1aibXruCV1/oX3ipvXC9Heyg6bRTVZ0V6DjdScgRjEBlbW7HDBnFiBQzD4Lvk665rjo2ct5KvZ12nvEuKbg8hGsGEnAmAOEUnAqJ6qdbnvIh8lPQk/LjwcpBBlAH5oNEACAjccpRmdW5teXa7E3pLv5mWXTCB0cjOTv2tl/PCoi4f8+cX1V0A9wR6kDid1qpqoRNxsLn7/Vea77xy5Mr1udEY7ur3vR8RdbhAVjJjOJghIRFX8AlwC7YNbCCvQm/DduEVwUAEKYThli2Z5SLbEvEpjo9xsUzxJOiYo6vWIxUzS8nNiZlbsrLdO+NKMLHh3JVr9tLro6WTVdGL5x5fKApy9DiQ/YscjOu2TgTBA2xnzy+80f/+a/1rH6GpEaawaA3FKZqpVcMULUAM3paRuQIJUJA6PuC8Bruh6aY260r7VEwG3Um/U/eKTn8uhOhEYHICEZlDiciRk06aZiONtRrGenQkN2cN50EnWR7LOFdD3IQckSKICAYkBoPkzhinZDI6rAVnR8jzN2/S91+fPPfE6IljxdyRZRPnmQ3+U0p0Dg61prn54fhb35178/35vR1QBpFYULo35YMcnBkpQxXCCCGHYg+0rs12oy/R3nYh424x7ncmnUJDCSpClmA0YaqR61zVzdibca9pVpJ9lJpFy+dVz8OW4McIi8ydKGwzhsj9wyIUCMslhjW/8X46eqw+f1zPLTMvD+DBppPyKOTTiWAQDA0paQ43PuxceL138V0cbCNwokJUAXaXWTlqG7c0uIGnOVAoQFQ57RLtC01A36sna4G2YtztlJOyh86A5+Z68/1uvxSKhBm3kIhmNgERRQOZTVBXVlVptDkapYPJ7n59fZzOqyUOR9SPmw2SESBCBmQGt7Z6S20gh7doRgvoxqTwCmbl5fcOvvtdfeH80ld+BU1OhUZ6kOKTIgawpe3V/ddeL3/03vLWVqzHaipGQACae3/NHXUNGIKgCFUZN0O4YX4ty5rIm4MwGfSKhbm4uFAM5iR22ILXimyJDFCxVOTG6olOxnujajKuV+u8VdXraifczsMeFz4ei64B2XPOAGK4t4nhxOh2MAG21sP773beeyI89xjOlhON/SZ68ah6inwqUCZyITPF7XX/4YXwozdt/UOpJzl0MnWch4CRCZzYwVP1ZwASawTa3iMVaJtwi3hFeDvQe97b7cRqMNC5Oe7PlZ1+0el4GTSyZXP3aV8BomkNMgGECAksMfR7wdWzTybYH+11R6ODyWg0mlSjxxr/XMpnDPPWqnVYW6c907DkmAaTHEQOJ0WvyZMCQ9mpu29c4O883zn1tC0vN2pB/AFemwnywd7+6283L78xv3Y7pjG0MbOMIn5CDVKrLmNAlGGgNcpXVC+RXOsXW4Nuc/JI7PfKXr/s9WPZAbFlr7lpUq4tZWdG6ISSYtfjwIqq6lbjJtWTycFkvJVTZZmSSiiOkURq+5LcV7e6E2oBFBjH1Y/C6xfk/Al0+n7kbGZmPCq9/KkE4wgZMFW/tZp++Ea4+kE13DYDvBtQKBtcmJymHp+1lqqTj8VK98LN3MegHcgttivCq0zDwYnc7/mgS4N+KHuFxEgwVVgid2/rTFsaPk2h7ARmYrBkKpWBAlz43Jx31Y/b1t769sqVvcq6Ex801nGUBiGy1jw+rEmeRTBolgkm6wYkUCVIC7dupT9/rTrzjPztf00oPlij1Mqb3e31yRvvFD+6VI6GQAPkSHEiccTUuw8l0Im8I1SGFGhHm2tN9Y7aB2V3daE/Wjxy8uSZMpaBmMHeeDatTSeqDVnO2nKN2MBGZkGlk7ohl9p0u/WkbPZ3+WC/m9Mg5l4sFygE4U+AMhkw4sobxCT7m/Sj9/jMaTnzJI48XhWID7K6/1rykKHsM6GZTP/fkHc2qg/eLC9+UGwdWILF0kCaUtEGehzc+iFoI43iZBayNUpUqIRNs4ua3mFZ7fTG/TmcOC1F4UEQYwjB3OuczbKTcwhoa+gdTByCsLAD7qamRAgIQgyHukFEOqUUhQ9kn0Y3d4ZhfTc3lCmcIuq6Fp6d3O/q+XB3iN/h5om5NNTmGvYP5N0fbX3vpYXfegFLJwCoajsbItL+EwAzO8zcAGIOU9qQuqkyo97bGr37tr711tLKrVCPak2RmV2iq+cpo9RpOgxytFXiANKAo4eDjMsqP6RwqRsOFo50TpyMy4v93kDAyGaqKeekudGs3vI3MmWDufqUuqSAMxMTlwFdGYrfMLXdfasaMzpfYIEpOpEzAG5bbswWvFlrhIUYQt3tkFvYWOe33sfzl/yZF2x+frbHTeXnN0Xi7mZmZu3LawfKBhoh3fpo9MGFwcZq0TAwz6Go3bQZSzEtWWi9Pp+GMsSJC27EnTiMpbjl6QNKl6NU8/Pl0nFaXmQgmLWs+WymbsQUQnSGexvhA5i0bTQEuJPCweBIFtjdUzI3FRg7uoNePP9U6q5fqS3rAWUm4JR6151gSh+L597JmRnGQM+sn9CwZd5b8w/eTJffx1eWXIKbqWrr9LdJ6RmUVV1x6Pa2iQbzuqnH16/XF14vrl3uD/dEq4kbpCiVQtOIZ4pRCU7T9GXbkqW9RcWWhnk1yftF8cH83O7y0vKxE4uLC1XpddUkbxtoWWbNls2T50ymrG2iwg3eTp27tz3jopCUhfHiLrjOsP1RSBY4UcELRIWFKX2PiKa9M4yyGWAhFF5IiBaUUoObt6qLl21rnefnp0Vrj6BQ6pEYGIcDbRWSGdJot1lZxc113z+ANU2gDGXNwex+uzCBSi880I75h1V1g/yg1+OlxWJpibsdBzETEdlMmKkoiqIoqmoCRxkLZnZHzjmlpg0giTADmrKrMXNgISEAmjNLMTd/NFHMJsO4emP3oFelCJyChE807YK5eQIjhEhwy7m4vdtcuFh84UvU67LI4U51CGgARByEZv4kVMGgWMTbm7dXL1+tr99aHo45K8yFJbC0ISCjO0uKfNZTb0Zw1hrrdf2hFNvz88WJYydOnDy6dNQDtqrdps4EEmYAqpazppRyzmomYJ4WD1Br/RORk7u3LbhAEnkw8CaNVDcm1UbWReG+SDFN+01/e2vOOdOUG5MVydwtN2qjUb25RRub3ceePqwfe+iUjIcP5Z8cn+Umba/lS1f40nXe2TXkJrIxSs3B9H5jIJBobFhWU/VeU1/pl3tHluTkSRoskMREYOYWyimlFispJTOzbEREzgwxNxgsu3kmNsRIQk5wUgiFIIFFQmAmlkgoQ/+InZZ96FVPZE2vwSLCXG6bF91bCnCtKYRCghgUOc+vbK9/63X6vd/yzoJwycyqambtYjp8hQTKZilrWcTcNN0Qobq1snLznXe7V66fGE4kq5mGIgoJyF2mmOW7Eo6HcAJxv1y6bOPVxf747Oni+IlQzrlLldLIvdfpkMHMmqap6rqp63avCBLJHHejigkAuTvBNatBOpHnOx54X/OK5qU6H0k0RxxJCRZ+ogvdtGuIKSUjV0252d+f3FwpPvxInn4B893DDl0PF80PGcqHYa+7jWatR7p+yy9dKT9ciaOJ9iSXJOpCJkL3wwg5kOVA+CP1q0HWFhaaEyf42HGKkSFcNy2UDy3R9jql1Ot0mSml3DR1znqnxlu1aRpmCiGKCFGCe4ix0+l0ux0xpoq47IalIrPvWVrJ6eT28HzGnAaE+6UDwNNAOMwtQSMo7E/wg3dHly71lx4L/bLdo+52IdrcJqhNLTuAGITI9tZWV65e3b16vbe60c/G7ilnCsW0M2GbYcuzyZmJA23l3ijFD0GXBnH76JwP+jyy4f7uJORRJ2uTrcmaM4GCyGAwMLOqqqqqitzuVZi9usMng7m4wyl6p8hlHOW02dRrO8Oj2RfJutEERNYq+1m4yJ3aHl6woE4MhetkbCtruHaD93d0UIDkUdA+HwmUW2ntQjOz4YGv3qLrt7pb++KWJLbaKYjg/jWeDiKnjZRuEW0uzNcnTtKx49brmZmAirIwtdapCiG0EDGznPOkrh0kwrHTm+uUvV6vPxj0e72yLIm43ZBVtaqqg4PheDxqmnQwnnTZF8vCDRL7fPRknepqON7cq7ZyOu6fGIhgiBOZa6PKqeQA5Liyuv/q6/rc19Bf+Ji5NX06dwKYpj1+YpC8v3/tvXdXrlzxnZ25uplnBpN5y2UzwBEIwshODpm1NfSZF5jcr+4ebJ7up/Ony8fPzc2fWkhlTDqWZoeqZvvgYGdvd2dnNBrBvIxFEWOUSCW5KdwJd8Xi22vASMxhxE7incKXFuuq2ku+uddsJz0azcECF3PMCt9BNO2BLcTWIpo5a9jaoY9uYm8LJ4+1HX4fOhn/0RoYrRWb9/b05i2+vdmtMxUCZnYSA4g/oe+Ywcek65q2OqFZXg7HT9BgUQHXCQUyR7tri4iImFld1yklABTi/PzCiZMnT586dfTo0bm5uX6/Pzc31+v1YozmnlOqm6au6+FwuLO9vbm5ub1maNJKAAAgAElEQVS9Xe0PMU5mOY8r77AMFvL84m5nd33kjyHMobrnIB1wtuiBzLMrizIxqBHN6ZU3mt/bKY+fau2KdmHfmSUHTXPAbRtD21xdvfb+B7srK0cm1cC0bKnG3HbMVWJCRFvP2E4Z+6znNMEINWEl4MQvfXnht38V554YhMVl7s91uk1M25PdZr8+2NtfW1376MPrN65f31rfONg76Pd6c/1BSpXmPAtaEhFPHTkQxKltLefkHDDo+9JCPU47473dpkpwAql7vPMOiab+qLVmEJEjcDCl4dhX1/LObdgzhHg3jh8Wmh8alO/Z8cDMVDXvHeitdd49KIhRFObEjXNqk9P3jZcbYY/ztudxv09LS3Gw5NzxpgpqzK7GZtb6UiLSwrrT6czPz588f/6xs+fOnj372JkziwsLRVEwc1GWRYzEZGp52kibUkpVVe3s7u5sb6+u3Lx1/Woapq2tg3qSIKUN5vcGvdVxesxl7t6NuwCgIu0iwCGO0HYXtQkN5uTNS5Pbm/GJqtPpyEwPHdoYh51zW07S+ODg2uVL6zdv1vv7IaWo2Qju2UMgkJsTADd1FTrs2g+apWyMoELjhflnfvVr89/4hhx9LDaxR2V30MmStB6lLKlJo+Fo9eat99555923f/TRtQ+rSVVNKpBhFocgmjrT0wIaNgAlRChk5xwL7g90MJl0JiOtExm7FTMjqw3et3zBWhtBCA51swAxDnXdbGxW27dLMzwaDv6jTZG0L0+HI93Y5lGFEBBJNVFyUpi4R4LeG8sGH4qPCNrvhrk5jR3LFJJN26KFfs7aav3WzOh0uufOnX3uueeeeuGFY6dPLSwsDAZzImzmgIsEbhWAG3uclrwBAJZPHK/q6uSTp44+eWR0a/eDC5dubW9boDzoHwy6q/vD1Yyn7gNlb6HsgCOygAFrdqz2hSPl9bVqe6es66IoWlO+XXuzXZwPpwjkOzvb165cHu/vU8pIyVPTwEyTF8IW0Hgb5lTKOGTzz5I201B3kOL8qSNPP37s9GPF4BhXQhDtEgGDYt6l4yB2nDn92LmzZ59+8qm3Lrzxzltv37xxg8klMGbpJAIRMTMB5GQgdDiUEiqnCixlRLfMnaKpRZENfoecMmvY7PA615EoGKmqkRQCybnZ25/s7xQ25RP9/BoY7lODiwE4MqwRgxnGY2xu8tZG8AbS2nXm5AoCmCAmszCt3+GfOzwBFXy/W+SlRenPmQR3YwEbJyICFbFQ1qQ55TyYm3viiSe++KUXX/zii8fPnY2dbnuTnHMbOpi5+cQks57Z0706xDiIMQ6K+RPz9em9Inbp3Uu7e3v741EzGOwUO9tNXQuLubSEU/I2+N32w5eW3k8OJpDAKQMFe8wH9cpqmgxtYa61Z80t+LQElYimFjBgTVq5cu327bXaUlSlqkE2hzLBCSQgIbi7tqEFojb7OO0xRE7sQHYenD0bjhxl6YYcAEGAQZHbxBPajajT751/4vGjR4+eOnVqbmH+2996aeP2mgGRhQjCEoIAIGF3J2obdhILIpyUSArtdXOvzCOu3acHtbRZD2rrFcAgcze3BHIHmTkRhDCp8tZ2nkzKTpeEpw9Ah92bf1ZuxkODslpWgSAyCOaVN+PgvUKxvSFXL/U2b3UkwxPqHDoYB7IU5nKAFk3pcLC1uSYzd4UroXGkzBvH5yYnT/HcEZOQpCk6QmPJ0tWDutvpdTrdg9HI4U88/cxv/63fOff44/Pz80VRzuaEJNyv6u7j0xYsDmjp6KmFuRNHyyOL115998NhvT44ksrttJN2Y+wm7ScNrs6u1BI8SVTmrfCAJhoTBSNC51jo6X61V2a7+J6N/xWTM+3BE+oKzCI25OzTiGK1P7zyyhuTuqoi9Sc1D5NY6DFLKBqdmDDFAslhHDi6EdjVsjAroGCwwKmaWO/ISSweN1n0LAR4QAEHlw1LBFyTMQtDCaHXefbLX+weWZiQffv/+7Px3p7EyGZFCN1umVQhlCyXoSccNFeTUBWIC1Woy14zn6vBXrPNo+QlKLgADPIMcwJDAnEZItU+idIHc5VTdO0KN4lvbU62t7vzCzTl2BEd4tjubqz/IPLQoMwsRndUXSFBYZSravcg7wyLYcbEUaM9dcipLX4kIe+6Tk8MMEcLZXIFnL0pg4XQnjrS0tOEpudidOfmyKlJaTAYPPXM07/5N7/x1NNPLx5ZurPKf0oRZmbyVHdi75nnn+01ocrNzsZH6BRx0MXkQc7enIzH/SbR3WbATKapCGJTnYzHw+FwGv+Cz/4c1jAdfgV+uBfTzM04/DFR0Sk4BhNkg0xPWcHMhrkTOWlNsrIsz58//7u/+7to0qsvv7y/vRNCEGl74DsBIiIsbRd1YxKwCIu0ZSrCzNyez0WzmMddXk/bhFyIpsUU6oB5Wxj3yOQhQpm5fQeq7BKICzhXqrvDvD8usjuxxYKYld2YQEFZxBmkUwbaNKXvDm9psSMiLUsvQpsOCaBoFCk25IFDk1KT06kzj/3yr3z9y1/+ctHt/CztBKY0ITNAjiwt9z5f7Nfj7a2bo7WVZnv/we453N1fmFR89+45OwfE3M2dzSbj8ebm5v7unnfdGTrta2oKRLhPVzhmOdTWjJnFflvT1olBQtTpd0IZXGD5zq5PBndFkNZeJ6IWsu3XH3/88V//jV/f2dx868Ib7sazDA6BoohIiM7inIUjSVDRQKYchINwIA5OfHhCyZSi6wQqWMBk4Daxw+buBlXow+6Pdpc8TLdvVq3rMCX1IB6yxyrnSeV54qy5AGAmTswkMDFzN8/k02I+A7R9nYwxMCTxbhexYKJ28wmOSCzk5g5gcXHpueeee/bZ54pOCaKmaYi59fAeYPwM0DSxTIPFhSeefWZnZ+XaR9eGF68+2IQMd/fq4dhdW6LEtKbKjSHT823c60m1trJaVZNcijEpUyJPbV2u30W9aYE8C73NAhjTrqRkYFAMJOJEZsQ4pLnOHMS7cubTNE1LO37iqSdfePGLaysr6ysrbQSDwW0evpAYM4iZBUwhBDFhD1IIl8SFk4CnYTuaPY+1/CYGEIgBIwe5u7mreTa/P6XuZ5SHB2V3Ooyzu5kqCdgQssdJFYcHMWuEmmmZvBAXogCHocranttE7XFmBmO4w5jGJNTpUojM3JaTtu0+mcESOchTTz/9+RdeWD52tPXwSXhKUH6Q8bfmmjg0eQpcHD1x/Klnn2neOtt0LqAeP8At69E4Vw1mhZ3TokU3QIio3fVT06zeWnG1nGECZSSyBM9TaDgdRiqYnNoeCph2UWp1h7cHcTpVFVJDpgR2OM3ILTwzQlVVVVvFfDjIuYWFZ59/7sqlS5trawBiCMxsrkGkYAnsgLgYEwVhYwJxSVyCIzgedtCl2XmHUxvzDi0DdyqMgftFXh+GPDQokznYiaRNbJkbgS2lelLl0ViqWliIhU1Y0Z6QA2K4B5vSaqaxTGp9JDJQxcJlN4RCQEzOreIMAiEi7nW6Tz3z9Nnz5yTGlv4iIj/LVNEse9u+kbIsjy4vP/bYYwfLy9jbeYAbepNJ2wAH2vbc0+PG2nJxh7mllLa3tpjZ3I2hTInQtFoZ3irmWQd0gOHcHtYwJf/cOYhMLe3sYDSWnMRDexghAIBF6G7ard1F1iMiJpw5d+6pZ5559623vE4xBBExbzUGMTl4epyUEALAhtJQOhXgSNxW8LYVmd4WPvr0N5t7+z7aKgZiIn6EB6Q9PK1sTpj1mJ62TPBqMtnY2pzs7Y3UOjGKMICQvQMuWJhI4RqcWwIWSEBTd4EpEBojid0gQUB8GH5itiC5bk4tnz5z9szc/JyZkkh7mt+D9F5tZdZunIBAIkRuVoa4NLcQFxYf7JZsCCABt8eTtp7+jEFBIJhqblI1GgsxScuwRmZkmKKlbdylyKYFBOR0x42bnkXmILV6fcv2DkKdQugqUT7kUwo0t9xoPmTITGOUgBMG8/Nnzp45dvz4+o1bQQIzR5Z2Nqf9bdsyYUdwD+YdRTl9tKnhfudkSne4qxk5qSPO8pFggjCmB8s9EnmYBgb7dJchJogo8t54eHNt9db2BnndEZFYkKFUH5CX5MQeyObY2VE4RecwdYoJRCMicw5SCAcx4vZMPYILm/C4mpw5c+bYseMiks2IQSJ6eNDfgz0BgczUs1AgEKmzenSEB220GHm6YqGw2Tq/2/5xd23LmIEQgmlNcGdkuE7J7Ie4p8Ov+o/t3bMIglm1vmV7B9JkCNqCJIO3eSDVtnMLDjlYbSJ92g5BaGFx8fTp0xs3V9rsSAxRTc295YPbXa2eg3mhXijaNl6zURFodpSgWTJjpwyy1rJnIvAUyo9MHmq2r30Qby0BJtAk5a168q43G4WXhbepzDJbn1CSE7wDPaUaiApwBKYNK5gDOJEk6kQKRRuCYm/ztEQkDjc/e+7c0pElCkHgWVWENOcQHrCvprdnT2ZV1hgBgImRNR+Mmv19MZeZ1na0CutOFUdbKeAOgzM5wVVNnazssMRZWs7vhKy8zdgwHDmrw5WcWTzDWFIINaGBJzMGmKf9f4jAjjttkg9PAIcTTOC2vZe3d208kVIhYbrTT7czz1nvpi4eFkYYYKa9bu/okeXW7XNrqR8wN5AJSFzgMCYmK3LqNE2pGqaxQTusRGjPWDby7BZN2Mng2maUiFOM3OlzjPdWzD+zsn5oUM5MAAJYXUeTSb/fj1R2jpzo/MbXc723/vYRmHlWT9nrbClRNnIUk3p+a6/sFKEMcEU9KVNecjrW6fbK3nrsnaup1zR7HZ0EMgg3HCs9OWl6S0cXjiyHTteYFU4s5laE8gFW/cynpuQ4sHS87CAFMFLkPKp85VZv5/bRpuVWkpIAQlNlCSWflM1A+6GRrGkSU4we1PdHtGXy0emTT4QeKkWHRJhaNmZTEyGYgKJZ0irtjYYarKys651Rf3FjMLcY4lHTssqnSkLBw6ZypzkLRe06WxmzEK1BawALpSzf3K5effP2+TODz5e9cCxoSGJjjCPqophr+0DfHUBorxvmwNKL/cXY7bl1S25SrifDkiSwxkgLNt+MsS06WS4Wmv1jN3fObm8cr0fdguCNzvjKxawmOLtVKfebknigsap8gux1IbcXl58++7V4/JTFOGV5+PR4IzxgMuDH5OG5fTMqY7viU0oxxlOnTv3mb/7m00+ev3Ht8pWLly69/8H+9k4ZYj+WZF5Pqno81rpReIOkmrypuaoOqmatycETdXibsuV63HByATEZsrlpfezYuX6v5+7Wtn34mcUJEJSh7VJnDfE4pepg1w+GZf1J0VBmQXbAhSm0NTMZRaeLuu7Nz5XdDkQOHaPDWHBr+LZ7vKlOG3jCWdhjmDCPLSMAICQvKSqjTZnjPtaOEJ0m2b520zc2m5i9w31DUXPBcZwnVHzSidQOhCC9XjfGEAKrSwBJdjYqSFi4KLjnzgeThf2DI8P6WCgWOx3YvYkpwjwXu1CAGiftgM29JpbFQb1QxEfm+D1MA6Mt6WPmsixzziklEVlaWpqfG5w9c/aZZ7/wuWcvX3zvvZsfXj/Y2SOn7vxSeeTobkpEYHEhJ8uSk1SJ6tpSJvNmaYBOZOFOjCRi6h5tYvnoieO9Xq/9pSw8Y3/4lG3300urrHoc0ZhZroswmuyMbq/w7c2FySdBmcCw1uLkQMyqMBTdwahu5peXu3MDBJ4VaPvU9yJGm9h087bxEaCmTi4SvNM5KMvtpmpiATUkikUUhln6BKYCuy9MhnsXr1TvvIuvPueLRyOVYewoim555JOtfTWoZjM1TZ4zci4kCNBBDMSNKsiOFnGhSv2tg6Nb+0s594ug1b2hzKAyRI+5oZrJSueULJUsJ5ebUwv+YDH/v4Y8ZCi3ETFmDiGklOq6BkDM3fnFc4P55aMnzj/x1NVLl69dvnJ7ZfVg/6BpUuBYxCiFuACmpCpdDeYw3Z/sTUphc3aPBAEp0BASrNvtzRj3099+xw59UFsZQIQgGUoGtN67PfnoWnd1fb7+5DOgGCAwA87m7ASSFOLtul46ttyd62PGu3czEm6zMC2CHWDhEEJu6mxODBa2Xm/Y768d7O4GOQkpnYHApo2DmPl+Zz05kIedDR2/dsE/d76YX6Kj53IgaoAet2Uu9/yeugd4bqrxwR67B0LSLMQRHJ0Di5ckjIWcjx8cLGzvL43GXW0+IUJMIBhr8ITcIYJRSjQOBZ89kR9bfHSe38M0MJi5reOQmbRRTLSvSMLC8vLc/OLR4yefeuZzVy9fuXLp8urNm6PtHdZM2TWbmsKUABbhUMQ4byGiblu5OVu2tntm08CnZOVpGcVUG5OZtpTbn/4JbBZVYogEjHztll27Wmxs9vUTD4swcjARu2Z3AwtCsaN2y+3M8aNlvzdNuJnDjKZ0kll8mSkURbff360rwJmYmNHrTRYWNjZv34adJjmWA4zgbuQifN8iQwKidvX/Z+9Nm+y4jizB4+73RsTbckFmYiOxEKRIgvu+iEWqJIrau6VuU1e3VfV8GZsP8y/mn8zYmPXYdE9P1VTXVNeqkqidFCmS4r4BIHYgkfvbIuLe6z4f4mUSovBSKpBaa9xgtASR+fLFfR4evp1zquztE/Lt54v5/e6Jmc3e3KCMc5p1aColR6wrR1yPhoP1tV6ez+Q51XUGZCCn6kSKTu4Q5MIVd+H8/NbWgqpoXabkp72kGSpNXtUlGKOWAfnh7GzvyI20b/73wJV5e2e76cDvjJSatrkSUlIzEycLexcXFhcW9+694fChsx+cPPvOW1WoR1U5LsdlXYVgMcaQokUjn9dVpDKAhMSYoNzAO2PTgSeaCFEblEkISKpCu+ipTn//MCDBPBpFwI11PnEyP/lBe3OLaQrRX2NxgiFIliypiFPnz1fjwZ6Zzr4l125hQstlOyO/CdERiFiKopjfM7+2emXS5YVZ0UpzC5vdzvl+fQAohHqGlHbWHaZdmiGzjHRhbRMvviWzS2W3XT52byrmNO02ZhMzb1r3+8PV9dm86DrPPvPggpxEAMbVmMq+X76Yr1zujesONJqGFD2urZlsCqo1eSNWU4wgG51eeejQ3JHD2ezstFz/49snjCJpsosYY8NdchVYDMKkSVUTiJh4YWlhz+KeY7ccPX/86GAwWF1b3eoPxmVZVuVgOBoMhtW4zJOLdYhF6UBkllIwS8KcedfpdJrN2knLX22HWOT6MgyyRozYm0dKqfzgDL3+Tu/sxW5VQWg64BqUGgC9JVMz9bCScK4adR64vXtgiXO3vRuNDzdvmt0zInHS6rQX9+597913nAgYyZKJx+x8vWf+3Hh9bwo9dhItMxIjSjaNa8GAShM7mTWz85c2nv3hlgTJdOHe+3syh+kcuZ3M03A0XF2rtrbaLK6uZ7xviS/gM9aqv7V14aJsri72B3tj6GoQTSk1edS1D8QASkJgAVRtU9zWvr10x3F/+EjGbVKaflt9LPtE14m2Y2GTaTRVoJkRg5gYYNkBQ06a+925mZvn7lHVuqxMTcQRU0hallVVlm5U90fDjf7GqBxtbq6vr66MB32Oqbs+c/CGg61WGzsvtUOYct3HlBJSBekEh9Fmf+Ot9/T19/Ysb/QIydkurszGpjCoEowsqQ40XY71kU8/0tu3ZERpGzfB26wR2tx5YHbSarcWFxeTKgkbLMZkEO7M8OLilSsfnB6Nlsh1STJhVqQ6sptCFm5QRSYESrHajB9U+FbkMmUrFd93ly3eYFNWt8mwcv7ixdOnOcQOC5V1p93OSWxc6daQLi/7C2fnx4ObMr8EylQRGiLGXaiSGVIIEhmCWt/7+tAN3XvvKg7ekMPT735U3gEVN/CkJjxv/6OaJUsaUyKCE0c8iVCmZJEducxnO0fTYsxIJ7Ug+3CAMLZoQsHquhx6tdm8qIejEFyR55pSIoNI83Kq6XqXiQBVCxEOkdDf3No8eaZ7+mJ3UJJ3gdIusjmMph6Y4ImCplGKfUuP3nt30etFTTB44quGzTAzNWICEWVZNjPTMzNhTpZUVQGXtdzs7GYmy4p1qkrKmB0rxRAhrSnnj5bvQqSqhgOxTlbMXdpY+/PvnHz//Oz/+PWlp7/qZ649frc6nDn1wfnTZzqZn28VoR61vY+Dcv3S8vDk6dba+tEsv709v1AOsTWAKsS5SIgBxbUPhIiRFcIlElKyqnC2d7F97KZsblHCZEfw12GfPHnAzi7sVf+biYgcfDO5vYppgRjOX+V8k6VeoFk8JwAoIAAVVFiRNxChrNfOjIg/bGBMwp5zE6bYadbsJXgEqCI2g8GadGTRkevx3q0wcBLzV59d+sfvdM5etNyUq2JjnKaFNJAEN0JZZ5FY224mUPvE1miw98DMsVuzrPDsmlR6J9dq0jABLCWotfLiyE03zS8trK2sOidQq9JwyGWn1e3c+siGvfvixUuRKyn4AHMGQZdiGa0MFEzYk3hjCWYJyhI5RmaZMWA8Vq7aQvteu2L/y8sn/+kfFx95dOmhh3HzLcPW7BDigA6QRbzz4kvn3307I2u1WntEfMTmy2+Gi5e649GdoTxktZQDP0aVkrGSKVINUuLkqpi8BC+BQARvyKJyFUyVeitUySBbeLc9s3LnXXv+6ImZm4+AY82Wmfu9EXCY4klXr5195Puv+b1X/20HqEC/+CP0ke/c/ZR4m94bcJBm4lAQE9gUySI723jj1f63f9xZXmFLVoXYoIummoG1EEmxYiEVvhLCRdVbHnl06eAR77NrFmpEpCnBwMyWUpbnd9111z/947dAlnlfiJlI4QW93qDTuezcmTos1iKgGZK8rFVTEiNhbeQFzVwCG7QZVDdZlypgQsjKmKrxzD/+KLx2+vw//SQcvYmP3TRz7Oa5/fsQY7W2OvrBD9zJE/PDkR+Pw2BQXbmC1dUDRHtnZvZUyPulNRifpNt87gYgOB77ouWyDhzqgKQN/UXq+JiqrAq8tPjG6uj0/OKBh+49+tjD84uLTCK6C8X4x7Xftprqb9YiN5sx5EBoBmgKEHICEBWl9dfX/v6H/P2fydbAoKgjm0bP02jjDFCumLhnEiMNGJdMl9v5l776tc78UqPwNO0HiQBmmOVFfs+997700kubG+vqRAxa1Zw567b9wX1hPDx76UpWltG3bvLtvXEEJmSi3Kx3J6fqGGwUDWRNK4aatVvZjiB7rlzR/nB0/mL98mvjmVldWtI9c0hhsLneGpeH6sh1zdXYleOirgrvMk1+a11C4DTBqtm2lFbzhcsL6nVDf0TjkIEhDmZQjSLmvRHeHcZ3ukX70/fv+9xjc7cc8d5DFSFSI0jwa7B/Wa6ssAj1tu3HTTE3SenVhqsbr7wUnn1h/+krvVRRSgJyzqsQ4tQMb4RxFzkkdyYbERcL52859qknn6RWzwhkU/QWJutpiYXzorjhxhvvvOuuF55/blyWOZhCrC2Hc/7AvqC6Wqd4aSUmcOG7EGEWZjKzFBGTNcLuIhxxNXyZJ5u3xASg9CF1+5XbWA/nz8n7WdEqCEnK4UwxI1lLYBQqinVBBiGU47C1acScFdheqN9GiJMRnBHXVAbVFOEdGJZSVGNy5opzPn9uuGJPf/roN766eP892ipSSmKTla1fk/3LcmXACAkRSB5CkRAFzGADRlujE29v/PW32m+eWIrRhZjMyDs455NqQ9X2iy8Hq5C6ApCLlF0K4XK3c8sXn/aHbqgIu1CATlqWqhmzeNfutB986MHTZz448f77omiTK+tQKrJW4Q4eSMNqpdLUrySlHqNLMqfcicoBlBRi6sCeOGwjOGgChOVJbEYFtRQkWldZIOwYVoFii+u4ueG4hPfQaNUoxtoJwZSTgcFJd8Af1DAfkJER1xFVv0BSb0HqxGROFGKgragv5Nng9jvu+/o3jj72eDG3oAFmFjlpzm73yenHsH9ZriwwqHIwwMFj7JsiEFaNxmdPrX//e/57LyyubjgEaBAiJapU82mzYoBAzhOcg9Jl0FnP9aGDd3/pi9G7EJvFkmv/YAOfNiCm6Jy4zB+96aY77rzjypXl0fIaew+1uk4l0PNFfvCGOmD1/OU3+ps+VvvIjiI/mKSnGRGDUxAEtnwiTWTbe3tGBjECkCdP1mADlcjAJagqKY5TlVeezdgHwGJIdUy1kM+ctLqkijTpJOqH9fX2raIBGigFGHGnVbeLTZLlcXUu1aeO3fBHf/Ynd3zhC9xb4AoFOyIbaACyBgr267B/Wa5MMI5KiZFJkiZPtiyN9Py5wY+fH/zDdw+dW56L1Uj7bRgk0xBGMXnXmi5Sh16rNyjTMJM3qvLynrkbHn903223QgTxl8SfhqC2qivnWsTiMn/vffctLy+/sv78Rr/vet3cZ2VQJeS92ewGbBmWz5Y/WV07yBiIq1hu4HyGPEtSRE1qloxJd4Q8GxiIGQyJvHOOmJEMoU6DsfYt81JkBfIcipBqhUnuOjMdiGiKZV2LRq+KHS7wZqmtAbNkHhkPrwwkoNVp19w6X+tbHM/2snTkyK3/7t899md/ila7HFWOhJnLVJvI9PH5J2D/slw5qSW1jAky6WO0rJQTp/vffa7678/OvXZiLgqsNgpV5vIQeRwzUJVTNiWQEMDmN0N9PovvSOLbb77/S89wuwDgWXn6Hq7u0AgQ7ezQH73ppscff3y80X/nZ28ayJvk7DnCkFQIM616YfZSORoY+sAyxSNkNxItGfUCZdoIcZlO5JCNJ6g6EEDdotKkoWKoFzhkooYQra6oY8id94hRq3o4GvdJxLvMO0fEaokmehE0ebcEENVqZWXRdTqtrOx23x2Pn6uG5w7snX/qj+762lce+/LXkLetjEXRgqdh0tq0A5dVqu7XJUP5L8uVFab8YddOw1hXr1Svv7P2rR/qj189NIjwilR35jt9l6qVYce4aM8MM5dV4ZovaAbrjzXPTg031+fnbptT7VoAACAASURBVL/rtoO3fkpcVtWVd9kumw+mmswAZFlmQF1XWeZF+NbbbotV8OzffevdjbWN2U4v864ux8Ph5qAcRC/FvoODavR+2V8O5WXFpvJtSfKaOolSDmu8eXtNkMiaBEPWNkWIco+Wi4xhSqFKpCRwkkauNOecgAtWIxJhWAyjUpt2YQN1IhBIaTsXT+xSrt6ft+r0xvqpwo/uuOOWpz5721e+duyRh33L9dc3O1JAUkkuOvauyEpDJHb6a8qW/xBduTQwIUMFJJgD3PZSpVf46CI7GEYG71TefGvlv/yf9PwP9uhQCVCCgMbqycC5FkQcszqmGDJyEBfJBhpqpFykB+GE1VZ+ztE7MfUeuu/2Zz7vl/YaecSahcAT2Owv9tqNGTABOTXU6hMzORgXrd6tt96apeS9/PTl1/p1Tc5R4VwlOZHkLhWsG2P069QfpYRaUObFoJ174VZJBMi2OskOzoWAkBMITEqRQOTNOWYmZuLAGikpMYHgmUCp6eGLIGFnJ7DB7vE2eNJSqGK66MIbMjp7oNd+5IE7v/S1o4/98eyNn8rb7Qi023vYEigJagIrOGTk6wByVykqfpL2h+jKTOBtwKxpI6CkDd2IEjkfhfpWdxT03Cun//Nf5Cfe3VOPsnKUqJh0AKI2HIBwMCgntRRVmDRFKJll4jxLTBrq6mzW/dn6Gt985JZPP77v1ltrFt+khNuUQtd8jwTibTZPM2NqQJ8Ecb25+VtuP2554efm3z9xor+yMlzfLFdXrL/Jobaqmktpj8v292ZvNDtItIfIwRLSzuLcRzjxjeCMG6GG7QZk813JoAJp1BIndR1N2AoYrNuE/tj+Z9oekajj2JIW8yF2s635np89zK29LM5ZDYwB7yGRAOKkIormPHMBfeI+PLE/QFe2bJKJOjPRhlmD2NQli+I04wjTMIivvlv+r/9X+sFPuNrIo+TJxymLOg21cckBSGLcI8cmKaFvuubo1dH4lOHORx67/bFPdxaXIswT2DHYdtk1nUzoTZMqmIQZwgooID5rzy8da3WzhcWlG/a//8rLJ1cvjddWaW1tJqY9db3Y7hzqdG/I8kWzXlVnVSlVJSnuEN3+ormGjWMbU5VI0yRft8y8w846LrbvQZuwHEy5AmUgoyVzN1rLtrL05hXgBdsMuH/FHz1ULe2NkpFkbB4JRcIEOpP9mobW+MN05YCkSM7gTNAQdAkm2FISBWCj4tTJ5f/tP7W+9ezh8Wjc3zBLlBWwayfETesjskIoN2I4JEFKG14u9FqvrJXdex+49fNf2H/nXdKdadSMnRdYgsk0byZMVOFgJuKMOTWEAYAaEUve6x5uH52fbc2lMZ96ryC4pIfFHy/8XN5adNmMUR4SV8Gq2kIgM0xR6gUAJw0hl8KULCEl0snQwxgmTcTWbbXNpplMNrXjIKpFWXcSOzWMRtg6N1rdKC9dtNOnWvceLx56INt3QGeWkrBEyERsAoGiw/WIJf8q9gfoyo2wgWzTWCpbJG7aFz5pMayGp98r/+tfpT//6wXWvBzmQZPL6un9TgJIJG/nNaBjEzOQq9hfkPoNDqsHDz71J//h2JNP8fxCDcobZQWyoNERT4tCEw41GIsQc4IFS42gsQWiyC4Dp2rGdC/siPBcpzO/yLdlxS3jMatyWaGuta41hqbJQLuiM4ZsNmGca/oQ/KGkOGlEbPR9bEdDlGBmAuIpO5mZWksVIQIJEhGhV7ao2uDVy3TqtFzZlAcfkDtcNb8UBbKd81Spcm7q5vTHtD9AV56QpSqBzNg2KAY0iOMgwzG9d2L8F//v5v/+n463ZTC4UlZVkfc4K0qEbEppTcwuy1F0YjUuQ+Uso1a27PnNOH5hPD72lWce/Ndfnz1y09ASYmQnpNoQGcr0xykTsXdNbaawqEljbOhcnTGpVisbV869t/LW6+W7b+/b2Lyp3V20bG8dfDlEHVDWmhITsbCyi7Bo6qePHiabtyABfMMqZG4y7KC6nmhzAk0CgklD2sgZXdtDiAzQKJbY4MmIWS0bbdHJfrh4MZy64s5e4TLIXfeE+b2lsACAEv//feV/jkmTdTYkD5RK1BmKNjQbV4M3f7b2n/8f9xffud24Lte7ImVGW1qhIm9TD4OIIXkaRwvqWp0Rt8+G6idboze6zt1+95f+9M/mDx0CSUaEGFBXznuF0XTgxtVmsJiimbV8PgEqjkZb5y9eeO+t0y8/H0+d2Dsa7t3sdwZjt7KRxiMN4xSixsjELvMkDELSGDT5j0q+fmg9yDbZREM71zD183b9F5ggE8jVNuEQEaD1FHBraXFIlROfkfPaUPbFqKHSiHIwuxr6w34abLU2NloPPoCDN2heRILDtZetPxH7A3RlAzQJJ4UnghWQDmK+1teX3l3/b/8tPvudhWrdrMra3rZKzlsxGg8CG007DDVAKVUqJtrOlwWv1uPXc+K77/zMn3zzjvvvYxGD5gAZJCaQqINOL8ImgBcCsRhMUypcxkaoU9jYPPv225feeC1dWW6dOd9bWV/Y3GpfWXWrG0VZ58yRnAkTHBr+DFNjEMjt+lGaQIEERFgwC9AaFE0VNGJOcA7kiTNwDmlYOgXgVEGvLY1FzE6cM8ko8+YARAOxsWcG0bjkc6fTD5KGCuMhHnmIjx7holv/8z7Jf579AbpyAkyRGwHEIG8pG47TS2+d/vNv+e89v+fKxYGPpqnX59KsMu1wnmeCFAOmzUGsqlM7a6U6XNwanZB0tuXp6JFbPvPUI1/8SqvbgSMCKCY2AwliZO91l/ofoG2sOIG4IV9TVCtrp95+7+wbr9bnT82OxsXqupy94PuD2Sr4BERNGirvPXvniFVNI5ICaIbSIU4tW1etqqAlaAhsGbZAA2AE1IAZGOTBhXEBaRFaQA548H5gacoL5sYt9SGaIkXxRqTGYlKQwGGNh10U3cuX65+8NNQopD5z6chNtRTFrylT/j12ZQXIwoSZr+HKNDUoE1R8s6ffbCaO++effy79+d/777w4f+G8p0BOWWFRicUpBAoBWB1goKgJYHHOVGOIMHVOPNcx2abP3gP/1NPlo4du/PzTDzzzlRsP3MQNsKkRSRAH1zAYcrZLbwwAiA1EFlCVWfCmdHbl8mtvnD/x9sal8+31zc7GYO/l9Xx94Mt+QhIyFhOjolnsYYqspjA00hZGZuDMCZMCISAZmGvPG6RrWp0k2QBtwjYZG076IiPI2BDNOj5zRKZJDN4oi1aE2IV0mG9y+TG4btTZlNoWCUnJGv0NJhHK4oRzNDhmIZhRjGoJPu/UKYZ6K10Y6/OlJRPKKWunGw/VMDJyyoJGmCWCLFGm4Otk+9u2319XNpWJcgdtu/KE5TklMEMYGu3Klf5Pn7vyl3/Z/sFzB1ZWCkRTdGpqsFGiEMDQRDNFUjAnawSNeAIjNwMhCTZSfD+k1xwt33hg4Ykn7v3il2+/54HcOSWdEGKyNLKrzQxgFzjgpHebQJQgyRCHm8ONt96+8OYbw80LNNyQja388sbcyma7rOsUSqojqO0ckzgkIEUgkalrykaDmUVLmYgwGaCsaiXJKvh9jie1Wls4NPT5FtkG2yZhzKKci8u9uDGlkKo6BrCJkY7GMig7ibrsV1I8W+sB1UNq+0Ftx07AMFYYuCIPNrZEFhhMLArUwZJa13e3rK8cXUru0iW8/HroLfD+fcXSrOUdhVgyMmNJ4AhTJRfBH7O18fvqypEUNKFkdg37GqHRcalZazGzEa9cjj96ofo//mL2hZ/2qn7KpIb5KQRwEahJGcYsDlCNBmPPDWP5ps9PW/3Tcf/c7J6DD9z3yOefufv+B2ZnG2a06TKa042B2qCmXqgYp0vvn3v/vfeHG2uIIR8OsyuXZGNogy0tR4ZAzoil0dOd0HI1ebmBzFjR7EkoVaOgpmIiI/Al6GnCmfnu2uK+peOPzc/O18KboV4dDPqD0hJyyjy7oMNRGFYpkGMGxoOBDUccrI56bmvzUj04p+Fy0kNCB8QtiZtP1IrqwClThSYykKUJDzoLMcOoijkxu8yzpESj1bXxm2/lhw/MzPfSPfdG52qzqFowHAlAZPrxqeR+X13ZhADlBGnAbNu+lNSiJ7VKL54d/uBH1f/913Pfe3FhbSsUttZWU5sqfuaExSGpa6hIYgQznCRgy+hM1nt+eOmd+d7eJx6++ytfvPOhh+fm5gGYu15ghCEBAXC1lqeunH/l3VOnP8jiqBdG7ZXVmSuX8q2KhwOqxo3YMDXqOY1yUcNmvc1pzQZSgKywsB7qAfmhtC6LnBG/vH9P/sT9d/3x40eP3d+b3QOR/nB4+dLly+cublxcXr9wZXN5xbU73U4rRzJH0TQWuduzJwPFcTnqt+vNTn9jY2Vj41yojya9GTgWnQ/sCOKTQEGayIwawnvmhrJUKWMxUyJxBBlsxffelV4L3smNh2l+bwWpQAbuEcMiqfHHXpj7nXblXSRYiBQxcSKwQBAFpZlq9J4Zmj44Pf77f6r+6m9aL7+8kCrscb4OrUFkomlET8JOvI9h7JOxWlRTJ9FnI00Xyvonw+o152c+8+n7/oc/vfWxJ4refCwrKXKV3aLJLu/fjMQDyMqVtdM/fePC2++Xo3EmMa2t5pcuLW1uzoxDESu2yAqnMLVESo1AQKPbsDNabpaSVblfd+e6V5x7raxP53l25523f+mLN3/5mbk7PtXWVuaEAQWODofry1eWz55/55XX3tFyfXW1joEyoUwqDaMy5EXOWRaIUBRuz6Jtbm6uXRmuXlkf9DeqcZkyReswU2ah4QLfVi5mBoSJSMAOGssQM5gXn7PmW+t4/XVYqu6/L78ry+YWay+BVJs5wARr9bGc+XfalXexWJWFZJAMhMAYwALFQiJr8u9+sPqXf7P113+//9TJPY4QRsNQt3x3xtqmKU6BNiEmq9WGpRHBZ8K+JL9mcknT21FforT3qScf+Q9/cvzJz7TnFmNtvim4kK6TbVEBQqiGl0588N7rb4w3+72WtEZb/vJKb3Vzb4i5NZWRMIyMLJkiBqIJLEWNtv1YmzKThGTuyrh+Kw8XDx+cf/Sx41/46vEn/ri9b39iSKg9gYUV6jt+5uj+Qzcu3HBk6aa7Dv/k73906p2Tg8FIGeaZE4dhZVViQlWnpNSbWch7s/Xc3PLFs9XKeiw1sAXmoxqJGuENmzD0NxzoDOKUhGOkZAYml7t2HcLmSnj7tY0f/XBfu1vc0Q4z7QTWhgPeGomL6Uswv4Jdw5V/fXJU17RdFqV2i2rbnXxNOtJEnjuInXG//9Z7o//6d/a9H7U/OOFGW/BqIVittcbCF9sl07VMrVmIE2I4PyI6q+lU0DOM5aWFvQ888vS//+btTzzRmV3KJM9bRDGGuvK56O4N3WmXwMQpjS9fPvP2O1c2V9t51jXLlldn1jYWq7qlBiI4BzY0wjxqDfDeeNLka/ZHE1kiKJmCxly8Mh5fvPGGA1/80h1f/8aNdz+QFz1UqZsLGlFFVYYqlJjUu72H9/WWZmb9zKsLr7zy6itnL5yTKDPddkwh1oGF8oQYAbLoXGjPxqWwJf70er8c1sNQQqxF1CNuN6pIDdsYm5HGVIt33udqFtSUQEJeAzZXw0+eSwcPyoF9rd6RanuBtBl58q6Mwr/ULX9fozLlmUEoWB0jOLY85+MBXny1+ofvxf/+tzPLlwVRUzkcV5286DqMg40kCtnUBhmBhCT3YI6el9XeN32v1Vrfv691x/FPf/1f3f/Ek4sLe5OKKTXyurGuvRS7YHx2Of2EWG2tr506den0ydJH5/3MxjC/tLK4NdwTDdFAiDzRCqJkrLr9BJjsuBmgZJEQyCJjSPYsFPffd/hzTx7+wjMHjt/b6s1zMjdZE0wNWQEMKWkyMyF2eafduvWeu33eDt5GqVxZXg5VSQQLQSPlkhXCsY5lpcGBOrOADEzqsIZQz6otsD9IvjAqTMlSBAJpYqUUWdlTlhQhpcjmhJyQhTJ756301uty+620tCDtLjUPNlDaNSb/KuH199WVEySAHcM5MSRsbsR33q3+9rvx777XuXC2raUBUU0oAwoQmEIdG5W1aS9oic0RBVjfwiXC+UxWDyxljzxw6LOfueOzn56fWxTzEgFDyGDCPsuQ7EPtqn+ORQ3DjbXN8+cG66vacYNQ7RlsFeube8q6kwxBa6FaiIgdINAJyyd9uD/c7LUlQhAExtDLGwf23/f0Zz71ta/tO35X3p3jCA+QGGw0NGI4zw0UzCGpRRB5FqQWDnzqyEMe6vHj731/a20tc0JkwkSWTBMUDHLkzXlukXZDrNKW2umyr/DzEEAIEWZElkgTo+OYQ2IzVjblKEpCzBxS6ixf0tMnwoWz+NQt0u6SAUlNcB1n+BH73XVlAyJx0/xX0sCqUAHyRKSUc2aAMVxUWVkrX3tt89vfid/5QXbyZIsqRoohOWPnPcxUlZjE1CmJSiKLTGCwmahJg1vTFFXrTmtZ6N0YT2R+9eANcw8/fOxzT9/++GP79x7gyNBGl9dgEGKXZQhp5zNotPGuDiG/+Nedry2Um1cuX75wsaojd9o62KD+RidUeQqWYlJNtLNfbBPQPhERHKGsku92x2EkFr3ROPEl9ucWFheeefrw5z677447u7PzmkCqJARGVDJu+hwkIBYhElVjgBWWUqfbvfX224RpOBp+5+//waK2s5wMIUUFUSNozaSmxqLtrpIbenfhSu0SFkJYYLRhRFAYtFFXE1OFpUb4TiZQKiZ4Z4ZTZ/Wdd/j47bxnCXBKWYkyQ2B4m/7U/KX228+Vp5k1yBwjWFJKATEiCSxTJhUXMzBSXenFi/bTV9M/flu/+105fyrnEFNTFIkRav0wM3ZApg5JIltNpkAByifMLkqqqrTpsjcy+rGj1QP7b3z88bs//6X7Hnx03779pgBDeSKjJw2lI8jczx3gR45uR5/lQw82a0gwrBytXb5w4fJygLiIYlTJ5noL0VCXGhxDDLKtCD3ZzgQ5AlhTUJe3R1a2Q2xFipZ90O598Kk7HvziV2+9997ezCwsmUYQmXhAmIr2drG4reUHlsmgpiWOwcj8TTfd/MRTT7326qvLFy8VRI2klE12oJNpbNY/NS9ClkfHXI9loz8/rhZ8anlpQVWVEjnlYASWhhwBgFBzwMTSrnL4M8t47S174F47fDO1ZtXTOFk71SD+ODRcv8alu49pBGsZDBagpNSL2Z4q74x9CdnK3dCphlLOnYs/en7jb/9h+JOfFJvrPecs6S53orGZ1+RTQq31mFKAI2RuSHpFcCHPXx8M397civNztz700BNPf+7+hx/ae2Af7bLS/iteyy+Utv3+cH1jq6prAGFUujpiULoquqCUpuI4G9L/ditL5ajrvJOsr1gTsYP7bn70kWPHjs3NzTWcBDsPgUYUZpfwxCJgMlXv/eEjR5754hdb7XZZVQYwTxTeJ4+EqwzOh1ZvXHQ2nd80GimSMYOdmewaCikkq+p6baNeXtF+H6mBIdKHIJbrtd/dBIMApKRIkeHgKDESnFnpsAlqo1+9+y6+82N+9kfZa6+1Ll+iemwMN1EmvrYFScohmWaEjFiCVqksMy5b2YrP3wz8bn9jbX7+lj966oFvfP1TDz08u7iXaJsy8brs6s9nh3A6xri6unZlZbWqg3NOx6NsNPb9YV7WWUwyPfdWs0QqTqUuPbkoxUXVC61Wdufxmz/7mcNHjkyo87djP9GvgKQjSjEmVZ9lS3v3fv7zn3/+Rz86c+IkMYuTNFlcnpAT2UTFgODzemZ+q9LlcX051PNGbVCnQQSbhcnu8/YhXMVYKVWiFOpLK3b6gltZxcx+hfMswWhXmslfbr99V556M5pRqtkRiEtVIvYeAHUAA8bPvzL81nfpn76/8PY7veEmrBzHMhG3W3NmUe3a02mlZJycwSuLGRQjw0aiDeN3kr5A7D51661PPPrwv/n6sYcfKub3lJo4xNz56+YiuTpANuIpAOq6XllZW1/fiqqZKSflzUGvjO0qFQZintIvRIMoCKNh4Yo0TiFvLft8Y//+Gx57eO74bczc3Ceq2mjBNEtzO3F6mgkLCYNIk+5ZXLjvvvs3V1bjuGQRSzqR1J5ASyaaqZblNXkr65Xx6NLQlpLuAXWJiYxst26EGCjFtLKqZ87alct0+Bikl3mnjZDW9Z0y8DvhylONAC8ZUTQbQiunbXAnRLqw1j51fuu//FXxxhu9kx90ttYQ+8pIOQSedReCerAawdjASREQKR87dwnpvc3R2628f+vRBz/72Ue/+uWDdxyXmXmFE4ZkCruOJYuJ7bhyE5Wdc2YWQthc3xwOxyAy08LUNrdmFW01YQLvCEZf41AUbhRDTiUh36rTVnfGHT++5957/exsHYKm1FBcX51mXF1uXvsdMqjRi4c55gceevBnP31xpbpMRDLJqZvi04wml5RIorB2Oxuj9kqoN8ZhpBYZfpuk5qMf5bZ5duDkBqP6wuV0+TLCWIqOgEvOzT4WB9dv35WnnjI1sgzkgYyRoISxXbqYvv/S1ndf7P7gh8X6aj7egsZEqBlwTMoxBOOpD2hnrHWqYmTns25vK/GJcfWW6fl2j4/fcu+Xn7n/yaeO3X8/d2fKlBRaiAiEp3vWr3J1O5Xfjm/VdT3sj0IVPbFppFjbVr+tyKyRNcc04lAz1sQEhICskM1kYXHv3D33zBw+LJAUg5l57xs/brTndiTap73DpGowMiYmEVHTW265ZX5hz+qVK6Zg5uYiJnLbhmbdoiHd0lZW9vL+2G1VYRQsAF6gvH3j/zz39eQShMnMpxBWV+vly0U1dHNLUIDdJIW5Xvvtu/I0M0OKCmIW6SBhvEXnzsYXXh7+zbeHP3jh0NYA1ThqlRhwLSZQMksWkXZ5TpGJJRtrUu+l2zo5rF+HXlxczO6+67bPP3X3M3984PDh9sxcBEkyC6o62Sq47mR5omDecEds8/LEGOuy1qDEnFKsR8N8PPLRGAbeJhqcciaafNEuUJfwfhydO3hwz223tubm8m26/x2NuUanqwH27ShaX+M10Ui3G7MIi5m1e729+/adPnGqHleZl6ab3WhpT/ILMjNjJMvJunnd96P+eKxagbyDMT7CxHvVuhciQxxl0cabm+Ply/m47xiIUNe0lv8QXRkGi0jOWJMfDnHyTP3c8+Wzz+pPX+ytnAe5qKFPBpe1JC8CUlkmitpq2FyufSKqpJJZ4fuFXC4Hb1X1hfnZ1sMPHvvyV+566vFjNx3MirYBAuTs1FQaGhT+WJ2eHW/eef7EGFNIFs08VNNo0O+F2qIRNJHGXfTMlDS5Vq/HHslg7VZr//7uvn1FnreSBZEGjrrzu3YEu3Z5e0TUJMpmZts6cQcPHixaRTkcMfJm4tjUfNu+RqyRUsW5cculXIJQZVabBSLwNLVLAAhsRiZqNhqW66tlOezAUJPl13/Cjf22XXkCf9hu2E6YJ5uKGckJkaG/Gd87mX70Qvnt78WXXvTrl2Y6Dv2yZpj3LB6JLSRSck6SCGlCMjCMScmSKsBMDLVkpj6rO/k5q17cWFvuzu55+ME7vvrlW59+et+hg4wKxDAjkG/EmhutnpSIr2fTZcelrs6Ym7IvxJBMFaxmcTzOU6KUkugk6k1xZmqkOAFk+bgy9Dr50h7X6wo7qDGzbteXTQejyS6a+m+aEZFQI15lBiUzgPbu29fudDZX14VpItuwHTB3YmdmSuTZF5K3ovRrtkBQI7YPtwW3p0dXJRiGxHBCUgfaGthgAEvYkZj9GPYbGpFM5ZsykKqJpMZ5DVZHxMgE87zpZake09tv1n/3rfDsD9w772UbmxHoB5dJ7sy6EYgVUAW3fSl1dMEoJXhoJol1XFVEPpM8qSWyPtJ74/JFwtt7Dx148jN3/ttvPPj443uXFpkpoZ20OdFJ6ahN5535us+keco3hVejyUlE/X5/UA+DqGOfiH2dFutUuBgYhbKLiFPKH8dJ/CCMIogHrlvPzPDCrPRaiQm1kWO/jc7/SFfu6mfCR4yZddJhoxhjw3zT6XWLbjvzPuMdMrCfvzPFtdBOlBvlRcdCvlZmKRmcUhZc+MV7Z/u3dxKNW6SwVlRaLWV5q0Tluz6rE/hj6VP+lqMyMYFpGMdJfME+b8A8oCojONlbj/Tl1/p/+2z5/efpzJlcK9d27ShSc5h+D2shKaqmIFXKncukbeQii4pdSOVbw80PRAaHb7zvc0/f9/V/fctDD3UX95SWKFrmri0Pet22Exc/0kNomr0N9481u/PNf3ejtsIkr22aYoRk6vPMFbl4Z0z6MUTEdpQUmdk0gSlz3rEQXd1TsJ8LzQwDgScE5EpQJvvVmj1NSZo0hRgsRp8S3MdLk4HfnCtPCwkJZpRMGM3drxMBXSGNYVR+61v1D16iH77UO3lKR5s1yrGlThJJQtPv4KEk8lyEzFWRxko+szwbmm1Q+hn01XZe3HTTsc/+8QPf/OahB+/3nR5AhDQhg/qkbceVd/pxjRg4E7GBtUknmi4hyIwMu6w6GhChSkZEwTRrFVm3I5kHsZLSdT06TJWIQdR0MVKKTTfaswixEGN7GRlEOyMSY0SCCUPZhI0JBCOo/bLIOqlENaQYQrAQfIx5fp24sqvtt50rkxGjBQnJxqGqmYuMfB3k0tr4xPv1X/ylvXly5txyMRpBo6ZQaazh3K7ztxBD5p1nN+lkSLbO7t0wOlOP35+d4ePHb3vqyfu++IUb77+P2zONuqlDAxj+5K/vKh1ONI2Fpu/LO0NEM+hk361Zpd81KiPCDMZMKZnLs6xVkBMD2fUSZKo2u0bU8M0qDAZO5o08sdAkOTai7b4yGUyVmNiYlYmoCc8T1tBfcorNiFo1xRhDRIxJFfj9icrTjQgskaiMY8TYcUImy1fSC6/q958rXvpZeWk5DssGoFyosUhiWqO6Qbsb+wAAIABJREFUY46nfOguwk2g/JmKbGTZG6l6jeLl2ZZ/8IF7nvnyPY89evTuu3y7V2oUohzgpKYG+bWoGF49qtgRshfhHemwD8kzmxi9G+BgImLSlBXE3FDOfRwnoEZLHtTgX5ukuB6NRZGzOGoo8LabcJPi3JTNCCaCtD0gB+1w0v1SaxiCVdVUP6kQ8lt2ZTXVGPOaxbjj/ThW5eql8PKr8p0fFz96qbi4gvEoWRwZMoVjEXFD0YHWrTR1x6eNjJUSc+X8ivC7qfxpGK8dXJq5+/jxZ7521x89fcPhQ61ONyZISIVzTIwYVdOvw5Ub+0gHI8syds4IDQvttvAClJBguyyRECBE1lB/EGlKGiNUeZvK+zpGv5PbwnY6R0DS/sam1TFjcUyTEd8koE5ipxIZEYiVWYhlQhfdjKd2RelNjgJEPNHD3Vke/L3YwZiaK5tWMTBlvvB5qu3s5a2XXiy/9/3uT37WPXchDkcZU2IP1URgEoA5pjzu9pF5l0fDOtkyp5MUX0N9fnHuhkcfu//LXz7+6B/tu/FokTkoKKRMaTugTQvxH/eqr+7yNhGamfM8ZycNlimRCSExEpAISthleEsgT5IAMvIkg6quR6XG1GBLFFMb6rtkH8yktl1NQokIamtXVrSqMxamn/Ngm+QXDVsNE3ECO7ADOYMYJmua07p/tnNXsxPxzjnnrmq2/H7DVMnElVmWoNnldXrhLf+Pz8uLP/XLp2FlX+MMF7lSiikySiKkxFXakxyyqReuLH3Ts6l6O4R3M1o/sHT4008+8pVv3P3okzP7D0Cg2qjZGXGT/6n55hw+YZWMnenx1QNkZs6yjEQiEMmUEBufNktkaddVNiIIiEBq5lliWdlorCE2iyW7jAl3M2JoVDVjSik5AlQ31tZSHbyIUVPI0c72hW2LXO7I7DiDGDUMtjydknlyJmoGE2Yh57x33rEItofjH2eh6DfhygozmiAZm4ln4zIMiHMZZSPoYLwpb73dfu7VmVfek3OXk/bHRUytDgfBOCCGlEntHZRaERlLaGD0zbUTdo5Yzcawy5ZO1KM3zZbnejc99sgX/uw/3vngky7r1QlKZmqiytBJ0S2iRATwLotI12VXh+QdIyLvvfMeTUMXZsyBkCb8/M2W/9QRyWQ6rfDCWtU2HiNEMUAbxYXrepuqICMVTQrmGOrBVt/q4IgS7STwk/SDGmQWGtpPJhCBBHAGb+Bf1sHQplnPLBBxnp0nYgKS2Se/GfeJj0j6LgXYPvXYCoih6ko/M7M0Y5yjiKB8vIZnv936i79r/+TlcOniehzUSdsh6yLUCMiBHIxUxATACqkAGeemwRXKLYLT2jS6rLZsY1ieKXCC3VvZzMqehePPfPlP/qf/+ehtt1ekMY9CxGrEMEbaCR+aJl3eadumgE2nu0hp6h3AzFdP2prdS1XtdrtHDtxypnV6deWc57pYmLs00x1tVAcTAo1KDoVdu8Od2MYcY13PW2vBbGtza7y27IdDr4wEk8k7uTqw/9LGxgBjIW1phpJbyZcZTp49s3b5UjEe5RmPm3SmoSjYZo8xIGMqTMLYSnPJKu/DAsUlk+Syi0wLU9YTDRhSpSSZefJF6M2UszOQrKOT7OjjFLC/iaicK4Q1WnQFAUWWSZc1WohQtrrY3Oi/8rP0nRfCm+9V6+umwRNl5ookKunnLu1DhCZShxgeVltdpzol5wLzeooXRuU7nN6B4siRz//bbz75zX+/54YjY0su97UFUfhpedz09t7uYWb3sfA0m98z35udWVll57OgFomUOGligtsVw81JvfdQsRhpXNrqZlzfMIW5n9vC2/Hgq7++pjEJJn19gUoRy5e//SyXpWNTjTudliaf0+0DMUJgDZ6sDK0yzAbkoEhmsGz6+ydCJmLkSBFZLC98VjgWUAMUuI6D/NB+E65cKEwpCcXCMdgDhXEklFaNN1c7P3vb/u577p+e5/NnUhiYBZeQRfbKpUwNeFWeMgJXapUqKLls09yJcvS+hlO+7W6/5fjnPvfAv/rq3ttuZcnJjAWkoF2xY7v0wHZpY18fj8fC3oWFvYtnzjiQRaMKqImTpmzXT5QUzoiyTI1iiDIu+dJKPHexLrfGvZl2PdWbp74i4Nmbo3FKHKs82sXX31h/6912XbFHmvChNsdGatDtEtCAWixQdMPBnuFoqbLCJLASWbEbmwUy9mJSq9XeaaddtNqOHRQk9Etb0rvbb8KVZVvaqwZHIJoVgEsqw1H1/qnyO9/F959vvfeBs2F0ASm5yli53vVhE7UUImdGJJH9Bmfvhfgz6PmZvHXfPfd89Wv3fu6zC8du3opxxueFkaaYEZhoWj65DQW91j/tenU6XVJxFy+f3TO3uH9v3iqqYemcH4AGhhpckCOKacqvZECUEiiQKWkRY728mj44EzZX6l673bzba3nzLibKKpQEMYXyyuX3nnt+ZlRqippRhMQ0OQEFTfyYyAyBrORoCHm5ubc/2F9piyQwxKzArugHMJJETaMi19meK9rOKClADRne7zZMtWGNdQpvMKCGJUoYDOj90/rcy/HHz8uJE3k1EA9x5NW8IpJt+d2KGAkRdYqGsWQr4t+O8YW6PLk0hycevufr/+bBL3zlxuN3+e5MjGplRDSO5oLSdKpCm/7n+i98ejjMWvmevQuzc/NliJa3Bs6tQ0th8O5C0MwQjSlohENLrLWxRR+cTRfOCYY7j46PALx3N1ZwVAdNo8EHr7+69v77s2Zt05yRC+XE2eQP5eCcOAPlRJ4gloownhtsLA0He6JmkERsMLdrIygZEFAZjXudtDjPrTYlxJTU4vUjKIHfUFROTCDjKkoy8YIMnCpcOJee/6l97/ni5BkbbcYsqWeo5cQsFIRGzv4/9t60yZLruBI87n5vRLwl98raF6CwECAWAtxAcW1RUlMySd3qNpuxselP/WH+V38Y65kxm7bW2EyrRxLVGpEUQYIEQQDEVqgFqELtldvLt0Xc6+7zIV5mFcl6SRJVoFFtupZWBlhVRtyIuOHh97ifc/rz+2wLZSMecdhkuej2Wm7e7oSFzzz76b/4sy987Y8PHzlpFIRkserwJEEMwp5UxTneP7U94C76fLz2F0rTv/iL8/vRILSyvnr0+LErH32gzHVV3qHhkGmZOBwAqhFZEGtqRCeJJdCZjKdXrtq588Xjx9E7tW/eei+SPf/KAABmnJt6e7B54fzl117DcBBys0fjA7cwN1HbLdLaILa1ScveGw4PD7bXpuOuEYSJhGdlnzk3BJi69ZPVIs2hZTm2Tp0eGdSMSfGxOmn3x28HjIOaeZMpa4hV4Ulu38pvvNF89/vxtTfL4bhhm1jSxguQihgLCJUftMCIqzHhBtNF8nfIz/d7/NjZp//gW1/+k3914tApT1arBqFSWIRghsCJyehAWu/cjveDru4AVvMB4AbY1w6tPProo+9fPD/Y3dClha2bm5tqy7AefG6FgSmLoJkGdhIDckx1unGjee2t4uxJfPYkfj61+LVyDMsYDDbeffvCK69MP/yoqCfOTBJk1hlBmC1ftj2fPwfYvWh8bWN0YnuwlKdE0agMJJEBswPyhBF5xzx1Czt2iE8e4V5PHML7mOrHH7+NpczqZl4TtKR+5LAznP7kZ9PvvCxvvNm9fRvsTkBjotnLMCrICFWiw1mm84HSgYTrruc8vxPo6spS9dTTn//Df/n1P/qz0yunIzEqZoh6TimFIoA5w3NZEWBzcowDa2wHjZTmOoAcELBFZHll5exjj506f/7HP9ssV5eH5dU7u6NV9gif56NkTBalJAnkE8u1G5Pwnc3ha29Vj56SF7/2y8DFr1zNvruzdf79Ky+/svXGmytlMfGsZcedC3Arr+jurYyREc3c/4BgKBo7sjE8tjPueMqBQShcIhyUD2BcT4UaIut15fjheOKIdLukiCGQk/mDsFR/O9u+DFIaljEVMYPo5u3tV99Ir75++M6tEHw6GnuQjrLk0ETeJq2tOZwDJB7wlm6ofmTpApoPOmU+fvipr3z5W//63z5y7CxNHF3TlpNA7sFbo+aaqIYIvKD7R0qav5qdcECSPZ3e30MJQFmW81YzMRVFsbK6evzkyekbr/T6vaYIA00jx8p8dM8JOXBPBASzZpK1Cgmj8fTilel7H5SteeT9VvO8AwJ47523L333e3bp6umqX1Uy6McrO9udstfjAmaNZUN7M4msdQ6n1gG7n7A8rJcntXQwZmf3Vrbd/CB52SxszNSp4upSWF4kAQzc1n4erLPooZVI5olKAaDgEli49Ay7dGn8V/81fOdvymvvuk81BAQnqBeSIxPTSmL3EBjJszeRxBCySzbSDKgH8+gev7O6emk6ubxxezJIj2t4LpRrN68O79wcjceUnJ32emB81AJJgDO0brTec9z6hXma78sC3b2EWcKbUxrc/7IdzbSOIYDarnhXM825rMr19cP0za+gt8a1CAmLi09Fk7lYrGqow5YWF1/81HPnL1569Y0fbB5eDpPJwjCtZ1pEHltdky4vLXKdmt1xkFB1Oi5Mo2nDrZVOpy/O7lGHx7cn/Hd/s/O/PbvyuRfCE49pb8kzFwkIyAGbPlkcV07IwRAh7IJsOzs33nv/o/cv+HvvLNy6xapslMdUACe81MbB9VTUWMskHYvCxdB116aZcyj48O07j//0jWIy0W7fGFGZXNWnDjdwotQvej6qnciKWLM3yMTsKT9al69Zkz7zzOEXX+osHPKU4BEZSTpw/R1iXN9372zmzNw1NJtDffs9+9nb1bXrxXhK5mkPdPeZ5yH2Nz0KT4KKuYBALZs17gPGIPI0xuuD7Y3BQDQdKborm7uDH7760WC8sLQ4Go+DisyLCmawGby0Dxa3E6Vf2iTdcy3GXs+75NZKdFaBBjHAqiRS39yWF58peiskkZyFwc4EZicncjc1JylOHD/+9a9/450r79WrK8Obd7ZGuZFYFtGVm+mwmUxEnZmCBHekJrdBzxzY2yWRa5E13br1wf/1f5tNlxejnTxtqAgxUghAj0V7Su6iyXfHaWNj9NG16aXL9YXLCzfv1DwxIe5EU2RzNUBYyRUOopJiWRRmPM5Nw1oFhJR5Y9i9caM7GhLgLEBLhPE9d2Eyc9OcXYUDyE2zaorClPJoapP1lfLs6e7RY92iI9a2lzrygzo4PMylfN917O7ZKSjKekIfXBy8+mN591xncyANmXOa7wjmBK8YSZEdxgElWLaYLxKuWzPY3SbFoUCHep3lph6fe39jMl0888hqUYxBc2QkwHv6yt42eO2ZIbSnM6Z78Kx7q4vUqsLed1QxmmZVA5yJW51MbXQ4uB0+utlbPcZVpYAwyAICyIhAgcQtmWrR7z32xOPPPP/cxdFWvnJtc7e5nfNxJeZQImCS2gmoU86ezcKcEjqntPb6u0PGaLAVn3u2OnzcpBcSVBMKbijVo3Ez2LHtAW3t+J1N3N7sDCfL2e5UGLK0xBDsESzbwFJCIsQINes0ODxX08nC1k731tbine0941XM7hTdpaMKZJqSeo7MDGXLhWpFBOBiruns6f6nHuutrJQIcG2oceLYwAIeQMjzE8iVfzmwGYsm5du39M2f5h+/Ul66KIMhDA4xIp7TxUMAsZpny8YIKZajGG8FP6fT8/W0I1gsud/pVp1ApKkZb9y+0S/jiePHJYZ5wAHtQUl7PTH35Bk0Mzm6B7DY+w9ixv257QQQk2ZTV3dnssAoYuHk4+GkvPTh2qkzcnRB24zZCSJG5Lnt/JnJa0oRvvSVr2Dn9rWPrt3cGn64MzymWIqxQAhwAMm9yeYi1KaW9xvR/PGd3Y2fvnVjZ3P3vfPVqUd6i+uBi5RzbamCpdE4DYfe1JIzNGmqE7v2o7j0lPeeFilB4RkwAnPhkEZrJq3EMRnHjVvd6xtHNsf98XT/Od/dY8xapjkS17lpyEEagYJJYmQWN7pVxc7zT/eeerxcWoYxTEecWIoytyrLH388tKXcbjLu+4EmIq0n6dL7w5/8wM+9XW1vQRUuDZOLYK6HqWFSq3MTgkrYFrkiftXtjmHXaL3fX+n3mNkcDTuXcmMy2Pno4o7Y+uEjZVHd/5j3MKlmhIi9QExEste//gv4G4GizOdfoTE0TmbuauYWInMRJRTUXPggP/YEr65bJ7qBsltAAiib5RyEOMh0Os2an37603nnzg8vX7t87fbl4eiMAs6HpSqI3VShSuTELAyf567r4Mmait64cX1ne+e9i+nwsf6Ro1oV281koaYS3BcJTAaeANNAtUCjLWu5gND26ClM3c1d3Q1IZJmpgndTsuGubd2KN28ubA6Whk2lPr4bkLFfY2pBtYJDIxlBlL0gjyGAxNUHrtNHTh/67PPVI2e47CAB8EQuTLB2f/PxxyebYMyA+tzoxu3tt98cv/GTlY2bkQDiqXkjLpHmrGSQO00SOtWkW2yJXNXmcpM2jToSHu0tnRF0c1SCMdgDZYxS2pxOk1vZ761W9+8sM3OepQ57ifLeVDmDbE/P2H/+7+CJRnOuGaFRyhmAqeWcialoFjqdjnjePndx99Hz/TOnvdO3zJ6tMWR4NOTUcBFcosG7vR5JfPFzXxxeurJx5fqtwfD8zkhY1mOJxl0TRxGJ7sLzd0UGq2lMxF3D+iTv1PVkOtqeboXjR7prSwNPpZS9GKKT5WxUdKWqhDOM3RNcMWNBq6m3Yvfu6g2TLCUtd3aaGx/5zka3nizlHDRpUg5xr71272bsEUhcnYNEIXIVMChkp+vN9JZr9fkXF555NqysJ+OQMgrnFurnB3UM/gQTjLsrYWcnn3tv/ObrdulCNyWU3SbpyBumVM5vniTihbIzDjKE3rG0aTkTVkI8GotOUS1tjaaTHeJYLnRzyMO0vVgV1UJvemuw8uaHa93N+x/TnMx+HqOYrWlWk2Z/Ke/T7WbmwqpzljIwCT7bMqpRTgByp+O9fldkc3e6/egZ+sKLnSMnNCurJyMlj85lLENkCtKN3doNQFEtfParXx8Pxv948873rr7iBR5dW+xoM80DZZJCxG2eu1V7v7wqB7c32XcOLx86tlje2Rp9dGdzdO3G8qnji2fOhk7BoLpJTW5giFTA3FIeiGY2wFsGP8GCIbqIe1EnGuyUGzvdW5vL25uSp+JJVBWOtutpLzneJ6g6gcxSPaUQYgicEZTN6Wa29x0766uPf/0r/TOPcezqtKUUoiBywCM/GKz8ySMY7q7Xb6bX3ojnL3V2Rh1jmIwBZao8l1nrOXMgInR6pk2epsC+HsORTlFyUXqImtdXF5u6JGGOIWkeuxZF2SuqsbrfuDoP6Q1E7bZpvxZ9NwsC3zUDns18//PpkeYuomUIE7nD9pXSRpOwPaBuN9waDD68XOxsdwhuzmAlM+YoQYJkSik1wnE8Hnd73dF4dOjoyS998482r918+er1izc2L+8OFwKpeIK6TksumHhepxE5ldNYhSXUGXeGGOr64uJa2dm6unv7zR82j16rTh5bPnEsrq3U3c4gN3VuREKn7BRaZ8uY2fSYmEe1Qi0YsD3Qazf41kZ3MFwgADZNKWWNFIOIWb7bjH9PRHLALMOZ1D2pZhqbbQQZnTyx+i++tP7ll8rldbTUzEiQXGRvkHLRhevvimbcvARD72zoufOdW3dWMsAhZTRGRBQ8UXbQ/edg7qPUZHhPiioGijFKiKBoLm7DZrPf6whcU90nOrrUBZFtbSyo+nw9CDIj+2Xw2OEgJp6hW78Ust1/UdBv/4B7coOqyiAJAqJmOp3k3O33fStNNjbryaiVXWOIE4xIhHOaJkpMUtfjMgZSh8IjHTvzyFf/1Z/b7vDmf/xPF+9cP9FZ6JcFSXIYPAvFeTtad9+Z1AULF5LhOeTgk47zWqjW+muD2oZXrm1u3NHVBVlbkYVeV4oAKVD3Rdwt55RSnScTm0x9PE2TOqcUdwed8XDBPMBQT2vPRhykEIstHEj7+4p7lANaLq2aajJMMilqlqbf7T355Kf//M86Zx/hWHGGSAvrUEiW3XKXROmAUtSvHA+tROIQJ2dooQQP45xHHermhEsfNt/7B//Jy2Fry2KAEXnukxuxUjXFXB1SB+AaCMEcySkrt7Qld4JHy6wGEJkCZE1DjpwSOVoHmjmztPsVrtvwS7aPpdzdyuzF7PmtoUnz3q4XbgyQWyZ4mk6mqnXhGpgN7OSRg2uRVNFqwEYiCoFZmMjLsiBmZj5z9ukvfevfvHx78Or/858Y0891ysVxlka9Yi1iM21KSCklDE2qEykJMzzXjcTYelMSIKY0HeemCWA2LEy9bFBPxjoc+a1NVIXPVL9YKRsMZkXWMmVKyu2PmtR1SImY3c1aLyEiAoxzMq297lJZupgiExDhZGopWRp2pc/eNTLQDtmNxWr0zGPdb35dPv95CdXskbUggbtRFALl/IAqAg+PEOVAS551Q0JjnohsMmouXKjffUduXWdFZiKHuBVAJsoUDC7z+30Z+6Intn8S3Zu3a2onakDd3E0AfkXLwVxOss9rsz3wcLC9IxJg2sYmZiFzZJhFRmjlqOACdo/qRgqmtkG93fS4uwi3asdFr3fq2ed2//Wf3ti49PqPfrDY6KepWhHj7AnJIptSe0/a3ZkA7IgGbwV+WuVRd5gZcot3lE0omAOTpmSjsTIyk7UKT94QtCVLB4fYjDjNrQ2ZmbV2VcR7iEUrM2AEEmZGdDeDJjeHtttnEqFpFunkEG8yrp1Yq770wpGv/x6tHaJMgPq9sCe1V67Y0xH9eOMhgnHGLswMcc05CaIaNramFz5Mt273fKYiRTPU5oHevweZ5ifwa3vCOgeyJ36Dc0VURxef+MrnBzv/5rXtnXffPr+A0Ctit651NNKFoMSNmrllmWlUBGeOVT3fOT5p7cZtqadVeSMCMzkQvLVbb1+A2Q/t6YLPO2AARQ/s5AIryImdzMiIIE5LtXdyhJe3glw7vDT93GeOfOP31j71hLA8sJ7W3PHQlnJr1UmgzJgEN+KqmdLVm+m9C3bjjpjTrC1ltqFq5Uc+iYt66DTbX+Nwv6jC+kDAkjgF6hw//Lk//4s8aN75D//xzUtXgvlZKYKlPB53y4oAh3q7LtucIhbwyby5Jqvbdw06e99mrk9AML4XNKd7MuD9boL9cbcYouDkFjQTPLIIBQ5tCwqpdZRQ9m9bvLS4NP7cC6t/8serL73E3aWg+YEKegeOhxeV4TCDQclzIYJY7OzolWv8wRXe3BGdiQeY+37nFuw+thW/i+PAZen7Mmn7r+bdLf182t/8A7IrkFOyxWOnX/of/12zkz78y7/80blz08hPLS/3trXDFZom1bUF8iIqqHar5udpAAwKtNGE2vVJM1dLsLW69nv/krBPR91n8/sv/6mqdabAzjBNMaMUBguscA8oiitu55a648+/cPTP/vzE177RXzriyJ7tYxsU/crx8JYyu6q6mhWM0BGAt3fShx917tzmppaWmr+v/457i/f/BMbDn+b8b0fI2jG1TC5YOnHs6//+3/+wU7z2v/6HjQ8vqnS+VC4jFphuw4DGWcyDjDXXjZXFASA9tcpvBOK93olWHzzD9zVAbR+IIDhQgOOct9EJLiRVYSXbsNZRAwqIJUJoBLeqznfrYf3ZJz797/7i8W/8YX91yWuwOfgTDF0PbSkrAa6SsnDBAQKkW7frK1fC7k7pSntwqN3t3/EH+wwfPObCcZ/Aqe4NM3sFgwchwjuJcxc8HTUai8WTRz/1J3+4Pd1652/++r+dv6Sj8SO0eLTqlkLR68RIICqEILA877oZhDYSt9LOwD6xu039fO9D4rirctQmgndFle9R3GIRqUJiU/PIoVtGWMxO1+v6MuUPlxbKP/yXx//iT9e+/LlyZalMQA0IWafMTf4kFFMf5lLOZAQLRjBModrU02s3xlevLo52xLW9AXYX5fqELudXHP1jL7ADugM+9pqdN8ssrAw01nXLmram4/Lw6qe/9Ufodd//9re/9+brH+bmeYSzRadvIeTazEQ4SMB0vt+ftRu52XxbBjXt1+fuuQpvrfXano5fCAn3qLoJcRSaNk0KVMYKFJpMV4U+6JQ3Dy00n//C5//n/2H5xedz1dN6Cq4QkE3Nwz+BqDwLt8xw8pTq4e5kY3O8udGZDuH5blGS7gFrP8Go/Nsc+0HsXgTjV1zZAU80CSmHgmsMRySiaWSEQ4+efbGzUC4u/HTR337z3Xx9k7l4RKRDJHBNOWWLB5zP6Bd2cr73ZrfAxf6Gb5bj70Ey8yiz5E7mzB5EwLwzqq9NmqurC4Mnzix8+XPP/Nv/6cgTj3cXF1NS0px9CqaaLDVNhfm9Cg82fjNc+SDI1pMHQiiMo5Py7thvb4TxVJPW5oHDz9Hx97YZ5CDXfXowMxNgPpPe5UrctNVcZ6K2x5HMYa6Y+eeSg1qJYJqJ0xGE7m4nac/WqH1+iZBbubPZWfb5L+TumVlkT1jSWj8CIgLB5jJ8glRwtDKH5r53PCKiIBVzCS8CJDDGOsk0LZWDVCqs5GglNPf8dtv5arbkqjlZniAjWwI5x2L1yOGnXvpSKvzDpZfPv/qTwe2Nx5I94nIM5UKjnHMRU2vJnokyGMSEICRCnHy6p/m2J5q5tzcl7KG5fg9TtL1nwiDKrplBQk5mpqTGbe+/eRRRo5vaXBO7eXwpP//U0h98+fjXv3rquc8EYk8IRg4ky07kIMrWgsoQArcPXOBMIMsGzCeo/xrjoUXlmC0wWwx1K2Q6Gvn2VsjJHMn38XXsxavZ/xIhgs3U3Glfcdfc4ewUXFqQntovGrG0uL1aitgjtrelOjeCsRlB2pLbDFVp+zZp/7EJcetXMCMwtSTMlvFrxEJtJ4aZte32zETEOj/5DtKqGELV2neJmUmEiapYCqJnggJw8waUyIMriBB4JsPm7ma+39gtcmlSAAAgAElEQVQkTdYmqWomz6puHuFkDREfWjv80lf++PD66beOn7r++k82Prh8fWv3qYk/Hovl6JZvCpiYzWFu6iAyl4AQYET3QBx7Ibo9n8yy5F8KU0GIQZ7UVRkxCNRgZgRXiqOis0N0w/lqvxqcOF48/8yR33vp1EtfOPTo2WABbcWJZP95CyCQoLktsuhMhla4/ZK7t/4dH3sFPrSl3FEJiaEmESw51cN6sss67nAKlGUOeC/MMYi1Ar8wQMkBJmmpNmO4i+2xmwgtKVfaDWbr68WOttfVCUbmBHej2XeRyVvRG2qlPgMXxBVmiaAJzZTnW2aHQ8jgte/9AxAROxE7aHLf+RPgPnE4SImNWqMlag3EOGjgutY8mVpdKgoOALJIBgXVkFtfEgIE1L5YZu6WnbO5uRjBYEZ71ElICP3V/sILLx5eX7546uiVH71y+2fvjG9u3Mw4xmFxu+hTWCCpFJIya1bOjaSGQ/GxvJeUHcjITVlrhxmxAEKNombslv07nfWPJF8+1E3PnD300hfOfPYLp84+tbp8KALN/FzHKLRlEtekWZUzRZh5zklE6AGyj4fXTiQRxHCYm1tj4yGGO53xeKlpIjTJ/VHPWnU4NuY2+GHvc06t78wUuY2samYOI4IwS5Qg1CRS2ytTWVuudTInlC6hVTrb+6Zaa3oAWEEqpLkNMxaYAlMgJkJDNGDsyyG30zMzMwtqh+cGC7fcGNqoupeIMsPViVJqrB4LJy7daucGdZ21V3JZTHPybBK49SVxwFRTTqqmjaaU3EzNTHU/8yACNUqb49iJR46d6S0sHT155uqTb119483Xz51/9ebGC9XystHhhKPqK5Z73sBqrZuUpkTVXCWq+XFwLDoNGkwqjhGdTHGXeBDDpIw3q/JCPxRPPLL6pc8c+upnDz/37OLCkQpVNsujzPO8thw7ap0yFgKGkGUyRc5wzU3NVUUPsCAf2lIeFmwgMXdxdgs5d5u80lDPApjiHG5cckAtEEeOsicZbWYtCBrKJGgdbSmbJVMFuWQXJo9sgd3Zwe4go7ahBzC3dM/nysB7pHQyGxklN7CBBMRCIDe4W3CsI84I99xmILOGMXXKndV5F17Pwjhm32gmYm5BL48sRQRropoQSqoic2axnKuJFxpEAgK3ivWerKnRJMsZkuPMJu9eAyGHMsYdH2itCdWhI8dPnDz0/GfXv3jh/dffvPLWuz/5wY/DYLi0s3vC0lnBI53uYelEq2Oa1PPlDw5oIlgZEVkBl0zxeuD3kM9FvblS1IcXFx955MnPvPjY009/+sUXysPrKMqkmmxMEniBGtuYd7Lu9dDr9FEIBBpCE0ISU9ikR5LlQSSuH9pSlhAZRE3WbE1qdsaT7SbvmvWnueNW0Bx5KwrGsVFqy9o2+8rOCilTaAmUCCWLUGiRe4MqbLDQRSFiLt4SQ7zNMRyzPs49m4+ZFknbHhM1F5ZbRyMjbilMTc45Z6QkVuNu+WDf0pRq5uuYR0PC1AV7tjKtwy7NmhzISpYYV4QZFGJAIzF0YvROThBPzGCIAI7sWms9zXWTmgnrtEt368sz0MfhCOC+hZCl1oSpakJhxeljjx3pH9197otvvfTCzo3rww8vffDRla07d64Pdk/sjtcGdWfUrHSqAyxO5o070B2xcS8Olnuba0uby0uyfujsyTMrp8+sP/n0kWc+sxy7ZeyiAcYeoR6ROsGBfjPXAVGPJRVvUjIFGfkkc24WqrCoSYX9d6GdqKMesqPxxDyVDq8e5mefzUE2t26V6j2eY2FMhCA55ZQTHMwse+YU2X2Doo0neTDEaCx1E8wYSjCF1fWINAtc3GXGXzInOLkRGcGJ2tTbQNpGXkJDnNBxFg0hhaBFwb1eubBQ9vsI3FjdbtxVtTWLFuHWwG46X5wye0XELDOzJmLCzN6dlsdYfPZTnaVVAQfmlu+/ffOj+OFHk045Xui1u1x315zrpmnqJqXGzFrTmT1EB5i92p6BQWvWZIC7GsyJDZV5JfbVxx8fHl7bObI8Orbmlz/sXL4ar94ppt4tAs/rUj0QsSq5WIwlOh07tFo+dvrYI6eKYycWj5xYXjtCy4s7u1cb4l2ECiQgc1PXDHVwtHkfMQ90OzNNPcjCandplTnAjLwQBTM1DwDUPbzCdWrQOBLFMnrRP/T406t/UsWvfmXaDLLlMEeYglk4FHVdN6lh4qIoQgjuXtf1uJ5ySqNrN3c+uFxfvcbbO2WqC0vk2S2v7aDIKu7BXFqj7Bkk524z/wwDZYIRtUHfCJuGMYnGoi7LSVGkhYXq2NHVM2eWTp4qlpdy4LIsi7I0s6Zpcs7MVBRlEYX1/lGZQMQVs0gQCaFdzS3S5+6rdZDFEodW66YpkoQQucDlt1778D//VdrZSVVsQ+/MXVQ156ymZUIvg5hFRFhm7HB3cxOibgi5SZYyOUUOIoGIs6q61R0KjDVv1sZj2tqOdwa93Xoxo89FRv0xuhEL0zCdUk6Vaph6vD7k8rJQERCzNZXuVGUZqwpCagbVYBaZXHg33H9JkqPb0KjX21xfLz/3orz0BRw9MpDcKRiipdODuBs9tKXcRGR4YYDDGGFxtftkjwKVNJl6nqfkzhxCKKompZyChBijme3u7u7cub116+bOW6/u3rk+uvkRbt9YGI4WLS9AJdeWmjXnaBBHMA826xpod14hMSkZQX/+x4BlyyNKCT6A3a4ntyejUa4dppr7dKbz2NmltbX19fWyLHLWnBNARYwxFlrPiWpERYxBgoQQYuDwc0s5oHJtpjS23HqzQ9k2r1zML//j0oXL/b1j+L3FFQJnC8lZOIQgLMTk7UJ2Y3iHSZvsORNxkCgxGFFyTaYCK0IoYyhAokYpkWoANPDHlNdlZauLaY6TQbG1zVIk9Zw9GSilyicFCi4LF6ipq7acGjAFvz/gA4BykRcWp489Evrd8PSTOLoOJiVmhN8VhygXztQWHtRysGwphiJKIgZMKDARYMksk0OYwTNx6MgxlJJdiUa53t7YvPn++Rs/e3tw7tzqm98vt3aqja3ecLKqtirSZ4gmzY1XHSIWB1ubYDjt7WCKLOLUdsbM4jG30u1Y8+RseRp2wbdSuto0Wx9wOncuLy7ePnGy/vQzG489uvvs04dOnux3+wU4kBOyq6uVjWWOIiKU1RslB7OAWToFi7AwUdvyvleecdTBIVG8Ey0hOCzBmLN3R/WJyXSNmfY0ZbhNtZmJKLs1lBksbuTMRvd4ppnnTACFNidXM2p9SJzRa4xTzWOwkzuMkAUqXLPNVQYBMHOhvO8zdQQIQFk5TzxPASdmKQNXIqnrhNyi9gITAZAI5F7lOfkknGksFoImEeGqiEWxninkgERJ7GOaXAEPs9oXpi1xmYiddQqCRUyRWvcrphxYYJZtmtldioDA7tDssECBTbe2tq5cuXTtrde3f/DD5oc/6Vz44LkuBUeRURJFFrGWmFR4KNK+8CndG9EAIAfL/nPlgP3khlqzYMt9o8PwJ2MxJdTTadNMP7h++9Ufv3fpqTMffOGFw5954ezZT50+fHSxVymsplSANJiVIHGyxJrEKMSCpKi6Be1pHDp0HxEgoJMHtXTYywCyYmLIJTpluewaiJiL0Npct63u1pb+yAXoUIADeUaaueemE7CH2bb3+55Ld3D7/bl3iEIUNp+aPzPWvu9IAEQg2BNbCe2KSQ7ku7e9rbTsz4qQ5vveO7mLIHQn1cJWVXWZ+gWjzpuWSpYwZ4H9OlXA34aSZ4Ym174TEZdcgFyV2SEJyOIaE/vta5ff++53L//93zdvvLF08+aJpl6uJJiFltSw17HFmIXbjzn21C0NM1OJ4OYAGR0PwqQfvX/u4sULl77/w/SlL9M3fv/Us8/FcjnnXKZ8/Nj6Tj3c2dgunRfLjrA0TMVi5xPrKfjvc4ghq5uEIhaB93Jqpt8hW52D2jOYsufRZNylwGWnIhrXtbsWUiDKYGd68bVX3vvb/zL4/neXPvjg0+PRSdN+Sp5T6vcYCG2DPsGIbNZr8TFbkVr22wxkdhK3CGJHAFVIh336tPPNsb791jsXb936xw8/PP61bz7+pW+cPvv4Yt9HOyODLRR9VgOYyyL2Yh2oQzSXCPVPpBv7tzmCh+yEsordXpTgqtk9UMFzimi/wZEf0gwPHAZyMLGq58k0R7YAckzzdHD95s/+v+8NvveD6vsvn964cSyk1Z70G2IwYjW0vXIrwfbJJ0yOgwSPDxhtyYFnLRnOoOAeQA6UEkKMaJoV5iWildHg3E9fu7EzGl25sfPFL774L744TKnT71edLurk7lIWRa/KuT4A5vrn8csjIKQQaXmxWFyKUqoim4WCmJgezM32YS7leYGZskWgW1aWsTudoIyxkOn25o0L5y9//+XNv/rr5UvXzt7ePENWAdMmDepcWVHFbtDRfl/i3QbFB0owqKUF0Z5QnIDa0oqwgIstmzSeV6rysxTXJ9NzF85d3bn99o33d7H9qRdf6Kz2J55jkG5ZdbsdZywUJdUHuJ197In+dzucoy70+cihuLosoXAlc7VZN+MDUVh/GwlGwUHcXd2YQ6/kSGl74/brP73wne/sfP/lR996a2ma1jwXRqQkTkbFVozEvpoxK3bM8gkC3W2u/TiTtJnkqhGIvK1PtNoa6pi6TDq9RE3htJa8n62ng97twYV05yc6Laaj+OUvLx07WfWXq7IbArspM2c6ALH95zT6F4eGwleXw6mjsrZCsWDnDDO4PKDM1m8nwQgSyLxO2SKKoqgHd269+uqNv/52/t4Pjn5w6Yl6FEMQofEkiXKIVadT5oCJZSTal73Z7xOXmWTFxxTrIKcWfjYi4ta/GXByciZ0q27thQ2n3liP6NHIhdfF9sbmj9/4cJLKOj35zT9YfmyRmKyFHZqMOTX5fx73G5RDwPpKOHWUVpc8RAZApr4nS/m7UO07YKg5HBbEhKfT0dU3f3b5//07/fZ3z1y8ekybXoeisWWujRNRDFKILyP3rGlL0K10QxuP2YkN4m2z2288E2oVs5haPITatjoQ3MVzJ0+qSVErUh2SO0eKnA8rgqJo+M2XX7+QIbETYyc8epbLDpmrGoV/Xsq/wWhioNWlcGQNiz1nFoBJzCH2oLICD2cpE7UkgdmezNtmX5+lBDllcxT9atLUV9955/2//W/T771y+uLVxydpsRs2g9HIwoQKLqcdaQojq3v1pNA0lgUQuO3OmRFC3GiPdeF7HJF7SHt76fS9THdvc+27Eu3kTlD2Vu6wrR5QSpiOmcoOysBFHWjXM5oczY5xcay3wNvTl1957Q0WL6qy14snTwGQULRycrMUqEUz9mgv4BZpVnIAAcbEIHjmNrmZITP7M98n7h70kh6AFM3fCpP5AQed921vhV+c9rVdfIZD/yoqLrs3RE4cnMRbdSlvL3nS6YX1w+XaKqoikbMxEx/gSPvrj9+sROLu91oe7efHRCR1IiYNsWZozqVJUBAYwsE5m2o93frw/Xf+9/+j+tvvffbqzZNQCaNRnSosgCn3HGhKoG1Bm1CFUGWSCC5nn3BT0pryBLkRXZwIHCbwABciJmZqNWWitk3T0JYnYU7OoW3cJANnYlKGkZu7GbkRGzmK1GmRfQUms1oAMbjrBG6uvdAR2h29/o/fP88WSnr+T/987fCxPEWZB0be2pBxiIxAatzkGGITWfNYdErUdetxDTiKqHe6IcVYEkPuquK2KTtmOMucB0BkPCf6OCTPpamy2bxj5qB696/vOky6o6Si5CIzkmhqLa5VRS2oEfE83Up27zT1RlnU0jmUYj8l8/FIUh2loOrKo59+4oWvLBx9ZBDCUFNPpacA6rpLQQPdU+7ze6RWDzLz3BsPVzzA4BYggYXU1OFkDvZOyHUaXLh04+//oXjtZ/3r12Q0bEhRiIHnEQ4cME010BAYLkSBqCLpIgCOogAIjNkP7cmSOyaeMxl4Jr8TnNoyIal7rs2MJXZFKmn9BLV1dXIQy1xN0brxUBRn1w5t15O3z73z7rf/dvnosUPf/ONYRCOpU+2QQCwggouIR4xGw9gL4hFwdWSCCgRWEJcAcqrv1Ze957kJscyxSHODpfuvVwfVcT6UMn8dRLA4kVlLDGvNYTTnrJrQOLsQVUwd5rZDS92UzYF55GkCEHghRHF3a8yVmSspNMSm6nQePVUcO8S9KkgonQqX4K6tAp7Lg0iVPTzxAIY7gnokEETJM2kmOLmyD7Zv3vje94b/5W/Xf/bOoe3NHlRL0SIAHJt5d9ndEqhtDCIHibWtOq2+KzlzZs7CKmzcsjKZnOpIGogJQmB3ZPWUtW4o5SAsrpazTRIDIQiYTTzNdaYE2tgcozVpWfhTBQ93ty/98Ps/6XaLovf8175pZchIBYeCxbOl1CRQLAorQkTpYEfOjMzwAMCje5E0msdwrwQg/K7stuU5NqwMipjz7hNkjufxwUtZjKilUhIxM4u4e0Jia4yZRARctCJq7garYYms7Q+//7kIFn2RhWvLOSeykiiScNnVo+vdFz4Vzhz3bkeIKnCHGARyNrMHFJR4eOIBwqYWzCm3vA7zMGNITbe2tt55e/dHP6reePPMztZyVA1IwkyRjTGnq52AIHtdNuCWoZuciOGgwfqCFtFCsBg9FgiRQiEciUTdnVzI4WaadFr7aOSjiU2nlVnlhrrhaUMpI2cEam0Fyff9G355KkxScpN4sH2iG60Ivr31/nf+4eWi111YOvXFp0NZRBdxMjUky3AXkU5BKrGNx8wWAAaaTO7UKBsJB9wjWn43NNN8A8fWMmXOqHS+2/b8B1cDLhxEZp3iDpgJBwoFglAIbl6ruaqatfkYjLmte93/XD4l65p31YZIyu5gQ/SFZXryifKZx+3YmpWRHGFWd4XQA9s3PEwEgxnuyA43uGdSRIlAHk/rCxcnL/8wvvPuoa3NdVHuYsIgQ5U5ZJ5nq0tEhUQ2BCMyVpYmhkkhk1LqwHT6iFelx4hYoKioKCWUJiWz5DrB1MnNlVLjk7ENh7o71PGkHk+aOlVF1SmVJhObjDU3BidmsMxtr3eYWb+I3gyrWh8telOSzVt3Pvrud77T6/3Bsf/lxIkTgdmabFljDEzcwAMEBjgLiwm31UWoGotyVClU4j1nuMdmrX157zeMMK8gQ6ByPqZzQMfZTmqUqFMUMUYCLGUFSILEAhIyY2p5zNawUs6lew/UcQrOPqfUbI5k3vUs6oHM2KdOKcbm6NHi+ef9kZO533OQZ4MBJGBiktB2uj5AYH6IJRJuOR2Am2vDWkA4p3x7s/npz/gHryxdu7bsmcVrtgm5eCgzWD3ND0HCwgoyUnATilGvGi73hiudSa9YWjrEsTARjwFSUChMolFk4lSUgDM7w0kTmq73u7qw4HWt2wMbjlVd61QEcYbXIGT2uWLgQNvtqEQuRYDnbqMnYvkk0861a2/85/9z9Zmn+r//+52jx9wsm8VYFDFqbsjNVBwuTM4z1xh3595CWDnkg1Euw728vX1DzANcAo04z88i6vmwoM7vE7m9sZGSVoGjMLI2mi1rECk5NGbDlCaexkhqTQe2SlRRKIgjYTp/2WmGw5wgTMqoJUxWV/DY2YXPvKBr68rRs1E2M0JQsBBJPGCz++uNh7aU2UHOTAB7YmvEAswGw933Lk1efb3z7ruLu8OKMNY8biwLV+rkOpcG3G5kEqnTNMi0KKb97mRlYbK+XK8t+ELX6+BgYzJnVyYzQqOeycnL4IEZREzggkQoRHT7lLIsrmA42h3s7mzvRGs60uumGFNNTQ2du5YFKBnT6aQbIqhA8q76mW6xqfWt8x+88pf/9Uhnqfd7L3XXVkxoajk6CzGpJTixCyO4i4EhxrFz5NjSY4+LSBP857LYfbuI+ZpAzqzh/o/MiZrO3KfZ6iTcd+wEGu/sMjGZqWkyNdNAKHLazmkj1QQL0B6sgAtCYAR22lMZ/uVBTqwyDcziDAZRvbCQz56Kzz4Tnnym6iybuqcMM2Np2ISZiYKyHoTd/Orx8BIM9WAAMwSZqWHvwCcbW7feeHf6s3eObt5aoBCImtpBMVJg4swmB3SQOLy2uhNHi53hysJ4dSktLVq/T51upDLJjK7SflTZnd3JDQZJTsY+U3UnA5gixYLFubvki03d2ZgIOHiqJ1yHOJEI8aZOc8AsgrOnpGkUy24s4QhKywmPCg9L/P2P3vjR6pGF/sLjX3xRlvvTnFPjC6EU9QkbB8AdWcmJpEOxWDp5Oj7zHJdx4tOfX8p7KgHCrQ78/W7JfOI0wYr5UVnmwsCW87S8M51M6vEkZbcoxARz5HRV602kVecTHpadjwGHGF0256w09zvGoBJFEwO7l00ShLC6Wjz1uDz3aT9+uiOSm6yqzmyBajamXHoIzoZ5nkG/1niIS9lgBAEIJq0BgE43Njffv8jXrnatrqIQMVvR404IhXpu0ECNjO9Rjp+NFoTXhGaxmKwtjk6sjg8ta9VjK+IUPGgGXTFpzWpImASIQAFmeE9dsiWgIU8EBSuBSAhoGKgqOXykv9RLWxvNzZu7tzcC0IklnHPebRtaaJ+RQkSAq9pk2O12Rhx2knW4LCV2PR9yf3Zt+Yfj9PYPftw5vBqPrp5ZfiaUpScjYk+Nlg4mqCNrSwagAv0jRzpPPLE12RmOZwz7X/CkcqJ5CQaDivmSX8jzuSIyv0Nm/XBgThubw5xrzRICzFPd1NP6hmC3KhZzXMrxtPJJtx6yo25IjZzn8TVBBYWmiNk01ilyKFZW/NHT9Mhp60lUFMYKyewmSOzsFsyCP6hw/G9cIrnXI/XeP71TJHhpNczLXK6GavfCBzf+7ttLb/79+ujWIvVICQFFjwC16RRwdhi4cS6dOzFMvdlNE7AvxrK0gMauHD26cXzxzqNrk7XFIJ1eHYsxm/FIOBBG45FH7/TLEEgnY0voSFeyx4KdKcHGQtMiWr8rvX7odqUsy85Sr1gsLcBsSmkyvDN65y38+M3O+1c7w2GJchDHtU/XwyJq2XZCt1xg0M5OqrpwqtQAh4+zUwU/aTic8fU4fXl8+dVzP8T3V74VFh5/+qlpwB0dlUELL0IWI6JO0XWYa8st169/Tu98wG98VFUVM6WsqhpEWASg7JbyHEMq5jl1Cbgj79v6zZ4K7ibIwk1qALQs4KZpiCiEkHM+tLx6pLe4IfHacDAc50Gdrg+bHY+3Jtbp8tNleMLt6TQ57jkGTAXZYSkWhLLSlKxu3MAcAgciqHvDCvblDmgYfHdlsTj7aPjG1+LvfUWPHh8NnUuj6AgiBHaUijZyZXKiFkD5OYexfYvegy1mHqoORuvMrgp3FXPl6a3b9bWb1fagysYthET3SITPlIPIicQBMycXkCgxsQcZLhaTxf60322KQimIE9QNrmSNYFo3sShiyexmdUMKc4xSEyjeqic5siz0q/W1Q8ePLh472lldlbJykXEMHqs+lZ4haBYKk88+kR85vvntfww/eWtpayQhVCrQpABBkLMJQiF+V1D3bgmXgQhad3Qn9a07dy6fP3/hxPnjx0/HQ90uVwE1GdzcmPY8dLwlTHhVFd0Fl05TWytCBJBmZzYiEqfOnNBr5knr+/4VEQrZ/y3fW8szAqwLxAQOYsCp8IKZdao6ToNIoSxoeT0cmQwa3Wx2NnM9SJNuf+lkyadScyTbsmkHFhy5ZUpmBHIXczeAmDmwCBMR3MQtwyZhGmII07WldOZ0+NTj5ZlT1u2FyR4H6L71+b1P8y84TP+a4+EhGOaes2Y3QSa34WD64Yd2+Vq1MykP3N0RkTjUsrIVJGUmct7uxtuH+sPFlWm/UilhTOZmmmE58P/P3Zt1SVYd6YKfme19znH38Jgj5xFIxkQgBoEGJBCSSreq7u1avVZ3vfW/uo/dL7dXda2qW1UqCdAskEAzIEgxz+RIzjG6+zl7m1k/HI/IYIiQSCXcouwFj8Sns4/53jZ89n1NdG0sxoIAG+UAL4pOA7ucUlEGXVgoFmand+6Y2bOnv2tnOT2JogSLgwaSc8EeepTJckMdjrsmuZRF9iWt6ferfUfHctKUiYKTN40G55KxxcQ1AQuKPZmXL61cPH785VdfWti7/5bpO8ogkWMzdlNs3J4xtwVRXNgx2rNvsLbWpIaIRdjMCWDhwLLVDD0xh7jlLZNio7q3+cgEAGOKIsTcUocJc7s9VzkTl1IUHENv6dLpX/789Scer3OaCDxX6GG36xvdoT4JD+QABSdWUCYna8R8rH/GkUjGdMyi5DkmbjxWk3rwevv8nbjtVp5fEOYI20YP9i+0a1fBUKNsWaGBjS0tXWzefF2On+qu1CW2E6BgEANJs7JXJNFl6OF8VZ3cNU29mWEnpMBQNnVVd0ISqwMDVLvaKBemIZbMZc1p1I3Fzp1Tt908uX/v1ML8xNysdHsWJGUzgMHMTWQV4hijEteuGvvh8PWTGVgZDE+dDqdOd4wTIUMjCbIZaZIt2fzIsZBxXRHPrY4uLy6dPPHOM8eendm9cGjvLoBbvt3Wm1vsSuvH7t696Qaa7MrqWt00TCQi5gaQMCOIbRHaMnMoPvrLEAjCm/6gzQ+MPBZFK5UJR4yRmN2sI9LNgZUz09p7Z9ZefuXkoJ433z9R7qZ8fe2Hs/XgHRmzQWI8gwMDZQM5CbMQxB2qaLEvIJRkVMjuvcXdd9v999N1N6hU3CQKwDb9n23t08NgMBxOBgGxW27On8Fbb3XPXeg1KRayZR+thQqRmxoMDHaOq0Vxrt97b3a6W01khpKxuqonODE17A2ZSBg2NdRLiQpeHTWrQboH9i/ccvP0rbeWc3NSFqkoGhFiUXFyGKgDiKbYGMh7FDkZFSzVdO/Qjf75S6vPv7B0/sLUaBiKMqmSm5A3sMZSscUNIGDGdL/Ft4dZ6zxYuvzSKy/uP7D/8M4daHmK2pB1iocAACAASURBVF60u5m1YLjWp2nvrs7OuUKzbiI4ZGZe1/j76I9bf/mHzYGNOfMrMK91JJ21yBBzcRORGKIDTV1LDJTZGjt/9vyx9868ffZsJ5R7YDeAD2Q7pLrgIHYITMjWR4UhUJBT4HYncnfNcKibuZmQh4Jnd/Lnj4avfEFvu4368z7KqW50QqLztdGE+5BduwoGASyCIISmXm1OHQ8nT0ysrZYAeMtBFwbISdlUXAxGtFLIuX7n3OTEUmfCy+BqribqZG5EYGRA1YncoRZjYllrmiXTamHvnjvu2Hv0tmrHbhUZNk1TZw4oO6EQYodlCITdoQZkSCwh5mKM3OnRgQPxrs9dfOnVtbXhZORoIwJalk9r0lZ7CcG7lKdrm8++Wjd1PVq8eOG1l17+xn1fDJ2S+Eoeszl3IaIabEVZhH4AqauqioiQEEBunD76t09Ewluw7wF5vfN+JbBYf9QWUBQGQmBhcFvaY6VBsOXByh9eef7xHzx69uWX7pyZvWF58fBwcIh8AWC4MRohY2IDAc5uAUbEHNiJTN3N1BSuIGNWCaNqqn/0FvnaF/zOW2x2LjjFzA3zUDzkT8aRrykGA9wCfMzz6urgxNvV2TMzmiUiifMWhwM7BBgFGFForCE715OT891L05MNVSM3qFLWlpFWhJlh7t54pxsoojGMcj0CZG527513HLzrrjg3Bw4CdIqScnICZSNmqCNnJcvkJjDPrpkkiAQjSmXErh3FHXf4755bu7Q0mVJpuSbLTICHlLc8FQksWgxHUxLK5bUwaooJOnvi5IVz52b27ghFKetg3A1SlvZ10lgAVxWBYMo5W4jCLcRPWbfs12y5YTuBaBP+dn0/bp3ZkrJw5OjulszJmLlblgCWl86+/twzz37/e2eeevzA6ui+2fk9xLuVZlNmIUROLUpGqTAnhRHlACcSC0RG1FJCZyWyWKAsrddfPnB99/576f67bO8OgAsDCimkKxhd3Zb8KYM8va2vUfJmeXnt+PH+5YsT7IOIhqy7xYQAOQReiwlzHNoq5TNdOjnfXelPhCaojTwpmRuzFoFb3YtGUVvoUiaspGHj1Nu58/Ddd930lS/GHQtrTkXKkVgid0OhrjmnnD0yx0Ic3JArI3lW1U5onQcVRZ2dq2+4YeKeO9Prb+P4e1BxoZF4qdLV0Gzhyg7UknqlzCqH1QFW18o5Hywu/eHZZ+9d+PpM1eGWREh1g7m55d6tikhGUG2FJMQdqQELiJR9FLfCwkO2pt0Yly3Wy0Sbn5cIIbCDFEhJ3dGJpQKN5pd++dST//SP7zz+xN4zF+6f6F938dzCKM2EwGZursbJkBVROSYTJwuu7EZEzgyQubk5uRdBep3Qnwo79xRf/yZ96T4/fCBwpdZk46KIcEylqJ/QnnwtXRkOOBtcLa8O64sXeLgGoRQwcutukfcRHOaJnJkYSLDFEpf7RaqqqVVWG0GN3JUCU2AhMwpGkqleGxh7MqWJ3vzh/YfvOFrtXMjMa4OG3UXMM5RhcGdjhpOBQR5KiFse5VwVsQOiphkNRw5CFX1mdurmG9emp/Ibp4OLBapJAxFL3AZb1lCamZ6eXtNSzQbDPBii4N8/88zRh78yTe+rK7UPzIyZcxQQq2tqEgmxiJsRKbMIUXeLU8Btuz7I+3by9YTvSolZ1cw1JXKryirAz5079+vf/Ob5//nP5371613LK7d3i5s8702pMh+M6rKakBBUVRVkFDIkE8iZPARPm3EjRMQsRQy9TpzqY9/uHQ9/3Y/s1qpTws19yHkNPmESR8zVX8SmtY19bLn2dpCkzcTb+9QaJTHlVMCaQff82YW3zvc8Zs5VlsJbcYYPGLVFIgN2DJHdT4Twxuzs2bl9jczk2uvo5EISyEHEnMGmClNyKhkKKcsVox37Dt9w/1emDl7fQEbDppDAPKaO4nHhpM29YQ5yd1gATXDJrf4XS6g6DngI1J1ePXDD0ufvGb555rrli12vC3M3yca0VeLqCE2ANDPs+0yXRoNLngedcOLi+UuvvbVwxwR3OhujN+9bN8DNAsASxu62HgTztmfplgzEBDAxkZtpVgYJ8xhh584pk8TslJktcB3o8oWLv33sR79+5Pvh+d/dcPHyfuNbiA859wBEy+Ir0gRYFG4B/cxIoT3pzZNzndgRJ8sV1VFKU+gW2h9196x98Z7w3x6u7rjFq0gmBgJQwEPLY1K2Y1FbuhY2VI7Wc+WNauY1DjB8PKB1xa7EMcbk5OTuDVZX49JADBkQJ/aPwMdsiBIZU0ggx4rwYlUNq65SoYYcjLTN+YlB7jA1IhgIguhSJwu9/sK+A/N793Gnawbm9dFs2nzCrnPBrGPPCAjEV1rTQQgAs0lEf9J27VybnKjXLhWagyGBMzFvza8szq5aELpORUqeUyYfjUbnTpw6fNNNRafTPo2Z11m+gFb5sX05vf+8+pOdga23NFVtx0EcLXc/OVyzas5FKNyIicogjdnFE6ef/dGPnvnX79Yvv753cemg0R7IvFNvXU1LwK5qZEQ8vsmEsYSTtzhUNJSGwzoUPF314dXK9Gxz9Mb4lfs7d92FiS5tItRnUJss6Z9diPtAYfzT5YwjIoab5bppBoM8qj2rt0IJ25qRO6GG10QNUxLODCXPY3knELzdX4nA40FQJNBaXe/Yv2ffoUOdib65BwksaBrdrJT4McydmEK3KmanmqmJfD5YbmW7sT0rHBPBWyYCIGerGzKznM+cPjUaDScwvfGD3xxjbGwE19CESNttjMiJFO6AkitDwYEpMnzUXDr+zh+f/Pnv/uH/W3vm2HVU3MK8i+I0MGHr9E3mMMQWtxLwPiDquneZeILWqZkvJkOcHE5OLX/+VvkvX5q47y6ZnP8LZBiu3q4h9L4ljLc8GtUrqzocIWcP7mE7SLUD7Tk/cgwYI+FaOAmre3Yz+Nh94XxFV2Hs30Ozud27d+3fj7LMqiJBgLZ6dpVXICQTnXJhVuem63dDMyJ2GPv2skVEDjUCC4NVkXMkZvIzp0+vra3NvX+wV1VbVxaRa+7KQYJ7bn/0DiRTJ6IgEmWgVAnSyvDMqy8//8RPj33/sbXf/fa64eiu7sIh5j5JdI9k5mCHggAJLjQGVmEsitLuI8QEEKwgSNWBVN6b0qO3Ft9+UB5+IO89TNtAqj9Ju5Z1ZSIgQ0d1Wh34qCHVFiiHbc5NghMSfAQfgIbMtUhiMtXspuCW2a0dnlwfSAWAlLOX5czu3f25ObhnUwEseyEE8EeF5n/y64OJuFuFhRmana5jaEAFyN2Jsd37ubkbI0QOwTwYQlGkslhavLy6uqqqG67MzDnnP7O0dDVGYGYmBnNWzTk7IXAEiAVrw9HJPz733A8efeGH369f+uONOd8/MXkj0RSU3Aye4TV7S6ZHTOLMbHAzWKvEBgbGo+0UjCsTLburE1N6y/Xdb31t9mtfq/deN0AxUpv+VKgIP2DXjiqc283SkJINh5JzbA9T2p6pw9vqR+1eAyMOSYIStRF/5rjOpN3mcLSOT8agaRYWFiZ37ECn05ibk5nXo1Gv6lwdww27w0FF5Jkpm+7XIRgYrr71ENv4AszIQbDoKEElkcRoVTeNhoO1tZRSjHGz417zzXjD1DybhhDacwzuDBZHTilx88rTv3n6X/717Z/+RN59+ybHndNThz1MD+q2s6FAIspERszgAKY2L1HdFCO3JM7ErbJEkhR6o5tvDH/3rfDw12TXwbKO2SkVYZ1c5FO1a/nzaSMJysZNKswLEiVTmG+NwGjpgcwsmdeghpCJDERurqoUaQM9TLArQTOtpHRodracnFJ4o4lCdDXXvCFK8vG/vUNhga3X8W43cQBJcHOzPzEs5UYgdg/uEQjuQiiiYGiDwVpKqc3Ex/1qIhF5X/537SybttMDUYQNFccYI9xZ829/+v2n//27J3/688mTp28ri1sm+7vg/eEInsxyIldihRiYiNHKLzIIzpkMreaxkbezOUxBMpVNd7o5vH/q7/6W/9s31mZ2VAMujSd7tMbYOkn+BO1ayrW3EMIAF0PJwkFa2hTyLTdmGgudejbPDgU7sVM7xaBO5gATGYjbSoaPOd9q82pqKnS7LoGZmIWJq6Ia1ymuwk/MYWbBNEiOEUTMEuCaksO2gUMJcWAWdzZnA9S0SaZK7sPhKKXUNkc2EBQbJbmP/xW3NYJISJrbclloSZrqvHzx4h+fP/bk//N/rz137NDZy7d6cbOVC2u5IhMSBGssK5yconMJgbVKnglQuBCExrMr42EtYiLmem5m5eg9/S/fW3374dHc3qaGOJeBAGyl3fBJ2zXclcdEDkIUgEgCESb1P6Xo0mrYu3sriergDf9u1VDdNyp3vkGWpYTQ6XAMFKSVy2CAi6jDGgVji4Gi7cwcWdXciEzYQdwqT7SKxdsg+xjExNnJncw8aR7VGSZmTVPnnDe3rDcQRZ9IrNxChyWEVmC2SYtnz//6qV/+6z/9c/HC03svLd+s8XYudtcOXWMhVGU20hY94xJd2BlujpxRZyg4Eo+nAjdIDsZa5Lt3hG99ufra/c3+PbmRPkXqYM01aCpZdJv1+sTsI1x5GwKvrWBZAJDVAurgGtCVwCmDbNWVNJT0EXlYuyxMFImdPJHVSGDPOQ1rDsQhxPY1BF+nuTdqsfqEOtVVJxRR2NUAb9NCARVylSx6FMFRKJE2BYyIdDwbYIBiKyIVIHsIzoVbFxAxj9ZlluQX2FaGg408b2MBNzbpq/mOBs7sQghIrlkzAwWLgGG4jGGPQjQGIeXhO8dff+bHP37h379fPvfyA766R2gno+c5sYE8EEQz3NWVzIMLC0Mi2EaqrkUBsBVG0YpmJQ3csbPsgycHUzuXj97E3/xq76GHsHsnqIit9DzDbcxgfXVXt3lAaZOSkH9ArXkru3ZTJObu3ipHlzFm1Qxv4JUTg+wjat1jXqwW7qWeDdk8a04pBxMWcZito0+cnMbMWXACGTITWjnzlmvWmdUNgXF1jkIAg5x8NPLRUNzUPZuCXHi7Y8VdzBGcI5iFEKkKgRtvGOlDJENE1N6Yqwswxh0jgrq1mvCupqoCQAKccp0KQkrDV995+amfPPb8d77TOfbafejdE6UPYzc3qwmB256+kkPdYWamQhnCI8GQUCAEEyg3rkNRitQjQtXRud3prnvCNx+qHrgv7tvngGiLGlRyRAJoezGqP8uubn0+wpX/zHfZzH3o7sICYndiFipKC8EbFCIB2+FTrY3IgogiEFnTWE5Ape7JTWwThGAsPtQySHoIYVSP6ro2MxJu9++syo6r6z4oYA53TYO1tcVLUznBcs6ZiWKIzTYkmUB77BqRsUBCSxoaWGKMH3mOXXWg7AQqAcBzDixRCiVLTVrTVAbpoUw+WlxbfOu1F3/548eO/fCx8PJrt3pxa1VM5FQ4qA3gHBsxgxOIxYmTkiOr6cgIZDxmAHSQk2GymCxjb7Br19L9dxbf+urMF+7lXbs/tdTuz7yhV+/KH3iJMBOxG7JE73WsU3m9UlCI2JqCAWinwySGmLhk8npkTQ3vZXeYlj5uTpC3HJNjvlkCCctgbW04HI5/wQ5HexRB5Goq9AbPRIDpysrg3LmZ1MBUNVNgcIBtRaLUBvtkREqsIoiFg4WoYOlUVdsK2bykf+bQ5UeakyllBglAanAKLBbQIJlr12Nt+upLLzz+r//02o9+OHXi1L2xur0oJ1eXu3LlTrepCK0TVBehBDGZJUsNZWMqiAoApi5edIoidLNXi9M77WsPhL/9Ku7+3MrsfAEUn5gvX93ifGw40Wb0xeaWbEtHxUYUC5+a9Mm+L12K7OLYhtfOAHVEkUK4Q5DRCMOR55wF6hqc2zQDbRN77MttKujLyys5ZxG28clgIQTbZoB+eyOCIJr64lJ9/jzXI4Gtq6z9idc5QZkaZg2RytKZGVyG0O12Y4wby7W5JHd139FgyUfRJXKEErKDLUTpBFG41vn3v3zyZ//4D+/94snD5y/dX0zdFkKvWTUblKhkPMoErDtxm49HE2IyAUQiwIwOhNjBsMK4YJJuM7dn+YH7pv6P/zp55x2p11nSNPJ6nrpXdxVb2Qdm+Df+8QNQ763s46V9mze8D34YOTkYRGVpM5MyP4Mzp9gz8JGwuLGNWegdHXDPKTY1DQZeN1YGh6d1buoNCu7WmwHkrJcXL9d13aowMHPT5KooKPwZiJyPMmZEgAYjPXdBLi8WTR0JFMSArLpNdY/IjViZMweLJRWVEzGoE2Si240xfug3/8E//3wjIiFeGwwnogQqLDXqKhRipKZe+9XjP//n//7fLz/5m3sSfS1MHBmmSV3iji1FZ13fiTd0ZzfAVsPcejRHLwLJWE9AEAoKfpG5npue/JuHDvxff18fvg7c6TQkTonsU1BM2OzWf5JO/CO+zjZlig9vJxuDxErGDjB7WdjMpOxasFeip6RjBqstSfsY5Fk7hJ55JykNRzoYeOg5UR5riRJdSfnW/QC4dPHS0tJSzhlXuNKIiVtK/D+1Sh+6asAbWzv53vLrb3ZWhz3VyHDiNhvdYgqpfWGrPcy53ZWL0sDkKJm7nU4IYWPRWujFX1KGYwcT51A6xBwUYyRBHl08cfzJJ37y6P/7P+StE/c53evhulGasQYREGGI27rE1oY3r1sQcRuXHkQJSVOTU6isV9n0NI4ckAe/gG9/EzdcX8qEKmBWeFF8Yg29zcf++659m+pZeyEf/qd2I9nmYz7Sp7MpOQWJXpY2NVHsmPWyyPWqQp0obDUbR8zEXo86zF33rrsMRzoYotfxIOMfwVgJAuQbUxIQkYsXL546dWplZXlqbs5AEiRrDn/qgre8NHNdWX3vldfOvfDKwWHdc4/kDROxkALYZuh9LNKTiFQCQtHC3jZi5U3P+4tryQ7O3AllcsmOGIhHo7Nvvfq7x3/0i+/9O37/+zu6M5/jcNh1JjCipNw0gzQ5OZk05Y/KXAlAGdwsQ4UhIFesKg2nerJ/bzh6tPvgl6uHv7Cyb/elupktIQw1FTi2+XFfO9vAxP85+c/Hc+UW2PUBP24/LJkSRISNgnWrMNVHjOqWYUTbbPNgsKdclLE0qxicstUJ6iTUBtnrMcX6XDLQuvKlS4unT59eXFqanpsnQJgHa4NuWV1lJGqeVwZn33j73Otv3tRoZwzWhzMLiW2tjTD+csRG7CwIoe3XBJYiFhsIuGsCISInaGCRDCCgyXbijdd+++h3n/nxYytvvXmX0eeUjjj6nhrXzGwlBY9YbnIB5zbjwObMD0CCjZAaSyVTDCVF8aLgfXur228N3344PPhV3r3AjGFqEnJUZmBYkvOYWOja2kfeu40u6fav/XgBxgdmezZ/WLQQiAEwSZya4/03NDO7w+XLYktEDhTty8jXj7i2w8xObAmmlnqEHdbMD2xxKSz3K52ZqgwJ5kQiHJypfRELYhCAwe+8+faJt989fOg6M3VAmAzjavRHHiBt4qNsmR3g4HC1liEz59HFM29deP7ZidOnZ0zYLbs2CopwibaO79toN26UZYY0YO6vSjGcmJSpyV4MOY0S6dTCrqrb3ZxRfBB9v9UiE5sTTJkJjFZqUAyiRpmAAIYFLDfDE6+9/Mwj//7Cv/2bv/bGnd3eA6GzI+VJhZCNXFO2EGMIVI+aUEUlz2quzoYCIiIKb1yVm8YaaBaO8Jg6Hew/VHz1S/KV++S+u7F3n7oXal6yuQMGJue/TPd0C/tAnaf1sXbRrtKVt1nrzW/3AW8uqWSHm0XmOLWAI7fl/UfCmVPl8DIIaryuzNRKFYw1h8gNBETKpH3hvU0+PxpdWNTLvTDqhgqFsqmQQ8hZEtzZIjlzM2o6Zff08VMvPffCbbfcNjE1CeZOVSnc85Vq1wc6xlCDEzGpKcgiBQKSmhGtXD7/zvO/XDv29JHhaL4oyJDcjSCpcTcj3jSOMlaQb3+WQ/NuDJelXJmdKxYWJoSGa2sjol3X39Dt9zfP9rWB8sYabrXOrZQ3O5G5EpTgIOYxLKJt5eTcvPHqsd888r03Hnm0evHVOxN/IZZH8oCQWwraArEwoHbA0QmRnNyymamJcmSCBCNNpIocgA7FkjpaTqzu2y/feDj+9bf1c0e9PyGqAAI4gEHQAGCd6O0Tg/htzo839qNPjzNOCW7GqoEpC8mO6XBol73Wp1HJqi0Pw2ak47o6KhFRiNHJQNSNPOUy7dRdGTbnL9PkjrITVMTMLRkrQlu6HtWpSe4OpldefeWXT/3yoW883JnouZoIU4wEahueOee2dRxCYGY1FVChRbfxnBvuEiRYSqPlwfmXXz3xxFPx4qXZKlRFAaeKRJygmd1A70N6+ibq0W4Ch2pNKE9U3K0s5QhOxHv2Hyir6ipWkt0FxEyoG3ML3egcYA4WVNyoplE69forL373sbM/+tmud88e7UzdVsmuut7uVo8yEUSYShGwOxObkhNx4dQxCaHy/tTykQOjh++f/7v/Eq+7GSo6rFH9r4AeX5VdS/IAdavMQhQF0565cOt16dgOP38CowFzC7kA2vmisbzeeGuTGIkd6j32+eC7nS6uDJt0AeUMBzaCOWAQlkJCNqubpqg6Zm7kJ44f//Wvf33TLTffdOstWdVUOYQ2Ot9AVLYF3RACOMANIwOVoSybZkgdZreLb7z11g8eHz319J61wc5OBSJkgsQIgYnnhkiBK9HFhgoOO/WoWHJZquJgorQikFoAzc4v7D6wvyivBiVGZAyDOeoURWCiTMnRarZdQv3G73//zL/++6mfPDH3zomjancUcb+rpEG9ZY4DuLTDJc6eXV2TN56FTGgqTKLs5JnZdPTW8M0vd771xdGR6xxVXKnZ5dMouV0j+3hfdJtNXt2JrG0oEFOa6fmth9LBffWrr1fLta/nbmO9dV5/4CAHMcMNqpXRDo4HHYOUvFk9ffES+ySm+lxEYmQztwxyDiiqsqkbEda6fvedd5742eM7duyYmZ8fDQfMwvHK4EYIIaXU1sKc2dyQM4QReVSJwFbPnHzzx49f/PHPD19aOdgrZiNsNKwbuEggjkrsxFd8eONCMA6e4/S5Oq3u7g16pcMLDi5002239GdmtlJP234ljSwjiRuVAbGCUIInhhDqevX1l5//yT//4zv/89EjF1furzo3ic2MVigPEZlo60MgFgQzb0w1OIk6KQIJSYTG0Y6F5S/eKX/zzamvPUBzu7RJtY5GXS+liFtP+n9yAcbVfda1BHlSS+Bkpq61SDywx284NHxuB1ZWI5K3NYEr81Hr0hsKZ8qqqUniMh3jAQnmTk19+sJ7zg13QuxEC1LXqrmJkcteVacmaS6kKIpidXnlF0880Z+Y+MY3v7mwsEASNobO23ShneNwd8uJHR5lbW1pjQidaum9t95+7NHT3//R/DsnbuI4H4VslHJKJjBlMh8P4L7/Uq9cM0DlWVJdmAtTU7XD3Krp/nW33Vq2tZSPX7UweIJLoDIWIFrNWcUdurK4+OaxY7/8zr8s/ebp/UvLR1luYJq3DNSj4KHQ7QqGQZKqmgVQlyOKCBGEAlV1oT/Z3HNb8bcP80NfGc7t6WdIXRYlLUpKoG02+v9ods12ZTGidqxOjZIps8zOhJtv0JuP5JXlcPn8OhxoLOo7rmC4w0gJyVRVA9BzZybEAMvHLS0tLa4GUleamIpBiKKy1pZF0bIktFCxy5cu//RHP66K8v7775/fuydU5UZ2tUF4YGbBmAlUiHAHNjh/4tVXHn3k7HcenXn5rUNNnicKqq4jEIoQYdLioM2cN4XKG/0FJzjohNDSzBTNzXYnpjxnYswc3Du7f0/kuD2P+9aLSQ7KABMbIQsFxtqFi6//7re/f+TR8z/5yY610Y1lcaPzrKdgTQ5Igjqgp7QV3MUICQZHYAFHoFAOg96ETU8vfenOzjce6N1zD8/uUsBb/5VYwtb7Uh/bGf6X2DXblQuwkzspMUqSpIRur3PjDemu2+ncGR9chjlcSQ0KmMEMLTyT2MYjKCxOhZu4OcGj3M389qh+58KFxaw+78XkdAyxdm9GozJOtd1kdy/LsojxzKnTv3rqqXo4PHrv3XsPHuz3++1m3DILrlO9M4eQzbxpBu8ef+uHj7736CMTf3z54LDexYVkRpNrSyHG4GFcbBBVzcHGAAZfjy5anzHC8Ymi2bvTJyYihYkYyrn+nluPxNlJGdcer6bvGIxMKburENzXzp9/9+lnXnzkB+/9+Gd7T53eG8vrYrWT0FUVuFNkEltnB/9Iy5phHsCBBCwjDpd6vdGh/XL9Yf67b1V339OZ3oksZtAICMi9Yxv0FZ8Nu4aktHCggQY34dhxbihU+/eWn7uleekFf+MVmJN5O0JH5sg2logRgjOxSKR2NLTQ1CXMkd9iiI6mTs3iypoHVY6TE2UgV4ROILLxOIYjFgLzUydODtcG7y1evvWOzx05cmTnzp2tN7e9Inc3Qs557fLiuddef+Mnj5967LHZt988oro3WlWPslUwzUCg8awxMUwsWQooybFZ87TdlY3p0lzPds9riDZsepP93YcP7r75eg0F8qY+xMdayYQiE6RIzuYYLa++/vQfXvje90/+/Fcz7128nWXGsaCphzFeInp0Q6DtRuo8ZzYLTEySQ1jpVkv7d8pX7up86V7+0heLmT1IwFCJ3PqhBiJcsmzwO30m7JqS0rqbuzqEOIAUhP4UHbkh3HZL89prdO6SLC5CsyKBjJng7OtlgcAiEGlbbGri1oPvc2cRZaemPnnp4lrd6HBGJvudUgjOQhzY4TlnZczOTo5WB8sXzx/73dOXLly8+N65Q0eun1uYn5qZmZqcZGIAK8uLF947/d4LL777sycv/+ypncdPHY18qFtVDuOk4mi/lbOquTtDzM0dpPDALq1aFIikkTAIvBJZdy1gqp8JYJpcWNh/5Ma5Wu4LcQAAIABJREFUHbvQTljJlqfwWLICvs5b2/6ruTtlh0YU7IJ6NDrx4rFjjz767o9+Mnn23O1l50bl0r3rFszHIxvO0UiIpOTcNOrOzARCe7gJOUNzZiZjbpjrTqc5fKD88r29b39j5u676s48t1NnyMYAhAFux8G2udv/waKLa0oeQA5QhdJ5zFgd1BQRB673b/0VDxN+8CSfusQ20CpBmKTjqNSc84gdZMStaqQb3Dh7ZT5RxgnohOY5zW/Ug3dHaxcGK6PlGe9NUiyoDImggagiJxjVU/2ipFJzWHz75C9Pn/nDc8/uP3LdjbfctGfnrhIhD+ozb7385m9+cfbJp8oXXrpb+baqN5lyXKWi00eXhvUSQEIdVVJue4MZmaKVaMgLyZUHc04M6minf2aq806/qPYfXBNG5P6BPbvu+dzC9TcVNIFsCEosWx35akgpM7wseIy2JIeqaRKUKGSRbBWD028//9x3/+H8Y4/sfufUTZ3OTVLuqcdbr4PSOK5WMIQYZY8Gg2QaizISw9zIrJQ6gkHOYQQZFFWzf2/xzQd3/Z//e7zhFmjoKAhqAvQCEQXz0IIReNtI+T+eXfuq4Yc1UcKuXeHeuy6cPZsvnJw/2ZSJcrBaFJTEx4ngOAUEgciZXNjZPVjJYa90Jojm1XZofj3puxfOX7xw3tZWvFt6t8REiW6lRTGQUHtiRylZ1UbD5vLiexfeef3tp34xQRKH2Qf16jtv2ol3dqvdVk0c7U8tuKXFlbXBcCU1sSzK9RLeeoO9LVUYg9ANw3rNzctOF2VcVTvt9VJncmLf3lG3k1LqTE3tOXBw9759Ra/TnjLYFpQoDAoBY+plI+Yx13pkqCADg/ry6bef+7fvv/y9H+88c/G2qbkDMYTB2lZvqKZ68cKIXAtBAJEXIgwy1dw0s9N7dJBHRamfu6n3Nw8tfPNh7L8OKsvshfsHKHA/Uw58xT6RAvgG8nPs01PTdvSWZrhUD5fzLyicPx8wHFGG1pwI4z6gAePqrTM5scNrsqheZVTgKcgsxXnmnchnvbl09uKQeRh5UMqwkLoQDWLMIC5cybPnTE1T5KzJVDHjoQ++WX0fdacqmhWfWFtptFFXLoVYKBALt4xp45KxtaSLDvbc04LIs48G9SDSpYn+4sLMaNeOPDU1YO7Mzx247fYjn//8xN69BkqaihD/BD2XQwjGpGrqGoUdMDjB3TUN8+rZ0y997wcv/cO/Tb5x6tZQXA+ZrTXollIeDtQOjWKFWBQzb+pko4aizE7P5JGs9Wfy7TeXf/1g9VdfTYcPR6881VyAIK3q0VaYx8+KXUON6w+iyzegMw1LM7Mwcfc9YThaWRr5sZfD4vkyDUQz+1h/nNvgkuBMY1d2kJmlTKlmpyrG3UXRjbKTyhXEc4xVtxXXxVGzNLIV0IgpEzk4sgXy4FaodnKazDoH2RmqmVgciHHBYVan4VrWxgUxlpFjNtAGFHosRNOyGgAOdR9Z3ZNAHgdOg7IznJ9r9u5p5uYHRcWzU/uP3Hjkjs9N7N4FkWxGzC2hj2wz1egAwC27gpMCgCfNcMuNnn/vzEtPPPHH7zxSvf7OHUX35hjnmtR3k1gkaz56/UFlUaETk7i5ouVMIgFFhOpi6Kd77iz+68PVA18OBw43JCuagmgfAGSD6JY+9OAzZNd4V94cXWw8VhcKvf7cvvLOe85euFQHmnrpjYnT71G9CpjHcTW0Zb0Yz6ESgVBmUWhq5aEDidCMW6/xJumOUhpGTTSCDBAGjpF5UlM3CiJE4hbBFfNE9ElgktFF7ucUNatnQ/IAYgacVKMxtYIpvj5rQWMaOXj7OxMFh6JD3Qmfm0m7djTzC5jf0Zucnr310KGbb53YtRtFCbCE4EwOT6bbUbcY4EBoP4KsndxgtqSrly++/vzvf/u9f1s7duzusrqOeDI3XXIJ23PXITixFILcpMSGEDu5jIMgg1ilL90X/+rB8MB9OHCdE1NCGaKQ05jzG591P/7EY+V2UQITK0iqcs+B6qEv56medSayv4CTp1SHXrqruzqptUPPbS5DRDAmYo2Sg0M8IsWUqpGXjRaBHOQkRmLE6sgOdTeHKRuI3AVcMHcCCpiYQptAQGwbcMJEMGg2OEpmImrUfKN6xuS83nFgLooycxx2eqvT0yvzc/XOnWHvgf7BQ/09u+dv3De7aw86XTgZUbvRptyw8Fay0rhCgIMxStA1EgtkbW3l5AsvvPTTHy4994eDw+HR+R3zg9WYRhQjAE15G4lfAqFuBFY5G8mQ4krVrXfOl4f2x7//64k775RdexJxMpSGSgEWsBqNZxo237LPon2CsfLGn8Lglhel2+/fdKv2+xQ6jRS5Ku38mVKXPZs3Suaw1psJQk4EY2N2EoO6GhysFFhQhA41bgY39wSndhybSIhY3dQANyKLRGP5S7OckpYBIaRkqizcnv8t/LSNUVvsMoEITMQ8HouVSOXUWre8MDOxMj/X7Nod9h+cuv7G6SNH+nt392Y6iBUowIhBMLiaZw0xbKUkiXXOZgesTXnNhYHB6L3X3375Zz8///NfHFwbfr7q7FftkBt7o0kzE8BbuTKRBUqjQRAJVYekWBK5MDtd3HPH7EMPNF/7YtmfDxpEMYQ5A8pwJA6Eq5pQ/49nnxTu6X3eTDABmRNRwRO+73B6gK1b8cwU/eE5f+ePYIU6SGFObRfQyJmGzuwUVETNDXAnCV5WFAvkNZhaS0/oY0g8iRM7eY5GGI+ztWK2mtWyu9VqjXs2dg4hxBAQkF0TzFVdbcx/SwQmCFFo2wQxSfc428mpUo7s3XHz7TsO3Ti550CxdzdNTTIybJ3JFIBBnCgUntXlw/CNjQXCmIjfrRXURbbFM+eeffLXrz7+5NTxM7dX/VtDmB2NiKxhqpMSSRkLw0fTGDh8wKqkXQkIkstSZ2binUd73/56+NaDOrHALkgaXSVYLWiCBBJGJL8CKvnsbsmfoCtv9mZ3U4aXHJLzMA8K6P595URR9PseaTB8L68MDIOYXbLDjNzZXZ0bsoq4pAAjWIZZA6ojSKheVbgxM3OgQGBXskwwaDSVliy5BRm3BS8ijiU5BSMJIs6twLmxe2Bti7BZQTSmBmcxkSTcMBLxstofLl88t7d78+F9e7507559N0Cq1YJrIAKqJq5hnd+fAzHC6upyp9uVsHWnweFu7WwtAbq2evyVV4794sn6jbduDcWelOaYCI7RyDwXsSqLHohNM8xbMoUNMjc4HLaSh1PdnsTOiGTQm+gdPTr/19/CQw9cmpifbQiWAQOM3UumC0AEzySAx+Dbz7Qff7KuvLE6Okx5lKoycCm5N+Y4HM3sHH1xWg4f4rtvPv/Mc+npP86cODu3tIy1FW4GJh5LiY0CmlsxWaFxI0obDJoyoOUHJRoLDghR0UafbM7ubmOIMV9h6iBnYjJo2tzjdbAC7NrxSFSxIExAOuDwtudX0+htHb6Zl98erfQXZ2aWRhdX6xlDp1P03GiwssLcqToGWmtqBqqiJADmE/3Jj4wvxlMtSMhZXCTGy01dlvHsqdd++y//o/vML7+ch/cHY7eR58YhRWSP7NB6jaJwr9TlYdEAEkDUmJrmYBYtTcF7U16jfLu/o77vSzv//n+b+Np96PV2whDgzrpRdDPMj1meWpmbz7YTt/ZpAKupCByZWeCOpjFrYlmUVEossBDxhc7BXYdGB2+onz924eVX8/F3adFiToVStTUWZx3dcGUn2bgfLeoO62Cj8dPd3//0DxojEnXqgperog7Fmvn5pjk+at6phxdc00y3PzvpsXzxpVcHOZw5deHW22/fc/BA1a0saRvdhBigpqaBBW3MgK2jZXWQIIQMVGXRDBaff/yJcy++ON/khaLkPKRNc4SbXmUYpOCEwCBvSBM7FQKOTEUvrwwSzs93w123zXz9/plbj8RO1+E+qL0oP3Dtn/U9+MP2abiyCxnYAcoUNPSI2eJYoKSIaU8/Ts1ZUbxz9vSZ114Ub+aFZyxUda62ztZ5Y35vXTnuivqLb+Di1/lLWoy8f5AC4n1vaEG9c1nteM7HtTmvfkl5WeJqb7IJgsp8YoLK7spa/ebrby0vrp0/f/HzX7rnxqO3lbEwVYV+oNHbNE0oCt4iVlYOAJEw4OLN5Tdff+6RRzrvHj9scYGY1mcHPwDadDU0xjEgcIIlV2VIEI8Mlrw6fb4/me763NTfPtT/8r2yb8EYnDKZtoyL/wn6INvYpzPu4gZtkpWJwVEC2kiVBNnw3ig15y+ee+Ott996Z+3s2Zm1wZSZU9s73q7wtF6E3qDK2KRxNn7xWNxsg4vHfGv+OocpauhFG52w0SnzRamabon+JKrKdZWqTlF2i6rnijMnTy8uL67qMBV04+Gb3dzMhCUGaX3XTLerxAEuMspqTV0GyouXXvzRj+sXX76l1sMcpiy3ZTzapCS0nlO6Z0NByp41kVvUMWnvKMjp7hxuPzrx8EOdL96Dg3sTlaLGph6olQscL91nvH68lX0qAQasTfPb9l8W5JYq2WywtnzmtTfe/e1vz/38ieLVV3dcWt2dfc60R15VhI9ubI3f9Iofr99quvL/Nj/YQGdim6jQTV3rSmzOscc5mxLZkqU1HylRGcuiNxGrDktg56xp8dLii398YeApPBh27dzV7XaFqOWEd3c1k028RB82A5RILcvqYOm1145957uHGz0iYaFuOqYWsTFK+L6BQiJlJqHGs2sunMQpZ6+TNZNx6fbb9zz0YP8L99muvUZlhBA8MTVCvQ3Og/+kfvwpubLA2cAcIDJyzSQGZKtXL52/8PIrZ374s3O//p0//8KhOt0SizkStuScQwzbuTLIyddDDKKNiAKbXHlDcfLKX1vqrjlUyGZYylgseNyf9bjpW/XwxFKzXBdxYr4fCy6LRrO5SQwl8eri8h+f+cMEd7/ylQcOHz4cy02L+adSKQOEqSDU58699cQvVp95/qszCztHg6oeBSH18L4r2ahWMGlkD5STRvOAABdA6qpKu/ZUf/3wzINfjocODqTkhCLAOdSkmcn9SmP+P6t9Gq7MYJBAgoFqywwQ8ui9kyf+8OzxH/80//Cne5cHe5rmsPqCNRADubs3KUlLBPNRZhu8FFf2mXVVZ6f3FaranG/8LNsqwiByYp8gmXTaAdkNWbDU16abRqfr4WoTi5lpmexpjI2qAYE5Ouq1+tnfPb1zfsfczMxCuZNE2qNHgqSc43ba6hYJIaWLb7/78mM/OqJh98g6o5qQSaJcodzY+H5YB/ujBSoFMCSCqlG3Ozy4K9x7x/w3v1pcfz3KqqwVThAYgSFdyAfQIP8pffpTiZXHdFmwgECBgebcuUu/e/bkY99f+tkT17/59vVz8/sn+3FtDcM1GCFKtjBqmt7WbSjlK9KeG0dm+98NKmzQlcLFuATmtNWuTCxC4maoGzaadman6KFPmHN/SVf17BntRV6YRxGbOluiTlF2i/Lc5cUXnj82Pzff6XT701PuDiGA3AzsW0XMgUiggwvnjj/9zOKxl741vaN76VLFoE6hzBuK2u87UghwZwfDhSESEMpc9Zb37ay/eGfnb77eu/E6SAmjINEFDcOBSpkzEDZRd/5n9ONPzZXbKq9CggCrFy+8+5vfnfjhz1Z/9eyec8sPTC0gm62tJHZMlAZkgxpxiNuwRW4es8P7q2y2mWd/3ZnbGTuGbrUrMwUKpWpqciPmAeg4zxmbMZNfnizPrK4uXTyfSvGJvoSqoKLgiKxTk5Nvvvnm1MzMjl07+9PTgGvOEsL2eqkEz/Xg1JtvvPCrX++K1WSjfZJuFbVyy0o6bsFxOymy6bIpq7gQMYWAGNe65cqeOb/r5vjgF0JRos7IhBBqohGoBNgYl0aYKxA+W0j6j22fiCtv1nMGYJoV2WNIQNLB6Zf/cPJn39enHr/l5MnriMI4inAoHM5Aq35H5KH03CAndotCQYSEM6gGGvQ73p2w0EkqVhMnSaOmN9W/NFymwWK3LP5/6t782Y7rOBP8MvOcqrrrW4GHfecuUhRJbZYUbdndM9E97piI+UNnIiZmiRl7frEn2h63ZEsiQZEiKYAQQCzv4a13qapzMnN+qHsfwOXBNLdwn2CQFwy8+2rJysqT+S3lcKwUpvVcUz2I3ueW0uyIs2aMjyBJQGXuxVkEt6mct47Ge0rugbvUbQxbBYbAaUiV/A+T+fuTu4cT46vXZHM1B5moSkHDIkbx2x+89/aZzdWV4ebprcBiqoG/IJRVtcO+Hgi324+P/u6/4P/5v54LtDpYGUiJukYmJjHKn6oulsijYBRNmhhAjppm5p9cPdv8p19e+cu/GvslNVMREgIhwkMnaxboy8fxsYZxJwjWudlIh+/zBYb7KSmQz994UzWHh5MVNL+99Z1s+1gYpCDzdv+j23v/+Fv6/R9PHUwugNd4qRThx6lzMdsgICfV7NDAMIKawclDWaLXZ6dJbYfcTqXw3iCeGlO//0mFmWyuvnwhnj9XFaMw0/jJtt19kB9vT3ce6uNH6eggqqPooQzIpqkJGQR4ECOnboy82Bt2WXzxnG25t05N4/f2Z5Od3VwUGI9jCAUz3OHWNs32o+3HOzubm6fBYFrKkH7RYKJztj968Gjvj7dGjW0OeuIGzehUcfhE7QwikBDBKcSa7XBzhV+5PnrlxbC+2Rmodm3Jbs/ZuXc6+ZfPx58BnXdyItRpBTrMFO5MvABaAV30mtlyM0KEjkJvT0v1fTdvg++kGUdCCK7qu3uHv367/n9/vfbhJ5drbIWi0HRSDeGOlCBgIYPOnYVi6f1qGkNLPml1GsO06rXjsY7HWFmhjdVH3Iyvnl/75c/o0uXkBU2SPNofPNyNjx7VH9+e3LkV3/kofLKdAhStNTOvG1EnDggdQ/WL0cACX0eOIYiCJ/OPHj6aBXDk/nitolDnWtUkyOPHj+/ff3D1+o0A4hhM8zHT+1iO49ixL9bzo49u73308amqXOsNedZ6nYiYHXqyhY+xU/CQzWK5PeTpCxcGP3p99MLzqHpt+iy/5F8bQJ+hsakqAWHppeJwYvaFqshxn7NzWyTihZX7grfQYaQ+LVj/L0pxfs31XYRyxzCyup59fGf6q99U77x//uHeObEQYbATKT4AURnIBdnYNJBWXPeKPYr7Ke8Oe1gb08Ya1ta0N2hiSMNePd64/OabmzdeH6xtmSKPM23m8oUs82nafmD3PpZ/uBl+/V7z4K5t341uoYCZs2lwZjrR/lfgI8orHCunuql39tu9Cmncw2AYpOxkZYhod2/3/v1PZtPZaCViqSK6EC0w617ZXQHt7vZ49/D379cf392q+kMKpq1nJSHY50Z8T19JRhbttZJEDi5s2hsvr37/ld7WOUORE6TzyvlK87xOven4Z929aRq4BxEWdmY6loshWlAkOmMNWYr/defl3fhgoSHbnXt3ib7tWeN3EcoJnjXbwd7+e79vb76zufP4bEoBDtZMJ6qGEFHkgjyhEI4hRz5g3jbbr2K7sr6/MY6nN2jQR1mBY6teJzl/5tq1iy+txk20BRxEUXuwSL6xwmfWBlfPVmcuyYUr9v/9Y/p1w+2c3cgyZYg+y06YyAsxgLecL5reTe2j6cHBwW6zslaVAxDFGEE8m063t7f3D/ZX1tYB8FPbvs949ZnZ9M7d6ft/KHb3T4960mQBMwnUoAZZEMQ+vxxucGQ0VNL16+WbPwiXrxB6hUPlyazz6Vj5knHThfLTNq91Xe9ub7f1PBYxxkJCAJMECTFKCEEkiAgLC0vn3t7NoboELKHL66p6XGB08johhJMk079miH8XoazsdT1Pn9w7ePt3+OOHp7TplYBlc0eMaE+IZQd3ePsYbVAcCn+idl84r62NLl7pr61gUB3WdT1vA7tIwRyvX31xdeUMRJxBggCCueaWGZHj2soGv7qqG5vFel8rbv4BuPunXjsv2NEx+E/WXHMCsZLbRoGLRI/adr6/X6/uFStrnSadultrh4eHj3ceX7nx3LHG9VNI1yehnFLa/eijdPvOutoKWGeTMlSIgqY2Mz+5G90xZ5TCbLgyfOW18sVXi/FpdhaDyKI8+gpxfJw+j18aRDSfz9+7efP2Bx8UVVmWZSwLCUGKWFZlUVa9Xm/Y74cQqqrq9XpVVRVF0Sn/sghL7E7T3WOMIYTjyvtbsqr/7jAYOptMP/wovX1z8OjBsFP+VksSRQpgftJPWZ6HwWBWhO2Mh6D98ZqfPitb56bjccyFztDO2nk7l5hDhcHmxvqNq2nYa8WYs5AQnARR2KGdqa6Vga9eqDYG+fTKvrD+tVb3HgAJFRSKoy+u2x0EY2Kopz7osoTDjMn+9MHuXnO2HpZ9CeJqIYS6rrd3to8T/NMu7U8XjvP5fO+Pt/jhwy0JVba6yc4gERAZ3E+EPHVToHjQ7zVXLo6/9/1i6wqs8lYROyuzr8Vr+gwps2ma+3fvffD2uzFGKYIzGQAhCTEUIYRQcGCRooi9Xn8wGIxGw+Fw2Ov1xysrN175XlmWRVE8XR8zc1mWz/ZF/jpR/p1s+3LSnZ3m3T+Mbt3balMRNDPlUBCXnOVk4qUHShCaIjwEb/fHdu5iuHyx7ve2J0ejuSa3OalVofGsOt88s1aeW5+WYeAxLL39ujeygVtYi1xlFBzyeD385IdhltuZH/7jrwc7d6MekueTZs3kxBo88jy3bH7OYzbZb/Vob5rbWnojzUrMMca2bXd3d12VgpiqL7fwHV+1u6855/l8fvjgvhwdrcaAlKJwm1NJgiDO2fxkl24OXvUeDYbxBy+Vzz8n/TU3ZjJwzpTEF6K0Xy2OPxNhTdOIY6WqWMQJSbXObVK1zgC0q4Z9AUNkkSASYgwhjMYrD/b2t7a2zp8/v7a21lnbfHvJ+Hh9JyDPtsnb2/njuxuH01MxQudHRhTLqKyt0gmHwESoimk9PeQQts4Nz53fX199mGw6m1gpUlWHs0kLJUE9rz3T+tY6CwI4U5eOidw7QkpIuQSBe7BkrFYEr1aHb755uHe0W+/N/uv2xoN6qKryxfrE5ASLJJKB2KaRVOdNzqvemqWDNjFTm3LkUiRo1ulk2qa2lCqrfiYfd0tV27Ztj47Kpqk4IGcpi9m8LSRSCED7DJtDYrai2h1VW89fwanTGRwdElk5zTAfofo6ie3zHQxtE1KGOQmzuzg5sTMxi8O1aZmYhZkZaqqWm9bdD/cP7+3tnzp16vr1688///zVq1dXV1c7JdW6rsuy/DdfYPiiN6zkIFIzUw0ShMiPJn7rTrx9u7JprtrQxkopZ4hoKMjBnSOidx4lcDIshDBy2O9V9zY3ZmdPzcbVIbUzCm2DcMiTcT5sE4kEjlk49Hs0WnOEArwgph4bShF1rk0gAkcCw70A9VdO9X7881t7ezv3PxnsHw3rOXnuQPRPkEdERsiUHU1R91ZQpSIkBiFtOV3I870/vN+cOiW9gkCiYIU32ZqMityYi8Xc0YnYCMnn3FAP7Z2Phw8fjPKci566S8IoBqNMxOyRzISo04q0hQknd/ogs9bupjm/9We9518o4qDNSOSBSawov2gi8yVvXEe4iUXRnXdbN2WIVrdN2yq8J+5BS+KqLfYjGsm8v8+Tuh4MIAIOjCgchUKABGcCmrbZ+dOd2fajR3+8dff69SvXrm2dOztaXeUQnHju2c36YGExwQwI4KpxxK9FZ/mGs/JC/QxkcHUL3cM+m/vOruwdRM8te2AJmdQdZBAmfeLCDizYz7SQL+a9Xm9ndTgfVXVBU9LMoireeGqzOQlCVkrGIfZCr68GBvES/rakknREKgAgdAJtCleQFFtboxdeaK5d03sP8OiR5/TpPhgROQhOntAWGokCB0pk5DYiWdUUd3dT21RFQbb0okxquRu18LFb5nLkAGcneL2zEydHPddOjUvMUAh8QUJkyJJQ4ORPN+cogWZl2bt+pX/mbIw9Y2QByOAcvsatpI704k6d0LspPLazeV03BjC5swcWAYsQSw713La3JwfiEiwGiwWFUkIMHEPH7JXsZvMDPto/3N7e/vjOnfNXL5+7fHnt1MbF9S30IuDkBmMIZSw0dL6aDe7x+kZDmT71kYkYcDWbzrF/JLMmZpNAoE4/hboe5LF9Go5VIQgOGGESw3YVD3rVLEgSqZlaAomQmGmWGIm40dy0bWEaQsg5xyI+A7C/EFeEA8oKLsLq5Qt48Tl///3ZznZBMEC6fdcS6tyh7J4A1RwMj06VY6AYZhzOGxQ94iAsbpYtL8mny0qSnjxUQUS9nR1OtGlDN1hYhLq722LM8ORoj/+7IMR4iD5eq06dLlfXULIEgEncYNlBz+jQP2tZpxoC1SzCqtZR1w4PD2fzuVOn0AQzkCMYCrcqKfYPx7NDFW6D1EFyCE0ILuLEBA6hVxZlCHFGtPvg/p8+vvXBB+9tnj+7ubX146svn3vpxvjUOocSTt3jjU6b+OvVHd+aeIBDwAxoVj2c+ONdmc5iMgoEkk5/yMyOLZdpqU7UuV4beSK+W4ZHvfKg35tKcBJlrheQADfNVVG6I6tmzZpVc17YqJ28Ol22TjYmw0Ih/fNb9uKNvV9t7X30wam0ZG0sCCzuoGU0HkPUnN3Eqe8ydqwl2p/N0BtQIRLJmMzVYIuUbvbk9jhAxBBVnR4cetNGorCIcwPIO5V5yCJ2vTP1XjzkRnAgBWlHY1nfpMGwo5cw0L0MvnIoL0Y8y8/MxJDcto93dyfTCTEZSN0JFJyCgtyqul2d1tf2p4loLj4jzNjnRA0hA0rclCtBAokYUYLXTNNC7ldl7PWa5974+f/0n1/40RtY7cOY3ReivOFZKejLrG8tlIEOLGAp69EEe/thVgftIpfBnfqCuZkH6W4Z+cLNz+BKaNgfSDgoq1nZm0HEiIgMygw4kqmYusPciDmrHuztl0Xp/oQm9YX5E0G/AAAgAElEQVTH1UWIEHPgRAiDIZ8/Mz9zSvvl+tS5cwVaMAGPHzJwV5mQO4zcg6FnvgKsG/44rWmcJBZC0IUQDGDOjO5R7WKtWwx41uZoWqZcLDRru/cEqZvQorQwdL8PZA4iW1wTT1Ha4YqPVnIRk8MUHBQwkP0LesjPuFPLHgsDKeeyKJhp59H2zs7OvJ73hZSQHACJk7hJymXTnm/yaxaU0Jo1wBzewBM8OWrWhzrPOauZMWkIrWCq+aCtZ6l9MJHpn/3QUnvMyiwhhq8bx99OKC9fykwMh2e12YwnR6FtIMfqUrQAYLoZmBe0u8Vr1AhK3hLtOuahzFyaCRvEwOTEKmYKa3JycwM4hJTT3Xv33GzRkz1xbgd2YiASI0gLzMFpPGpObeh4ZDuPFvi8xQxyAc/hRVZmOGxhJUoFbOgYK2jeSLboTm4iXPVKDgwYs5geF8kwX7D0SN2aJOoFcyDq9hWAGZxhy6dnUXR0JBknN4ISrCji2oaMxtZNRNxhurDC/MqhvBAncmYCWFWZ5c6dO7uPH6spQlSn5ASiAgJ3VottGqR0FsadzQukexo6NZwW9okldWT3lK1Vbcnn8Kl5E0I+s3Vhc70oJGkKCuLlPmYJuvtqZ/ENO0Qtp6bwThmICCBL2ZuGcxvJwWTkBBgxkbP7UtDvU+IkRq6ElnDoSKFQEneCmsNZzLQNxGCqcwsDS3BgPp/f/dNdNROXf+lqOGOp6Aw0sFxUtL5Jq6sZ3nUBeIn0Ou61hi5L8vJoCUKoQD2CpFw6RXDOJr04Gg9jFCenz0yfl0cloEhcEhdEHUbfXa2D5fiiQjB3dH9wWDeiATK5BqZ+pR2Mk2EKX2CPOD/DWe3L3Dwzc2OW6XTSL6r333//4OAwSCBig7eAOwqQAWyKVKs1s6ACRKPCVYzIuvYP9dyuad3VPkasjJbQEBqSxPRg69TG2jhURWK4WuFCgEPNnelrKX59s1nZQVhki8X/cMvqmqRzbAikzK6LilYWeizOfvwjvqRweiI/gqciNIzsgJu5KqPVFiFCyJI7YKpJc53yw0cP3/7d71567Xu9qv+MQ2QQO8EMjkBg5tjr99Y303i1awgaOoGuJbZmYQBMHcbAyJwMzkRgRmQK2QogErWWgvRG47HEjqBqHVBscbZd7QIE0CCWVYgBzEtOYqd+1/3mpyQPunKd3N3YjVDntL27ow/vr83nKEbcQbUcjpD9WQp1z1pmXZXBxB247b333vvggw/qeh4lMNyA7HBGYhg5wcyzQS0GMlf3pK6WYW7uDif3vlun4cAsHEIULoDS0bofBHbkxIoQQEFb1HVjQXtF8W+lVv7Mbuu4C+Wq7sYCDgRhQz72MuIll/PYzG+BFaYumjGFeSGtwAxOasgqNNdEQYylQ2XmnOumaVLG4eE7b7997fnn+tXgGcfJXbMuKwihU4Ut+73hKnqDrm3SIScWZfuTTdsSCdTFOTu5d7JybB5AQmTZmNDv94KEhW4i8MTXnY4PgMpYRBFZYCWPZRI+t2f1p64JYIR5M79z5/bRx7e2Hu9sbPapQ3sT+RMK1b965ZyJiGPonquyLN95550HDx5AvSoLMu2alw4owQhCplAyr7KIuZiJdxaw7mRG7gQjhsHNTF2zmbnHwGXZL8v1tdWiihrIwVHAAtFvZmLyjUFIneC0EJMlB2OhkQzuco+3ZIpsgUsKFUJQqBsCC8RBmTraGgkxQZLz3NCaGlw9ZzTJ6taa7DmZNeZ1m5qsdUp1SuouQer5/OZvf/eHt9+ZHh3RUprI4CByouyWTNXhBGUCMigTEIAiBC6iirTMBmZncjIiZRh1jhKAdy1gFQaLOIm7BNCQUTI8Z00ZToPRysap0xB2GGAdPIkdYfEacgCe0A768+BtO0dKqt5KoNgrveCMBG2563swwIAwpGuWM4y0aQ4ff/zBe+++d3NnewetIYRZKSlipMg5H/c2VTWl1Pl7d3+0pwwljnGnAEhYXXNKDOR5/favfv3OP/1zczQJ7u5WQ2to5VTOswlmltK8KWurjN2ym5IZw8URQJG4ICkkcK9wJZG+9AcW2ayl3GZg0qvSufM8XC88CtTgFFAVoReKxTzga6xvMCuTLzpZT4lSEBCYhd2R3Oe5FeoxESCiqSULEoJygis5EQWQEDOgjkbNoMjZveMpZDc1JVVkw6ytu99gZh0AoD46uv3hR//wt3+3vnHqyvXrIYau36cwNQO8GyIbkJmUUbCaErGIsESxwAp2d3Yid2U4o5s/wNGCCzcsCC3iKjAWQo8pCguTm3GIa2ubp7bOqDsRzDQjEEEcwaGMhr0AkYmOR03krAlcupFLwaEMADQ3bCYojYkIJAv5DjjDBR6JS7ePb3+c3/nduWprHHs8HMzhEalMpNG7M112EhdbV9Xs7kz8GSSrmrlZh55neJrNb/3hg7/+3/+Pe7duV7Egs7ZtVZzYe8Yha6qstdyb1VVtPeeMvHzgSLpeoBEtdj+udZLBgGOIaD0ba56aTso4X9+g3jhaR9x0cGAhJnm2As6XWd9GM+5T+1ASphAhUcCUnZLCFm2qRa45DvqnZCy4a4Kptk3rTkbMJApPrZqJZ08pdUjZY4g3ER0eHvz2t787e+WKFPHc2XO9fl/N1VSzSgzH32+L6Y0khwLZrE1Jc15OvD9zOMvVzUc+D2xm7g0GcwmxLFfX11dWVjVrUcQmNcRxKQW2GLo4QDEMx6O2LCUUiGVoOyOppa7uEtn+mV9NDnYIOELme4f3bt95f/z+qCg2q3O01utStoSemua8wH6QCBEZPJuFEECdcNciIQOAezaFahBObfun2x//7d/+7Ttvv8OgclTmNmlr0gvEVGuqql7tmUylboomlU/Jzfji9BYH7m5NkxwKy9DO8C0YGBzjaBz7PY6RZOkH4MsZDf2bwSs/2agsJEi6e0MUhIvSix5x4LlRSlCGq9GndE+eVnNjJ3EK7mw2n9emZhxB0czmOQFsyYQ7vJCnlLr+UfezDx7c/5v/+6/ndfPzn//8ypUrIcYgggIGzGczsISSF/tSYmXKQHM0eXjv7uTRw01fPFu86CgeMw2XDAoHG8CLgEansRRCqKqc8mA83jpztj8YtpYAcgMHxueNIYu4sr621x94iJACmAuzdSOObuf1ufcsLR9vUeMmVa0d7R68++7NZnL0fH7xymvPjUZriKHjLEkIappycndmiTHGWCy5kzC3NqecMxMVZVmGUswnhwcfvP+Hf/yHf/jNP/1z27ar45UF2tg8RDFGY4kHg1ZzaOpwOOnV9QAQX3asjhuIQNd+adomUjAytywAWGCsoZS19d5oKGUk4aVUmvvSveWZLgH/8vqGOxgGCKjD3XaiKxSE+z0fjihW3CkoawaxCYEFtmA90PFD7sSAOKJRmfPhZJrnrZbBwWrUNDmyaJtDP6hrzrlt25wzMxdFMRqNUkofffBB2zapqX/xi188/9KLHELT1CnnsiojsTqCCJdDGJomOYhSW7kbi3ThsgSBPJnxPWXvy/6kPWMEZUgRm5yS2eUzZ85euADhKKXBWOTYJIqWTWUHEHi8uX64Mq4lwBzZoHBkECAcmJSIfPkU0eIlwA4xBLc4a8e1abL93cdvT/Z3253GZ8OXXyuLVRSFmWbNHTL4aSfUbKlT+WeiqihQLLRyHNbM5+/+7u2/+eu/ufnOTcDPnDlD5nVdOxAkIHu2lFhrUZjj4LDYOxi1aUgUlrnHadF5WfR8HOYupbgs2vQgUVBTVnx6q1wZcRmXI/puP2vO3SzIv87w+pvMyotWPdGCOEwOEMfAo5Gtr4fBmHcesBncQOoQxjJm8Cm1B7IulH3NbPdomo8m2QOzJNMmJ2cOyVNt2RWAiIhIzrltUwjCzP2q/OTun/7X/+V//sN7v/+P/+k//sVf/mVZxLKIIEJ+6k1AGFYRhL2dnQc3b+Y/3rrmi0yz4PA8gfF0T9ynlhEyIwmFfu9gNqs2Ns9furS6tpbVSBiOEAr9XJXS5fLeykg216dl2Ryl4CqpVSgRMUgoMOCe6dMqYZ1OTY9pU+2j+4/Cxun+tc2W/PZHfzzYe/zg97dfuvL863/xy8AcQ/GpSXv34yzulnIiIITY1c2Hh4f7+/t//b/9n+/88+/2dndT05RlmdukqqYaQohSWsq5adDjum37ycPO3vBguqK5F5gNCzYAFvvjRelMVMYQKLiQdUABQ6ZQj4fFhTOD1THHsNzYOszNXPAFVdW/dn3DWfmJICzBugoiBFoZ0ulNWR3zPSHKIM8wI5HFX+qyx4LsCAeDglPpdBp+bzbd29vLXEhZJk8GVW1VrW3NyDv/aiJKKdV1U5ZFlxiqWFjWd2/evP/JJ3//93//8iuvvPjSixcvXhyUIwqBOmmOlmMR2+nk6PbH81u3ir098W4XTV1/rCv/Oi6m8mIa1VnxahfHjCTgsrQQLl29eu7ixaLXowVAmbnb1yytNcnBRB20ohj2BxfPtRurk8NHGxBotuhGxBaWtij4FKRuIcKLgeMcfGM6m+/u0bl5MR5YksnOwXuT9z758P7f/ea3ly5ffv755y9dujQejzvVLywhzAQqOOSUDo/2d3a2b9++ffOdm7du37774W1rc6/XK2NhWSeTSQhBRDqPZwdR9sIwn81tUpc7B2vzdkweYcHJF52rpYbqYgPEZYgMymJu3VwdVpZ2asOvXpLRwIIo/HioSQCE+XOP3792fZOh7EsQRYdnBIzBFJhGQ5xa55UxFQWJA65uTk6d105YgoRpcX7sEEfp2CLuz+d5f1+rAciVssOyt9lUjcCcc+7aojnnnFMMgYU1JwDE5Iq93cf/9KtfvfvuzdOnT1+8eHFjZb0a9HlYmBomSsrTxw/y7349fO8P19W4ixh/Al9fXl5XLDao3QCZGBlIgiQwptNnz77w8stb585xiE9AdQsQ9qcgIQ6oG8ewcvnC3tlTzZ8eo6xAc2c3A8xgBv5sybiA5jlK+GnLl0C70+nBzrZEGg76wbmt9e7uI3304N7tO+/+9u211dXxeDwYDMqqFBGAiHLWPJ/PDw4Odnd3H+883tvfm0wmbdOyoSxLIcbx5FEc7urupAIqOIhRPZ3Xdx+dPZifMh6Iw1Q8GEE7WO7xm27xWoOqKpPSYojow76c2wrXLsmg50wKo6WIFIG+fvviGy4wFoTyJzuMLrMx9SusjmnY8ygQcke3hV6gVIEnGWi5jyBHAK0zVW2bjw51ZR1lVFFEV1WDpUShKMysI/GKSFEUIQYAWNKGhTnGQO67OzuPHj28fevWSn9Q9SvvR5gPtOyH3vTBn/ofvv/9/f2NWFBdP1VTfArT1iGLmWDLxJx58U/K+crVq5euXBmsrCiRqouQmssxhOJJZ5IMqpqFaXj+zOzMqVz+EYFQ1xAyd1UVZ4h07ylfwq5pGc3RbJxtM5S9unl0cMDjQb/qF1xky2pZ3Cf7B3vbj2+5iciSH0ruZkidAlhd19PpdD6fm1lZVb1eL0roxpBM7IFTTjmnbh6Q3UDSDyVbonk7u/9oME/rHEtqzBJ56MJ2WRvQ00PKlHI3K1AYcaRBP57ejBfPchk7aKcs4byfVmH96uubzMqMRd3ugHQy9wDBpTeg02fC+mlIz/OMCmIjZHdliAAZcOnmycstUhCURAPjTfW12XT/aDcVsGEpFBYYJDKYkyuZQp0lFEtmb4bCO8Ak2KwIFKp+UiXzZlbnlGkeY4hWhJwP6fDxeHZ0xnSTJcAXUgZL8P9CKB8uSIwIJacsAeymBO4Np2W5ef3G+RdeGG5uIAY3N9UgkdzMjJkJn+o3Csi6OdDFa3z9JV99H/t7kAxzMyYOcD7u3i0O5Xgg6mCyEafTjlOzo8d7u81woL1h6kcVQzC3JAxEyoqsqWlrzTmrmmqHRZYgRCwcer2+uwsLOWU3mAsxMRkjB1eYEgIoA4FiiSZMDnuPHw0PdreUV4P0naJx507By6v05OF3IMdgjpxbzo2zlWXYODW4cCWcOUtSuLN0o/+uuCQBfQOzum80lI/pte6hS43mAEJvROev8MVr2ltPuzvliKNTOjI14Vg6agDR+HjUDUZg9J2nDV3hsJfye3vb26ImG0IjsWiepchqNWCLd5llliJpZgnJM0yjhMBBQJ40CJdFJSE4hxDKYTWoiqJuJo/v/3H8ya2zs4PzJiNndwNBZTlpXgKdHBa9BkpkJiByhmtRCFY361OnXv0P/93ajRs+GDjBXdlNABFpVYPZpyjHAENcGILJxef9+z8t/v63+OcH4JYS1HsUS7jD85O53CKOFz1pIbDkc4Zrc5s88u1QWNVPRWEFU2rbyZSYIRwKCgjuQTVYymrq3nNfoqPY2Rcrq3fYCzfNreaIVHaS+o0kM9KamvZod/jg/saDBzd0fjWEFYShc6DS2QkQx/KCHZMoBNYL4JAmSj4TTcNh//K18XMvt6MzXbrg5TPqYVHNfX3vwO+EpgqyXt8ub82ubtnsjjRtEJaCM3tGkhNeLUwYBjnF5TnSXcXkcLKrPh81RX9UltVEGwdYIglTZ/dgZvVcDWURQojO7CFyURZlxWFBGxIJZdkTCYf7ezsf/qF69MkZS5ek6ucmpTacnBrcgEgJiiI4OSHUVfW4F0/96LUz58+NRiN5ysexm9f8C0qeHEZXLtL3Xzq69c5oZyJty4XUuRaY0MkgeifkEDmcCsV5eL27s205TY7Kc+dWxqOjWXbAFKbubq5GaqIuhg5M59021jvT2s61FrluCVRIDEFa91xn9RyMKgQATXOk9x/lTx70JrNTMZ4K1QAc1Bezui88RnYT5XnDIiVhGuJ0ZUSXtuKFLYc829v466zvxsABPhy1L12dfv953P2ot30/FC4FZ9ac80lAGAbG7OdiMYdPU3u4Nzk8mE7Hs7xlvhlEywXMDSwsDBAvaspm1rCgP+z1q2FRFkbIqt3euhr0iP3u/dv7tz8e3H90I/lrIVxBHuQMy+AvViYnUPCQXLVkEnILxsVhfzg/f/r8v/+zC5cvV/3BsRLK8Qd5pkkpgXoXLuQfv/7gN/9Fd3ZXKcBpRimRAeGkx9vAbCU7nWW4qh/ut4cHj44myWlQDlaGG1lznZs6tZrV1cQ9EEuQaWp1AVxbLiz/pA5iJ/NMYAhToHIgYYDQTPf04Sd07/7a3uQS6ErZ2wrlwBSuX9CefHJurjHVTTvkGNDjalifPycvXx9eufDZue43ur6LUA4KlL10/TLe+B5+c9Me7mPWEnuUnDtHsC9aBMDyepBMoYbNctNoo7BpKfPohY0Ygk7BlU2YA1hAATQqRsyBlH3atnVyoRhjVVVlVaR69ujRvQd3bsWd3Reo+ll/+HKdVtt5gJHISVeYncTCvG3ieJDbbCbzopytbGy88YON114uetVx9mXmZ1m0P7UkqZel3bhOr//g4OadVc1oj6qSXYiUTtKVdnDiiFSPLZWFFO7B7P2jo8d37x1k+JmzSkjkmT0X7OqtZqRMqiTi4GOdpKeXRqghW2ZTJzZiqM6m83bW0u794d79zXl7I1avhuoyxZVs7OYwp5MditzZGhFCC3BRrJ0tX3gRL1zPq6vlUwOmb3x9J+pECgC0vla9/KK/8CJ9eB+PH6ExKbvG8on6aKQKzevCVyWkWII8qt87PDrSlCvnopSyoKKggp05O+VsjerKcCAcW8sWUPTiYNALzKlu9ncPjj65U29/suX5QhVfy3ytbbeyEgjE+qxrTEAIVnNqgqL1OOmN+OqN82/9uFw/zZBj/agvL1ZZOLIEOX129Qc/mf/9H/DuB2hnrAoATieqmxI7xUBtsFRmi1EgArMPH+8+mtbbaU79kod9HlahjAbRTLl2TRqWI8tF/NqTxIxeScyUDaoO01ynycS29/H46MzR3hWrL4fquVhcdl5V5Q6GQmbHNIHPXyx3SW2UUo2tGpWXbqy98v32wqVEUtVAPFl86eut7ySUzeEkVVlduuivv4b371pK3BwgtycKwS42XIacA/g0iZUlRy617dfpUV3fX5VklVNlsUcoOZQskZ3Jua5cWDOcA3uJzE09m+0/eLT/aLu/vX0+NReHg+difL7Vjaahbh/ui/HjyadAMQZtZqEYzcpBffF874031l58OaOXczY1Iur6J19ycUABkZXN6qXvFz/5s4MHOytU+7ShVhGewdNzsIcgMIZrT3EucAvnZl7NZ9OQtVfquK/jvg36Xpadepcs2FNPfc1TfPJs2Q2UMpo61bM0PeLDo8H+bDBpnzP9XijOxHjWaZQaNkMMXdv7GWJZnZ8tiiL1ynz2XO97r5QvvTxbO5WTP6ss+drrOwlltq6VIesbeOMV++iOTg75bkJOz1DicUKWEADSXIhviYjEkjFs7GGbeXI0aefNPLSzIvUrrXpc9ouiYg42n4DJybNr3kvT+dwPJ7Z/OJhMr6m9wsW5Ri83el51SA4WOGUL7icKMXQsC46E5KiibW3y668UP3nDt7Y4U8r5y9cVT1YwgET6OH+p/7MfP/jwneq9OdVHSNZx5E5YBqshADPUYNZXPUeI5qsp++7eVHh/l/bLMOmVqdfnahDLXgylx3KhxPj0AuDe7k6taULbUj2z2VGsJ2ttOq9yDvGForgWpO/e1yZouyS5hI4bf/IiMENiWt3Mr75Q/eB7uHI5lH1LhsDPcE78mus7CWWBkeasVFTy0jV78yX7+I7t79jhkSLHk4Q8ibQoXHNQZbWS/LRIlDAM1XmXosl7TXso7Z7MD8N0FgstKgoVOCg5GMxwzV7PeTobNnmd4lroXevFa8jr09lmW68EoGAPSB7hhajB6i88EiOaRyo4Vz1GyXz5TO9Hr/Krz0+Koj9JHBdY02PRzi8T086JwPCA0VhfeS789LXZ3r3+/q47u/tJd8VNzecaghBDBG7BfdVzz30TOky02+a7s/ZP0IfCh7FIRV/LPknZjgYufFxVdEVG1xHOh0c0m1Nqy9T0rVllvcRyg+QihfMsK3BoJksSOq568mxOz2rOOJEWMROns6fx+gvp1eu0uQ4WYW0LhG+rgfFthvLxrbVOuEOdYvDVTX7lOX3vQ3twz+sDqs3ZFARmgYh1rDtzuDGcxV1NwWZQjcA6SRnCJsko2ZHbnttOtp3ke7N6YnVjUIOhFXgVYi9IHz5y30DYisV6qNbga4YxuE8EV5i3EA8cXIQIiWyZrYgW/qPu7uRaeJNytbpSb56mV16svv9yXt9IgGYNvfiZTtyXieZOkicYsiBtrQ9/+sbhB++WB9NguzSbEbVG5GDxbnLkS+tud9WcCQHMQmByj2rRdUi+Gcs96DmTs6533R61ftjWzVFS5+3d3dyRt7tu3FMfTrsP1XuuY8JGrLaqcIHjBfXNhEoNmt3MmTkI3HPOpspCwuJEbAu9XmcoDDBxZ2KTYTtcxfUr8urzdvFMKorgYKEWFr6tBsa3E8qfsez0pKGVwBVaIAZ75bXD2bypm+pIBx/fynF/KqyxGFNfGkGdkObEbWIvWwMAWap9mjFsBIwIo6pIoNpt6jrxfORp6jaHJriaCKgk71MeEobiQ9Y+tQUOe63EzCBoUQKAIzQAWqAlJjAoqSY1UAwFRwFAlsXTWpnzUTktLtV//j/Q//hX4eVXexBuNRVePLXV+zK+G91fCNZHBjICQ0Yr/uOfzKbTIy9XZ78t6nuA5hhbjr0UkDq0VSbOxLQgc9qCvQAAYEjBAezTDWAFfoGwT9gHHcGmsAb0SdJ0QgRdQF4TL4n7xEOSYasj8h6JCMNcHRABpNuRMsfudJXdoxczhgbE0guac0tWD1XhIdDF6o3X2//+l/zGa2F1NQBsgJF5S6H4Ny9/ePLyyCZMyTV7DgixGF26WL32cnNvp26mw+0ZDHVbN1qzS+SAAjlbO2vKsnfSdw5CUOIevA8fk8+hLdACCi8TRfMIFEAFq8hKW4LMzPWE6jypKjSGGEPsfJxcMwjmZgaZxMnWWv3mC+VbL/UunBUuvM4wHfZPPMJnr9ozCZfC5mhhRdHffPnl/MOH04cHOj3sH6ZolFJ9MG8qCv2qD6Emt3XTDsMXmy8t0HfuTlSAxs4leA2U3BV0JZ5Ux6HwHGARVACVU+VUOgS6UHE7Ieqs1bbOMVYkSDqZTxOYehxAPfRGO69c7v3ghfLl5/T0euYItSIBgkKeKYP29dZ3onoPZIZEGLw1N+bB2bPy1g+s0bnl8m8PeD6t2gkhISJLAII79+1ZUeJNzaBIEKaKeERsDAMbeeUWHd0AEB2LvfsAf9rR7zOLRDhEYYGapwzVzn+dY4SVoLX05qv6n38pf/ZGcfo0m0DNAj0lL/evWyZwIABmaA0usX/ufPjxD2na1CmXv7uJdh6aRpFSTNNozIUaCZ9oIuZAgw6/hcKpXJDKiCBwtFA/aTgnASDuJGm8G5wuYWFMJ+1AgwcxSW4utXmKppILCSX6Y5w9N/nLn5Q/e9NuXEnFKMO9zdGInjkz+vrruxlcu8OFJQQBIcFb6RWXLhXZ25Taw6P2/feLe5OBAJEh1moKXHHVszw96TtTni8wzsQBTCREtOisIXWBa97BQGzxb0Bc5IR7IxJCLJAyskUQhF3EQvSy8N54uvVS+Itfhn/3s3D+InuFzCjYgjlyxFfxqBN0yHUEQkkhwTQM5Nr1nnFj3DrlP34UJodjYRTUsGZLQmURIqw54SLDOgQVKBzDC6FdZi08nRTK5MVTyga+8PUxA9xP7qQIByA0OnXRXhlBMbcy64/k2vXw1uu9P/8ZX7uch2uOKG6BQUJgqGf52szqk9Z343GNiIXIVgV4dg/sgxFduVKYO7QeFKmZDSZ7gEGV1L1LCc9YscuI6MTAyW2JDgY4g9QA66T7QAZySKcxeJLKPpkjGZoMd0gAUUOUiiqsrYWLV5qf/bL4+U/p3KWKh6gJgMcFbjJI+AqJOXaIcwMcFf0egnsAAA88SURBVMHUc4g8XAvPl+ScGPnvSp9Meke7cC2TsjqZCZ2od0FAgJB3bNRjkVdfltYn9sDE8lIdb4EWd5Axecc7fVb7GG5gI1BEkKY3mFy7Uvzix+Nf/mL9xVfQ72WPBGejKAKGs6UnMMFvfn0ng+vjK+IAUCjQdSeGQ3nuqg4kRgGo/v3vi8cPdT7JqsImnJ7xnVwsTBrIyDtFb1uaeHTxDGIwiIzZiRcaHaqwEwxH1Ci1yBnCYJ4THZSlnTo1fu653uuv46/+HV+/FHnEqVOuRQIUoGc/bycvMX+amlsau5Fy8OHYn7/BYkWMpPCbN2nvkTdzViOYcz4JaEROEdx1UBymndI4WVcrlF7ySbYQluAdQYkcZNwJpDNAfPITYDAgmyNnJou+tpEvX5EfvUX//hf25g/icA0Gac1gRACTcvc4yX/btfIC/7uYMNnSl9GdyPsDunZ9jALlsN3YmP3zb+xPd8JsUhHsxPEt8BTrueNIGi30jMkhxlAsyAwdl/eJZeJn6c/Hy9zInANBqA446FXTra3ile+Ft97Cm2/I918gKqLywmdQQI5AIPqqWqpd7RoWRyVCnTDc3KD9QXz+uX7oUX9cj8ftb3/HD+4X9TxYfsZECViwrxaKzU5KyEtabS/jJPSDsynZsf9qp7rBC21ePwnI5uzKpiHUIc42TodXXi5//MPypz+0V19OqxsxAQC7d7p2uVPDBMs3gOU8cX0ntXJHVRQkqFvudTyuhZxhCNznqze8N9DVFV5Z4X/6Tfj4Fk/2XNtnxAgnW/RHCUvdFeqasO5YaJFjyWg5zsQnf6PBVRDLYIXU/R7Onx2++lr/Jz8t3ngTV6+Aq2BQc43kDM4IdY4CLeSrJRmHE5EzMtzdCmIspEzhzlaO/cUXsLZi46Gvr9LbN+neHTt47M2Mn+Vgb8uzZAHYKSx5WUA+KcF6F2PeieBxl5aX2cdOFMFiR8lcDOPpM/rqK/Kzn4QfvRWu3/DhioLmlHqddV+2BLNuaNBtLr+10fV3YkGp2rpLCBms7BEe4eYKQnRQQo4yP3emjD9cHQwxGuMfy/aDd5u97V43al3Wa0uBAbg7qy84YV3qZXLu9DOQS7IuLszYjMzgygDcaOmGsFR7xfE3K6xmR1XQ6iBunR58/9X4i1/grbfs0uUDVCHnaEEjTQgZPnKPynDi4iveGWIxRoKnhToywUzdJYTo4oqjQvT8+fLPw8rqGBtr+NV/bT5I+XFT+bHY+bEI1ILxkmEd1pWJO/uSZVAyqhlOeMsxhDu57k6K0wi2fChkqQkCLKY/tKDHm1DuF+WZM4PX38Kf/8J+9IP5xQspDPvGIWM/qpAEoOWc0U1zSMzRKKrwLZUY30UoF4UsN/kElF2pIaETXXVImw1Gkk6dlh+P+Oy52Y2ru7/+dfPuzRs3f0vz6XR+qK4SpIz9QJUmzo2iF8jhZm6Awoyc4YGMqc8lujebZs/qbrBOHZ7gLdB2OmyN5WwGQ0EcRapqWKysHJ3aPHrxOf7Jm8MfvUE3rshoBOjAJsRjYyf3lY6lJPBex5pz+mrWzUIMlEABAaTjUYSnKK2W0QTxU+fyz1f57IXZlRv7v/4Nbr574YOb7fRIJwfRksSIooQEmKdskjILQwIogBldAyMbLMNP1ktxAfFCnYBNYzZPBjMYiAQhKlF2tAazJnDqx9wr2nOX29f/3dorL4Yf/xAvPGerIyeiBcsWQ4vdHrzgquhG/+ROhEr+287Kn3MpefrDQhaQ3RHI+326eG4QvTq10rx8Ta+crx88rD++Qw8e8GSKGpBMTF7CZNktdoMZ/P9v71x+5CquMP6dU1X39mum5+F5jz0ev3hEDjhBIAUp2SFkFgjwDgkhxJL/IGSF2LKIgsQiiqL8A1F2bJFgkUjYyEFRQhSIGTz2mGDGM9Ove6vOyaJu94w9njhIuAea+9v4aro9XV33m7pVp+p8R4kJwoYpUJsQk+s0HnwpqjQzK4tSkVbtxBA7SYxWq6FaCTMz+QMP1E+ebD76KB44LbOzvTTt5sqAw8D8aE/u6rd0S+5Mru6nyFqVTKDMUq3Y44sNS/X56ezB1c5Hy/n6uvzrM9nYMO0W9TxsiIZOrMXKDfCxGpCQBKMqqgcH1OPZimg7DgkQJYIlAoywxlRJdIHgsup4b/5IdnxBlmeS02dmf/IzLC1i5RjGahIVGgIp7c0Y35OKfR/PxBVf5H5/wL0hOHAupALPoHrNHFvkI2PpmRWc+hE+X+O//R3/+Ce+uCqbN32nFfJO7nNVYYk2A8ra9/zr560jFgoTCVAlErASs3JHJYM6NRaW0oo2xnRmWpdmdXYaJ1b57CN2fgnLxzHWDIkRQIJCvdD9XK3cBQWpITUq0V4hNKpmdZHmmumpFTn9kF65kn38cf7JJ+31tWTzK+5shawTfM6BibSo9MTF9MDG6JckB50L56jkIPA+BCEVgJgJZNQFb1UrFW40Qn06X1zWM6fcw2f41EqysoSjC6hUUK15UEAgL0bV0O7wT/su7iuHLeW+7WcKFoUIcuIsqYXEoTlem1hNVk5iZRUPPcRrn+PqVb1+Xb78j25v5Vu3KMuN95p753OKdQy4MN0vIiQsSlAmsoZNUS44d47SOjUmeGIKCwtYPYoTx3B0npaWsHAsT+twFQHAsApjiNTRrmnccPpEYQKDUiAaG2dgSitIUzs2aZtL1dXjsrqcXTmVff6ZrK2Zq+u0cQObW9ruaggSvEoO8eTFQJgLl/IDI8SsUCn8vpSEEnaJuoSs41pCzZpOTubzC375qBw/wasn05VVNzMbmtVWRfuLFWEBQ5g1UCzSs7ttNDRBH7KUBcihFjBMRgBBALwxgYyQ5A1Gdc5M1Gh1yXz9MG98qVc3zPp1ubmpV9eo00Y3C92udDqUddlnsaKB99FaHGoYltk5kzpKHFubphVTb9jJSTM3h4V5WViQxXmdn5OpSa3VlG0O0kytklNw9HAZZMcPrU9IFcJgB3JAUAiRwAZQsLDjSmNzZqbCZxbw1YO4eh3/XsfaNd64SRvXpJdJpx1aLWm30Olw1jMhZ1GHAz3x1bAw+ZRyYyRJqVpzY+NurGGqVZo4YmbndOEIVpfo2ALm5nhi2tQmyDpiBIgFjIiNlYyJAiMnEdXKYD09xIH5uyBlYpDp5+kbwAgSAw9uocOG3XjNjjXs7AJWerrd8ltb2u5U19fQbkmrK60dv7PjWy3ptr3PVLx0FQIws7MmTVwlMdUqpwknrtIYQ3MCU80we8RPTfrGuFbq1jkmQEA+pwAWGPRzno1yzBoY4hRDAA+2IAuFwigZHRiAqee2MFHaSMfrmFukY6f1wS35eks2t5Irn6LT061t2dz0Nzdlc4u2d9DpUBYS36UD4sp51fjEhMRJtYqxMTs5iekpnprgRl2mluXIEk02zJEmJqrsEoA8CAgMUwebGPfQYveDiAQU+m6RP6wJBoENXN+caFCOEaRwpMF4gmEhKwyQ1m02Vu8uznqg+shJ7mXo9LTT5nabul3kGYVcVW0vVkQgYjbOmsRx9K60BvW61ut5Jeka14MN0EQp9bBF+EmKZRhr4fCMvjXyUG5Gv09Mv6BqQLEhX3jMEKFngwFbb40kgPHN8d7UXA8SkCc3TmqWo9XmrZbb3NFbO9huo93RLEd3C3r3zQ4eS03VsXNarWKsTs1xMzGB8UaoVHr16bzaTAAHOMCGPMAL+5zYAtabaEJVhPWVQMbGh9me+dhwdHz4UmYgAZEiaIglLAq3NVGB1kzFwLiisAW8QB2YhaEtk5hagloNMo4gLEoEZ1iJUnbRG0n6xc+IWIqFPfvdvxvPWW5EGBZsYQ1MCkBCHigwc4yGDvxph0Y0SVEiD4CEiDiqJZCwWlQdDFNxDNMo2BDDCJDNLsSniVPhPHAvIMuR5whCnfZBUkajgsSCWY1VazVxsE4QF9W0u4DMA3wgIk2sEovC58JGY8Y7Cs3yHXoamo4PX8oUlHMVElgVGyvYFZWSJGit52ARDHwCBYyikncqvQ5ChvGmwiCICpFaZYZhMUaL0SyOFxyrACtzdKZ2HmkM28X7aggJBeQ99BSpQRoAYRfgBGJAiVKC2/wLh4EHMqgBEgps4jEGZpAl8pT6pAhFJIjF+mp5XpMekO+QITax8pIkSUji+WUV0YoeuHAVY9Dfto42Y8gR1y1J3ga6SFMkTh2rSyFkpEihb6dqmPpVj8nAsBT7MDGja5g6Pnwpg4kSMIpiewaFcLQoR6Mx8G4H203GUcVAtbBCZlOUHY05TP1aqhhsWRcREomHvJgH/RtjVBxdfh0K20Uz+K/xpb6h51Cxsd4siNn01UX9DlLR3adEsc3H4Ao0rcQ5iAymQ/0uICLeZw/aZzCH1r6FPTGiZwa5FJTE/dToxrL3hGbf/sPEbqPCAA7DF3HksKVM+7/3YDuWpCgVvnt8QIl1b47/HT022M69C8VKZM/Lu/V/7ti2OWT6f1I06Io+WlRGu32ALdyT98SN9bZf1pfogZ+mu2rW3d0fAui2NHK67Z/Bx+2/e4fDt1bsrKTkcCml/H3iUB7c3xcOe4LxP/nW79wISOF+fIWDfuf3q7vKUblkRPhhjcojQPmkOohyVC4ZEUopl4wIpZRLRoRSyiUjQinlkhGhlHLJiFBKuWREKKVcMiKUUi4ZEUopl4wIpZRLRoRSyiUjQinlkhGhlHLJiLAr5Xq9KGOj6g+vPSUl92Cgz4FiI7tSPnp0Pl5s79wcbttKSr4BA30OFBvZlfKPHzkTLy5fvjjctpWUfAMG+hwoNrIr5Z//4qfx4q23fj3ctpWUfAMG+hwoNrIr5aeefnJxcQbApUuXP7z43tBbWFJybz68+N6lS5cBLC7OPPX0k3tfui2C8cqrz8WLCxde3Lx1fbiNLCm5B5u3rl+48GK8Hmh1wG1SfunlZx9/4my8Pn/+mVLNJd8dNm9dP3/+mXj9+BNnX3r52TvecGdc+Y03X5uebgK4dm3j3LnHyplGyXeBDy++d+7cY9eubQCYnm6+8eZr+99zp5RXTyy//c7rUc1xpvH8C+ff/+Ddre0bZby5ZJio+q3tG+9/8O7zL5wfzCump5tvv/P66onl/e+nTD/a/9PPPv3iV7/8zV/+/Nf73+CSkv+Xx584+8abr91VxwdKOfKH3//pd7/94/r6l/ezeSUl92ZxceaVV5/bPz/ey38B3QGGIXAbaS8AAAAASUVORK5CYII=;" vertex="1" parent="1">
                    <mxGeometry x="620" y="130" width="175.16" height="223" as="geometry"/>
                </mxCell>
            </root>
        </mxGraphModel>
    </diagram>
</mxfile>